<svg width="32" height="32" viewBox="0 0 32 32" fill="none" xmlns="http://www.w3.org/2000/svg">
<path d="M14.9941 10.8799H17.0056V15.9999H24.5028C24.7695 15.9999 25.0253 15.894 25.2139 15.7054C25.4025 15.5168 25.5085 15.261 25.5085 14.9942V11.8856C25.5085 11.6189 25.4025 11.3631 25.2139 11.1745C25.0253 10.9859 24.7695 10.8799 24.5028 10.8799H21.7681C22.1384 10.1172 22.2247 9.24747 22.0114 8.42689C21.798 7.60632 21.2991 6.88869 20.6042 6.40291C19.9094 5.91713 19.064 5.69503 18.2201 5.77651C17.3762 5.85798 16.589 6.23769 15.9998 6.84743C15.4097 6.24103 14.6232 5.86426 13.7808 5.78445C12.9384 5.70464 12.0951 5.927 11.4016 6.41179C10.708 6.89657 10.2095 7.61219 9.9951 8.43073C9.78069 9.24926 9.86434 10.1174 10.2311 10.8799H7.49693C7.2302 10.8799 6.97439 10.9859 6.78578 11.1745C6.59717 11.3631 6.49121 11.6189 6.49121 11.8856V14.9942C6.49121 15.261 6.59717 15.5168 6.78578 15.7054C6.87917 15.7988 6.99004 15.8728 7.11206 15.9234C7.23408 15.9739 7.36486 15.9999 7.49693 15.9999H14.9941V10.8799ZM17.0056 9.32562C17.0056 9.01821 17.0967 8.7177 17.2675 8.4621C17.4383 8.20649 17.681 8.00727 17.9651 7.88963C18.2491 7.77199 18.5616 7.74121 18.8631 7.80119C19.1646 7.86116 19.4415 8.00919 19.6589 8.22656C19.8763 8.44393 20.0243 8.72088 20.0843 9.02239C20.1443 9.32389 20.1135 9.63641 19.9958 9.92042C19.8782 10.2044 19.679 10.4472 19.4234 10.618C19.1678 10.7888 18.8673 10.8799 18.5599 10.8799H17.0056V9.32562ZM11.8855 9.32562C11.8855 8.91339 12.0493 8.51805 12.3408 8.22656C12.6323 7.93508 13.0276 7.77132 13.4398 7.77132C13.8521 7.77132 14.2474 7.93508 14.5389 8.22656C14.8304 8.51805 14.9941 8.91339 14.9941 9.32562V10.8799H13.4398C13.0276 10.8799 12.6323 10.7162 12.3408 10.4247C12.0493 10.1332 11.8855 9.73784 11.8855 9.32562ZM17.0056 26.24H23.0399C23.3066 26.24 23.5624 26.134 23.751 25.9454C23.9396 25.7568 24.0456 25.501 24.0456 25.2343V17.4628H17.0056V26.24ZM7.95408 25.2343C7.95408 25.501 8.06004 25.7568 8.24865 25.9454C8.43726 26.134 8.69306 26.24 8.9598 26.24H14.9941V17.4628H7.95408V25.2343Z" fill="url(#paint0_angular)"/>
<defs>
<radialGradient id="paint0_angular" cx="0" cy="0" r="1" gradientUnits="userSpaceOnUse" gradientTransform="translate(15.9998 16) rotate(90) scale(10.24 9.50863)">
<stop stop-color="#006EE9"/>
<stop offset="1" stop-color="#FFB800"/>
</radialGradient>
</defs>
</svg>
