<svg width="32" height="32" viewBox="0 0 32 32" fill="none" xmlns="http://www.w3.org/2000/svg">
<path d="M11.3186 24.3507C11.3186 24.2377 11.2056 24.1248 11.0362 24.1248C10.8668 24.1248 10.7538 24.2377 10.7538 24.3507C10.7538 24.4637 10.8668 24.5766 11.0362 24.5201C11.2056 24.5201 11.3186 24.4637 11.3186 24.3507ZM9.56782 24.0683C9.56782 24.1813 9.68077 24.3507 9.8502 24.3507C9.96315 24.4072 10.1326 24.3507 10.1891 24.2377C10.1891 24.1248 10.1326 24.0118 9.96315 23.9554C9.79373 23.8989 9.6243 23.9554 9.56782 24.0683ZM12.1093 24.0118C11.9398 24.0118 11.8269 24.1248 11.8269 24.2942C11.8269 24.4072 11.9963 24.4637 12.1657 24.4072C12.3352 24.3507 12.4481 24.2942 12.3916 24.1813C12.3916 24.0683 12.2222 23.9554 12.1093 24.0118ZM15.7802 2.32495C7.98649 2.32495 2 8.31144 2 16.1052C2 22.374 5.89686 27.7393 11.5445 29.6595C12.2787 29.7724 12.5046 29.3206 12.5046 28.9818C12.5046 28.5864 12.5046 26.6662 12.5046 25.4802C12.5046 25.4802 8.55125 26.3274 7.7041 23.7859C7.7041 23.7859 7.08286 22.1481 6.17924 21.7528C6.17924 21.7528 4.88029 20.8492 6.23572 20.8492C6.23572 20.8492 7.64763 20.9621 8.4383 22.3176C9.68077 24.5201 11.7139 23.8989 12.5611 23.5036C12.674 22.5999 13.0129 21.9787 13.4647 21.5834C10.302 21.2445 7.08286 20.7927 7.08286 15.371C7.08286 13.7896 7.53468 13.0554 8.4383 12.0389C8.26887 11.6435 7.81706 10.1752 8.60772 8.19848C9.73725 7.85963 12.5046 9.72334 12.5046 9.72334C13.6341 9.38449 14.8201 9.27153 16.0061 9.27153C17.2486 9.27153 18.4346 9.38449 19.5641 9.72334C19.5641 9.72334 22.275 7.80315 23.461 8.19848C24.2517 10.1752 23.7434 11.6435 23.6304 12.0389C24.534 13.0554 25.0988 13.7896 25.0988 15.371C25.0988 20.7927 21.7667 21.2445 18.604 21.5834C19.1123 22.0352 19.5641 22.8823 19.5641 24.2377C19.5641 26.1015 19.5076 28.4735 19.5076 28.9253C19.5076 29.3206 19.79 29.7724 20.5242 29.603C26.1718 27.7393 30.0122 22.374 30.0122 16.1052C30.0122 8.31144 23.6304 2.32495 15.7802 2.32495ZM7.4782 21.8093C7.36525 21.8657 7.42172 22.0352 7.4782 22.1481C7.59115 22.2046 7.7041 22.2611 7.81706 22.2046C7.87353 22.1481 7.87353 21.9787 7.76058 21.8657C7.64763 21.8093 7.53468 21.7528 7.4782 21.8093ZM6.85696 21.3575C6.80048 21.4704 6.85696 21.5269 6.96991 21.5834C7.08286 21.6398 7.19582 21.6398 7.25229 21.5269C7.25229 21.4704 7.19582 21.4139 7.08286 21.3575C6.96991 21.301 6.91344 21.301 6.85696 21.3575ZM8.6642 23.3906C8.60772 23.4471 8.60772 23.6165 8.77715 23.7295C8.89011 23.8424 9.05953 23.8989 9.11601 23.7859C9.17249 23.7295 9.17249 23.56 9.05953 23.4471C8.94658 23.3341 8.77715 23.2776 8.6642 23.3906ZM8.04296 22.5435C7.93001 22.5999 7.93001 22.7694 8.04296 22.8823C8.15591 22.9953 8.26887 23.0517 8.38182 22.9953C8.4383 22.9388 8.4383 22.7694 8.38182 22.6564C8.26887 22.5435 8.15591 22.487 8.04296 22.5435Z" fill="white"/>
</svg>
