<svg width="100" height="100" viewBox="0 0 100 100" fill="none" xmlns="http://www.w3.org/2000/svg">
<path d="M49.6401 59.99C51.4801 61.23 52.8001 62.13 53.6001 62.69C55.0401 63.77 55.7601 64.81 55.7601 65.81C55.7601 66.77 55.1601 68.13 53.9601 69.89C52.7601 71.65 51.5401 72.53 50.3001 72.53C49.5401 72.53 48.3801 71.99 46.8201 70.91C46.6201 70.79 46.0601 70.41 45.1401 69.77C44.2201 69.13 43.5001 68.65 42.9801 68.33C39.2601 71.21 35.0801 72.65 30.4401 72.65C24.2401 72.65 19.0001 70.45 14.7201 66.05C10.4801 61.65 8.36011 56.41 8.36011 50.33C8.36011 47.01 8.96011 43.91 10.1601 41.03C11.3601 38.11 12.9601 35.67 14.9601 33.71C16.9601 31.75 19.2601 30.21 21.8601 29.09C24.4601 27.97 27.1401 27.41 29.9001 27.41C35.8201 27.41 40.9601 29.55 45.3201 33.83C49.6801 38.11 51.8601 43.53 51.8601 50.09C51.8601 53.41 51.1201 56.71 49.6401 59.99ZM18.9801 50.03C18.9801 53.59 20.1201 56.49 22.4001 58.73C24.7201 60.93 27.3001 62.03 30.1401 62.03C32.9801 62.03 35.5401 60.95 37.8201 58.79C40.1001 56.63 41.2401 53.73 41.2401 50.09C41.2401 46.45 40.0801 43.53 37.7601 41.33C35.4801 39.13 32.9201 38.03 30.0801 38.03C27.2401 38.03 24.6801 39.15 22.4001 41.39C20.1201 43.59 18.9801 46.47 18.9801 50.03Z" fill="#006EE9"/>
<path d="M74.7848 27.29C79.7048 27.29 83.5848 28.69 86.4248 31.49C89.2648 34.29 90.6848 37.45 90.6848 40.97C90.6848 44.45 89.1248 46.97 86.0048 48.53V48.95C86.4048 49.15 86.9848 49.59 87.7448 50.27C88.5448 50.91 89.1848 51.55 89.6648 52.19C90.9848 53.87 91.6448 55.79 91.6448 57.95C91.6448 62.23 90.0448 65.77 86.8448 68.57C83.6448 71.33 79.6248 72.71 74.7848 72.71C69.9848 72.71 65.9848 71.31 62.7848 68.51C61.5848 67.43 60.5248 66.01 59.6048 64.25C59.2848 63.61 59.0648 63.09 58.9448 62.69L58.8248 62.09C58.3848 60.77 58.1648 59.69 58.1648 58.85C58.1648 56.53 60.1248 55.37 64.0448 55.37C65.6448 55.37 66.7048 55.57 67.2248 55.97C67.9048 56.49 68.5048 57.53 69.0248 59.09C69.4248 60.37 70.5248 61.33 72.3248 61.97C73.0848 62.21 73.9248 62.33 74.8448 62.33C76.9648 62.33 78.5248 61.91 79.5248 61.07C80.5248 60.19 81.0248 59.21 81.0248 58.13C81.0248 57.05 80.5248 56.11 79.5248 55.31C78.5648 54.47 77.4048 54.05 76.0448 54.05C74.7248 54.05 73.8248 54.01 73.3448 53.93C72.8648 53.85 72.3448 53.65 71.7848 53.33C70.7048 52.81 70.1648 51.27 70.1648 48.71C70.1648 45.91 70.9048 44.25 72.3848 43.73C73.0648 43.53 74.1048 43.43 75.5048 43.43C78.5448 43.43 80.0648 42.65 80.0648 41.09C80.0648 40.25 79.6648 39.45 78.8648 38.69C78.0648 37.93 76.9448 37.55 75.5048 37.55C74.1048 37.55 72.9848 37.79 72.1448 38.27C71.3048 38.75 70.7848 39.23 70.5848 39.71L70.2248 40.43C69.3048 42.43 67.9848 43.43 66.2648 43.43C65.2648 43.43 64.1648 43.07 62.9648 42.35C60.9648 41.19 59.9648 39.85 59.9648 38.33C59.9648 37.69 60.4248 36.33 61.3448 34.25C61.5048 33.89 61.9448 33.27 62.6648 32.39C63.3848 31.47 64.2048 30.67 65.1248 29.99C66.0848 29.31 67.4048 28.69 69.0848 28.13C70.8048 27.57 72.7048 27.29 74.7848 27.29Z" fill="#006EE9"/>
</svg>
