<svg width="32" height="32" viewBox="0 0 32 32" fill="none" xmlns="http://www.w3.org/2000/svg">
<path d="M12.8952 18.8226C13.6855 18.8226 14.3065 18.2016 14.3065 17.4113C14.3065 16.6774 13.6855 16 12.8952 16C12.1048 16 11.4839 16.6774 11.4839 17.4113C11.4839 18.2016 12.1048 18.8226 12.8952 18.8226ZM30 16C30 8.26613 23.7339 2 16 2C8.26613 2 2 8.26613 2 16C2 23.7339 8.26613 30 16 30C23.7339 30 30 23.7339 30 16ZM22.4919 13.6855C24.4677 13.6855 25.0887 16.3387 23.3387 17.2419C23.3952 17.5242 23.4516 17.8065 23.4516 18.1452C23.4516 21.0806 20.121 23.5081 16 23.5081C11.879 23.5081 8.54839 21.0806 8.54839 18.1452C8.54839 17.8065 8.54839 17.5242 8.60484 17.2419C6.85484 16.3387 7.47581 13.6855 9.45161 13.6855C9.95968 13.6855 10.4677 13.9113 10.8065 14.25C12.0484 13.4032 13.7419 12.8387 15.6048 12.7823L16.7339 7.87097C16.7339 7.70161 16.9032 7.58871 17.0726 7.64516L20.5726 8.37903C20.7984 7.92742 21.25 7.64516 21.8145 7.64516C22.6048 7.64516 23.2258 8.26613 23.2258 9.05645C23.2258 9.79032 22.6048 10.4113 21.8145 10.4113C21.0242 10.4113 20.4032 9.79032 20.4032 9.05645L17.2984 8.32258L16.2823 12.7823C18.2016 12.8387 19.8952 13.4032 21.1371 14.25C21.5323 13.9113 21.9839 13.6855 22.4919 13.6855ZM18.5968 20.2339C17.5806 21.3065 14.3065 21.25 13.3468 20.2339C13.2339 20.121 13.0081 20.121 12.8387 20.2339C12.7258 20.4032 12.7258 20.629 12.8387 20.7419C14.1371 22.0403 17.8065 22.0403 19.1048 20.7419C19.2177 20.629 19.2177 20.4032 19.1048 20.2339C18.9355 20.121 18.7661 20.121 18.5968 20.2339ZM19.0484 16C18.2581 16 17.6371 16.6774 17.6371 17.4113C17.6371 18.2016 18.3145 18.8226 19.0484 18.8226C19.8387 18.8226 20.4597 18.2016 20.4597 17.4113C20.4597 16.6774 19.8387 16 19.0484 16Z" fill="white"/>
</svg>
