<svg width="100" height="100" viewBox="0 0 100 100" fill="none" xmlns="http://www.w3.org/2000/svg">
<path d="M56.6998 45L61.3998 43.25L56.6998 41.45V39L64.7498 42.25V44.25L56.6998 47.5V45Z" fill="#A100FF"/>
<path d="M12.2495 60.4998C10.5495 60.4998 9.14949 59.6498 9.14949 57.7498V57.6498C9.14949 55.3498 11.1495 54.5498 13.5995 54.5498H14.7495V54.0998C14.7495 53.1498 14.3495 52.5998 13.3495 52.5998C12.4495 52.5998 11.9995 53.0998 11.9495 53.7998H9.44949C9.64949 51.6998 11.2995 50.6998 13.4995 50.6998C15.7495 50.6998 17.3995 51.6498 17.3995 53.9998V60.2998H14.8495V59.1998C14.3495 59.8998 13.4995 60.4998 12.2495 60.4998ZM14.7495 57.1998V56.2998H13.6995C12.3995 56.2998 11.7495 56.6498 11.7495 57.4998V57.5998C11.7495 58.2498 12.1495 58.6998 13.0495 58.6998C13.9495 58.6498 14.7495 58.1498 14.7495 57.1998ZM23.3495 60.4998C20.7495 60.4998 18.8495 58.8998 18.8495 55.6998V55.5498C18.8495 52.3498 20.8495 50.6498 23.3495 50.6498C25.4995 50.6498 27.2495 51.7498 27.4495 54.1998H24.9495C24.7995 53.2998 24.2995 52.6998 23.3995 52.6998C22.2995 52.6998 21.4995 53.5998 21.4995 55.4498V55.7498C21.4995 57.6498 22.1995 58.4998 23.3995 58.4998C24.2995 58.4998 24.9495 57.8498 25.0995 56.7998H27.4995C27.3495 58.9998 25.8995 60.4998 23.3495 60.4998ZM33.1495 60.4998C30.5495 60.4998 28.6495 58.8998 28.6495 55.6998V55.5498C28.6495 52.3498 30.6495 50.6498 33.1495 50.6498C35.2995 50.6498 37.0495 51.7498 37.2495 54.1998H34.7495C34.5995 53.2998 34.0995 52.6998 33.1995 52.6998C32.0995 52.6998 31.2995 53.5998 31.2995 55.4498V55.7498C31.2995 57.6498 31.9995 58.4998 33.1995 58.4998C34.0995 58.4998 34.7495 57.8498 34.8995 56.7998H37.2995C37.1495 58.9998 35.6995 60.4998 33.1495 60.4998ZM42.9995 60.4998C40.2995 60.4998 38.4495 58.8998 38.4495 55.7498V55.5498C38.4495 52.3998 40.3995 50.6498 42.9495 50.6498C45.2995 50.6498 47.2495 51.9498 47.2495 55.0998V56.2498H41.0995C41.1995 57.9498 41.9495 58.5998 43.0495 58.5998C44.0495 58.5998 44.5995 58.0498 44.7995 57.3998H47.2495C46.9495 59.1498 45.4495 60.4998 42.9995 60.4998ZM41.1495 54.4998H44.6495C44.5995 53.0998 43.9495 52.4998 42.8995 52.4998C42.0995 52.5498 41.3495 52.9998 41.1495 54.4998ZM48.8495 50.8998H51.4995V52.2998C51.9495 51.3998 52.8995 50.6998 54.3495 50.6998C56.0495 50.6998 57.1995 51.7498 57.1995 53.9998V60.2998H54.5495V54.3998C54.5495 53.2998 54.0995 52.7998 53.1495 52.7998C52.2495 52.7998 51.4995 53.3498 51.4995 54.5498V60.2998H48.8495V50.8998ZM62.0495 48.0498V50.8998H63.8495V52.8498H62.0495V57.2998C62.0495 57.9998 62.3495 58.3498 62.9995 58.3498C63.3995 58.3498 63.6495 58.2998 63.8995 58.1998V60.2498C63.5995 60.3498 63.0495 60.4498 62.3995 60.4498C60.3495 60.4498 59.3995 59.4998 59.3995 57.5998V52.8498H58.2995V50.8998H59.3995V49.1498L62.0495 48.0498ZM73.7495 60.2998H71.1495V58.8998C70.6995 59.7998 69.7995 60.4998 68.3995 60.4998C66.6995 60.4998 65.4495 59.4498 65.4495 57.2498V50.8998H68.0995V56.8998C68.0995 57.9998 68.5495 58.4998 69.4495 58.4998C70.3495 58.4998 71.0995 57.8998 71.0995 56.7498V50.8998H73.7495V60.2998ZM75.6995 50.8998H78.3495V52.6498C78.8995 51.3998 79.7995 50.7998 81.1995 50.7998V53.3998C79.3995 53.3998 78.3495 53.9498 78.3495 55.4998V60.3498H75.6995V50.8998ZM86.5495 60.4998C83.8495 60.4998 81.9995 58.8998 81.9995 55.7498V55.5498C81.9995 52.3998 83.9495 50.6498 86.4995 50.6498C88.8495 50.6498 90.7995 51.9498 90.7995 55.0998V56.2498H84.6995C84.7995 57.9498 85.5495 58.5998 86.6495 58.5998C87.6495 58.5998 88.1995 58.0498 88.3995 57.3998H90.8495C90.4495 59.1498 88.9995 60.4998 86.5495 60.4998ZM84.6495 54.4998H88.1995C88.1495 53.0998 87.4995 52.4998 86.4495 52.4998C85.6495 52.5498 84.8995 52.9998 84.6495 54.4998Z" fill="black"/>
</svg>
