<svg width="100" height="100" viewBox="0 0 100 100" fill="none" xmlns="http://www.w3.org/2000/svg">
<path d="M40.0247 60.4847C36.8247 58.4233 32.4818 58.0616 25.4779 60.0047C18.0113 61.7593 15.5218 62.8841 12.2524 60.6262C10.9964 59.517 10.5461 57.7311 10.8823 55.1586C11.6622 50.9651 13.7699 46.9294 17.5137 42.4529C19.6033 40.1242 21.5417 38.1258 24.1012 37.3233C26.0628 36.8199 25.8794 38.3615 25.6421 38.582C25.3916 38.582 24.9708 38.6215 24.6457 38.8337C24.3817 39.0384 23.6573 39.6993 23.6184 40.5883C23.5623 41.9492 24.9706 41.666 25.5781 40.9187C26.2329 40.0767 27.2006 38.4642 26.4394 36.9614C26.1203 36.4264 25.5691 36.0567 24.8846 35.9309C22.5409 35.7969 20.3582 36.9142 18.3437 38.1493C13.9381 41.2098 10.4139 45.4504 8.41982 50.0923C7.27022 52.893 6.23048 56.9049 7.78891 60.1702C8.99463 62.4358 11.4976 63.6393 14.4838 63.3876C16.5782 63.1676 19.1108 62.4907 20.8141 62.082C22.5176 61.6725 31.2367 58.6754 34.1016 63.8918C34.1016 63.8918 35.0542 62.0425 37.435 62.003C39.3924 61.8224 42.2162 62.5697 44.2725 64.0799C43.5874 63.0497 41.6451 61.5312 40.0247 60.4847Z" fill="#E61A27"/>
<path d="M26.3674 42.9797C24.7366 41.9097 21.4589 43.9552 18.8337 47.4639C16.433 50.6112 15.3964 54.2691 16.5246 55.9606C18.2026 57.951 21.3181 55.0559 22.6429 53.5063L22.8139 53.3251C23.7148 52.3574 24.4108 51.193 25.0846 50.0756C25.0846 50.0756 25.7038 49.0529 25.7333 49.0056C26.116 48.935 26.577 48.8249 27.0964 48.6753C27.089 48.6988 25.1091 52.0267 25.3111 53.6786C25.374 54.1826 25.326 56.0235 27.1233 56.582C29.5188 56.9835 31.4317 55.1265 33.1192 53.4743C33.1192 53.4743 33.4068 53.1992 33.5694 53.0422C33.5283 53.2069 33.4746 53.4267 33.4746 53.4267C32.7733 55.8657 33.7187 56.3775 34.31 56.5663C36.0972 57.0859 38.2323 54.4895 38.2392 54.4895C38.1838 55.3073 38.022 55.9838 38.8841 56.5268C39.6978 56.8181 40.5214 56.3739 41.1474 55.9569C43.4023 54.3679 45.2188 51.8805 46.686 49.7307H45.7501C45.739 49.7307 43.4407 53.0619 41.9483 53.7859C41.946 53.7859 41.6743 53.9253 41.5179 53.815C41.3241 53.6498 41.4005 53.3061 41.5201 53.0627C41.5277 53.0469 47.2826 43.0657 47.2826 43.0657H44.5654C44.5654 43.0657 44.2686 43.5459 44.2444 43.5774C44.2261 43.5617 44.1826 43.4791 44.1525 43.4395C42.4691 41.1109 38.6568 44.6928 35.7866 48.8466C34.6816 50.4438 33.2748 52.2422 31.816 53.5402C31.816 53.5402 29.6548 55.5212 28.7315 54.0979C28.394 53.4999 28.4978 52.6256 28.6882 52.0515C29.7633 48.9909 31.6158 46.2135 33.724 44.5377C34.319 44.0738 34.966 43.9396 35.2869 44.1364C35.5928 44.3176 35.6422 44.7657 35.4487 45.0726C34.9577 45.0569 34.5643 45.2061 34.2445 45.5365C33.6146 46.1975 33.3957 46.8348 33.596 47.4328C34.569 48.8174 36.5095 46.0795 36.4156 44.4117C36.3821 43.8136 36.0631 43.2473 35.5869 42.9717C34.8773 42.5471 33.7948 42.657 33.0942 42.9956C32.1563 43.3495 30.6718 44.5845 29.8052 45.5445C28.7143 46.7484 26.8433 48.0857 26.2583 47.9359C26.4495 47.4245 28.0299 44.1911 26.3674 42.9797ZM39.4674 47.763C39.996 47.0314 41.5344 45.0724 41.9095 44.742C43.1709 43.6323 43.6751 44.1206 43.7187 44.4665C42.5415 46.5749 41.1521 48.9903 39.8457 51.1618C39.8484 51.1541 39.4369 51.7833 39.4369 51.7833C38.86 52.6641 38.279 53.4195 37.3314 53.9465C37.1963 53.9861 36.9735 54.002 36.8253 53.8913C36.6468 53.7733 36.5764 53.5766 36.5965 53.372C36.6534 52.6956 37.3421 50.6269 39.4674 47.763ZM24.6856 49.0295C24.6856 49.0295 24.6619 49.1006 24.6503 49.1238C24.6473 49.1238 23.4655 51.0511 23.4655 51.0511C22.7524 52.0032 21.8619 53.1994 20.7489 53.7734C20.419 53.8835 19.9629 53.9545 19.7304 53.6636C19.2378 53.0735 19.4917 52.2552 19.698 51.5945L19.7711 51.3584C20.3625 49.7537 21.3009 48.3372 22.2144 47.0234C22.2258 47.0156 22.2514 47.0078 22.2607 47.0078C22.2629 47.0156 22.2666 47.0156 22.2681 47.0314C22.8413 48.1327 23.9161 48.6438 24.7198 48.8802C24.7247 48.8802 24.7299 48.8881 24.7299 48.9039C24.73 48.9273 24.7169 48.959 24.6856 49.0295ZM25.8052 46.7561C25.7999 46.7718 25.2788 47.9677 25.2788 47.9677C25.2035 48.0305 25.0844 47.9992 24.9478 47.9677L24.7139 47.9281C23.9794 47.7001 23.4253 47.2123 23.2545 46.6301C23.019 45.4972 23.9868 44.6082 24.4131 44.2858C24.8223 44.0023 25.4584 43.8529 25.8277 44.1441C26.0555 44.4117 26.1418 44.7577 26.1418 45.1356C26.1419 45.6467 25.9841 46.221 25.8052 46.7561ZM60.1557 50.4063C59.8936 49.84 59.2717 49.478 58.6089 49.5173C56.4564 49.7141 54.351 51.4842 53.2455 54.0252C52.6654 55.3313 52.3488 56.409 52.1413 58.124C52.8107 57.3533 54.1759 56.0867 55.7252 55.3943C55.7252 55.3943 55.936 53.7501 57.011 52.2867C57.4178 51.6807 58.2318 50.7052 59.1458 50.9648C59.9446 51.2323 59.6638 53.4432 58.6023 55.5826C57.8169 57.1563 56.6151 58.7302 55.399 59.8157C54.3239 60.7282 52.7333 61.8297 51.3416 60.9801C50.465 60.4611 50.0179 59.375 50.1123 57.9747C50.5311 54.0018 52.3397 50.6188 54.9278 46.7639C57.5963 43.1842 60.538 39.5102 64.5007 37.5509C65.309 37.1419 66.0576 37.0475 66.7046 37.2992C66.7046 37.2992 62.9847 39.3448 61.2115 43.1291C60.7604 44.0891 60.133 45.3868 60.7648 46.5355C61.0949 47.1333 61.681 47.1806 62.1531 47.1491C64.3266 46.6455 65.7309 44.6158 66.8782 42.7593C67.5434 41.351 68.1347 39.9506 68.1347 38.3928C68.1347 38.2041 68.1249 37.9524 68.109 37.7634C69.1473 37.2129 71.2768 38.1883 71.2768 38.1883C72.9408 38.7392 76.4839 41.4536 77.6791 41.9726C78.262 41.2961 79.2201 40.2734 79.7596 39.762L78.9786 39.282C77.7284 38.5188 76.4069 37.7949 75.1063 37.0791C72.1523 35.4665 69.7477 36.0328 68.524 36.4734C68.0431 36.6464 67.6036 36.7959 67.6036 36.7959C66.6955 35.8047 65.2059 35.8988 64.1085 36.1665C60.1617 37.2994 56.4974 40.0607 52.5688 44.8521C49.6805 48.6049 47.8889 51.8464 46.934 55.0482C46.1979 57.2038 45.9742 60.3743 47.7707 62.2547C49.2982 63.8514 51.3236 63.5055 52.7538 62.9314C55.8527 61.4052 58.6379 58.1164 60.0257 54.3321C60.3607 53.2072 60.7323 51.618 60.1557 50.4063ZM67.2816 38.5503C66.8713 43.2551 63.2143 46.0167 62.3094 46.2367C61.761 46.3467 60.8253 46.103 61.6607 44.1285C62.8907 41.4691 64.9909 39.2113 67.2441 38.0548C67.2991 38.2515 67.2976 38.377 67.2816 38.5503ZM88.9748 39.148C87.0077 40.2654 84.9684 40.989 82.5 40.7373C81.816 41.5085 81.1498 42.303 80.5359 43.1211C84.0005 44.0023 87.6735 42.0433 89.722 40.179C91.8891 38.2986 93.0002 35.9307 93.0002 35.9307C93.0002 35.9307 91.3759 37.7872 88.9748 39.148ZM51.7985 43.0659H49.2181L47.7626 45.4309H50.3425L51.7985 43.0659Z" fill="#E61A27"/>
<path d="M82.4898 60.7039C82.2123 60.8926 81.8225 60.7475 81.9682 60.3149C82.3313 59.2135 83.7746 56.9689 83.7746 56.9689L87.7947 49.8388H85.0411C84.9101 50.0538 84.6303 50.5475 84.6303 50.5475C84.5029 50.3353 84.1219 49.8634 83.9651 49.7614C83.2924 49.3363 82.3054 49.5373 81.6245 49.9227C78.6641 51.6538 76.5041 55.0739 74.8005 57.7411C74.8005 57.7411 73.0073 60.7059 72.012 60.9264C71.2348 60.9894 71.315 59.9425 71.3487 59.6986C71.6492 57.9361 72.3469 56.2605 73.0499 54.742C74.4798 53.7508 76.1116 52.4527 77.5945 51.0287C80.8129 47.9523 83.5261 44.4671 83.9226 43.6882C83.9226 43.6882 83.4934 43.7749 82.9865 43.7905C80.5106 47.2442 75.4439 52.2638 73.9078 53.011C74.5883 51.3743 78.9848 43.5622 82.7261 39.8253L83.3148 39.2587C84.2253 38.3697 85.1685 37.4571 85.9035 37.3076C85.9812 37.2997 86.0811 37.3076 86.1675 37.4888C86.2002 38.181 85.9426 38.6925 85.6469 39.2746L85.2326 40.1244C85.2326 40.1244 85.8195 40.0142 86.205 39.888C86.6521 39.0466 87.1474 38.1022 86.9648 36.9774C86.9039 36.6155 86.6419 36.3402 86.2995 36.2772C85.1834 36.0647 83.9671 36.8906 82.9884 37.5595L82.9489 37.583C77.9177 41.5246 73.6694 47.2049 69.9551 54.9622C69.6859 55.1664 68.6458 55.4106 68.4691 55.2924C68.8359 54.5373 69.2977 53.5222 69.5287 52.4208C69.5687 52.1059 69.6059 51.7836 69.6059 51.469C69.6059 50.7918 69.4434 50.1548 68.8368 49.7145C68.1256 49.3603 67.2466 49.5257 66.6538 49.7929C63.9989 50.8944 62.0146 53.6167 60.5826 55.8586C59.8124 57.283 59.0446 58.8085 58.8319 60.5554C58.6822 61.9241 58.987 62.8054 59.7653 63.246C60.5656 63.6548 61.5729 63.2299 61.9686 63.0255C64.6583 61.6093 66.5377 58.7694 68.0191 56.1731C68.078 56.1653 68.8868 56.1419 69.4987 55.9843C69.5068 55.9843 69.5102 55.9843 69.5238 55.9925C69.4887 56.1101 69.1726 57.0544 69.1726 57.0544C68.2337 59.8077 67.7995 61.6804 68.6863 62.7896C69.9537 64.3552 72.0518 62.7347 73.7586 60.5944C73.3923 63.159 74.7214 63.5606 75.7347 63.3641C76.8986 63.0495 78.1956 61.8062 78.7975 61.1691C78.6042 61.9163 78.6566 63.2541 79.7155 63.3876C80.4411 63.5218 80.9843 63.127 81.6127 62.7886C83.8668 61.5612 86.5652 57.4711 87.2658 56.2886H86.3472C85.3512 57.7939 84.0839 59.7672 82.4898 60.7039ZM62.2563 60.4299C62.1134 60.2174 62.066 59.9852 62.0612 59.7341C62.0338 58.1914 63.6936 55.4288 64.865 53.9238H64.8675C65.3584 54.9988 66.4701 55.6898 67.1412 55.9811C66.3078 57.8379 63.4491 61.8145 62.2563 60.4299ZM67.6118 55.1509C67.5324 55.2064 66.1305 54.7341 65.8595 53.436C65.6297 52.3184 66.3993 51.4452 67.1438 51.0051C67.4634 50.7531 67.9448 50.6669 68.2979 50.7922C68.6257 51.0129 68.7145 51.4066 68.7145 51.8307C68.7145 52.0908 68.68 52.3581 68.6496 52.6019L68.6429 52.6572C68.4081 53.5294 68.0615 54.3676 67.6118 55.1509ZM78.8559 59.9344C78.8548 59.9344 78.5899 60.1703 78.5899 60.1703C78.2117 60.5085 77.8226 60.8704 77.3528 60.6893C77.223 60.6423 77.1318 60.4693 77.1098 60.3351C77.0884 59.3674 77.5241 58.4708 77.9468 57.5975L78.0552 57.3693C79.2708 55.3396 80.6838 52.9479 82.759 51.2881C83.1086 51.0358 83.4881 50.8239 83.8887 50.9892C83.9808 51.0756 84.0881 51.2252 84.0881 51.3745C84.0881 51.4219 84.0459 51.5477 84.0218 51.5869C83.4421 52.5235 82.8902 53.5067 82.3535 54.4508C81.3045 56.3154 80.2163 58.2425 78.8559 59.9344Z" fill="#E61A27"/>
</svg>
