<svg width="100" height="100" viewBox="0 0 100 100" fill="none" xmlns="http://www.w3.org/2000/svg">
<path d="M54.4713 27.7912C53.8765 28.5623 53.546 29.5097 53.546 30.4791C53.546 30.8096 53.546 38.631 53.546 38.9174C53.5019 39.5564 53.2596 40.1512 52.863 40.658C52.6427 40.8783 51.3428 42.046 51.2326 42.1782L51.9597 42.2002C52.202 41.9799 54.7137 39.7546 54.956 39.4462C55.6831 38.653 56.1017 37.6175 56.1017 36.5379C56.1017 36.1854 56.1017 28.7606 56.1017 28.4301C56.0797 27.6149 56.3881 26.7997 56.961 26.2049C57.2694 25.8744 58.2388 25.0592 58.4151 24.8609L57.644 24.8389C57.4897 25.0372 54.7357 27.5268 54.4713 27.7912Z" fill="#D71A21"/>
<path d="M48.2796 58.4821L51.342 61.148H53.391C55.3519 61.148 57.2467 60.3769 58.6347 58.9889C59.8905 57.733 60.3532 56.0366 60.3532 54.4503V50.0659C60.3312 49.0744 59.9125 48.127 59.1635 47.4661C59.0313 47.3339 58.1279 46.4746 58.1279 46.4746V49.8455C58.1279 49.8455 59.1194 50.859 59.2956 51.0573C60.199 52.0267 60.199 53.7893 57.3127 56.5874C56.806 57.0721 55.3739 58.4381 53.391 58.4381L48.2796 58.4821Z" fill="#D71A21"/>
<path d="M56.8065 40.4818C56.4761 40.8343 56.1456 41.7156 56.1456 42.5088V44.1612H57.82C58.481 44.1612 59.3402 43.5663 59.5165 43.2579C59.5165 43.2358 59.5165 41.6055 59.5165 41.6055C59.7588 41.958 60.0673 42.2885 60.4198 42.5529C60.5961 42.3325 62.1383 40.4818 63.4162 40.4598C65.5533 40.4378 65.0686 43.1477 64.2093 44.007C63.9229 44.2934 62.6671 45.4391 62.2705 45.8136C61.257 46.783 59.5165 46.3204 59.5165 43.8307C59.5165 43.8307 57.6658 45.5933 57.3794 45.8356C57.093 46.078 56.1456 47.0915 56.1456 47.0915V51.4759C56.1456 53.5689 55.4626 54.274 54.8897 54.9129C54.6694 55.1553 52.312 57.3144 51.9815 57.5568L51.2104 57.5788C51.2104 57.5788 52.5984 56.323 52.8628 56.0365C53.1712 55.7061 53.5458 55.0451 53.5458 53.9435C53.5458 53.6571 53.5017 47.0694 53.5017 47.0694H42.75C39.0046 47.0694 38.2114 42.9274 38.1894 41.8038C38.1894 41.4733 38.1894 38.1685 38.1894 37.6397C38.1894 36.9567 37.7487 35.811 37.0657 35.4585H38.1233C38.2555 35.5026 38.9164 35.7669 38.9164 38.3227C38.9164 38.3227 38.8724 41.275 38.8724 41.4512C38.8724 42.7511 39.9079 44.2273 41.384 44.2273L53.5458 44.2053C53.5458 43.8748 53.8763 42.641 54.4711 41.98C54.8016 41.6055 57.4234 39.226 57.7099 38.9836H58.481C58.3708 39.0938 57.093 40.2174 56.8286 40.5259L56.8065 40.4818ZM60.7944 42.9715C61.1028 43.3901 61.4553 43.8087 61.8299 44.1832C63.1518 45.2408 63.7687 44.0951 62.8874 42.9054C62.5349 42.4207 61.1909 42.5529 60.7944 42.9715Z" fill="#D71A21"/>
<path d="M47.751 50.8149C47.751 51.4098 45.8783 52.9741 45.7681 53.0622C45.6359 52.4233 45.1512 51.7403 43.7632 50.3302L45.8122 48.2812C47.2002 49.6693 47.751 49.9777 47.751 50.8149Z" fill="#D71A21"/>
<path d="M51.3202 27.2625C51.7388 27.6811 52.6201 28.7827 52.0914 29.3335C51.6287 29.7962 50.9016 30.5453 50.9016 30.5453C50.8576 30.2809 50.1746 29.6199 50.1746 29.6199C50.1746 29.6199 50.1746 31.6028 50.1746 31.8452C50.1525 32.7485 49.822 32.9908 49.822 32.9908C49.822 32.9908 51.4745 34.6212 51.4745 36.7363C51.4745 37.7498 51.4745 38.6972 51.4745 38.8954C51.4965 39.292 51.3423 39.7106 51.0558 39.9971C50.9016 40.1733 49.3814 41.7156 49.139 41.9139C48.7865 42.2223 48.3459 42.3986 47.8832 42.3765H42.1769C41.2736 42.3765 40.3482 41.6715 40.3482 40.9665C40.3482 40.7902 40.3702 38.8514 40.3702 38.8514C40.6567 39.1819 40.9651 39.5784 41.6701 39.5784C42.243 39.5784 42.8158 39.1378 42.97 38.9615C43.1243 38.7853 47.2883 34.467 47.2883 34.467C47.2883 34.467 45.3495 32.6603 44.0717 31.8011C43.4547 31.3825 42.6175 31.9113 42.4853 32.4621C42.0888 34.1806 42.4853 36.7804 42.4853 36.7804L40.9211 35.2161C40.2821 34.5771 40.3041 33.1451 41.0753 32.396C41.1854 32.2638 42.3531 30.9859 43.8073 30.9859H46.0766C47.5968 30.9859 49.2712 32.5061 49.2712 32.5061C49.4034 32.3519 49.4916 32.1756 49.5136 31.9773C49.5136 31.1842 49.4916 29.0911 49.4916 29.0911C48.3459 27.9455 48.1917 26.7557 48.7425 26.2049C49.778 25.1694 50.1525 24.8169 50.1525 24.8169C50.1525 24.8169 50.1085 26.0727 51.3202 27.2625ZM44.1598 38.7192C43.5869 39.3141 43.4988 39.4462 42.97 39.7767H49.4034C51.144 39.7767 50.7915 38.6972 50.483 38.1464C49.8441 37.0227 47.8171 34.9517 47.8171 34.9517C47.8171 34.9517 44.2699 38.609 44.1598 38.7192Z" fill="#D71A21"/>
<path d="M36.8234 44.5801H35.7658C35.7658 44.5801 36.8895 45.197 36.8895 46.8053V51.9388C36.8895 55.2657 39.6435 58.3502 42.9924 58.3502H45.7905C47.4649 58.3502 48.0598 57.9536 49.0733 57.0503C49.4478 56.7198 49.9325 56.169 50.1088 55.9707C50.6816 55.3097 51.3205 54.781 51.3205 53.0625V51.388C51.3205 49.9339 50.4833 49.339 50.0647 48.9204C49.8003 48.656 49.0953 47.973 49.0953 47.973V51.41C49.0953 51.41 49.8003 52.1591 50.1088 52.4015C51.5629 53.5472 50.4172 55.5301 49.0512 55.5301C48.7868 55.5301 43.3008 55.5301 42.9042 55.5301C40.657 55.5741 37.5945 53.5692 37.5945 50.1762V47.4002C37.6165 44.5801 36.8234 44.5801 36.8234 44.5801Z" fill="#D71A21"/>
<path d="M43.565 50.8369C43.565 51.4318 41.6923 52.9961 41.5821 53.0842C41.4499 52.4453 40.9652 51.7623 39.5772 50.3522L41.6262 48.3032C42.9922 49.6692 43.565 49.9777 43.565 50.8369Z" fill="#D71A21"/>
<path d="M22.0836 73.6402H18.7788C17.7433 73.6402 17.8314 72.7809 17.7213 72.0539V67.339C17.7213 67.339 18.4483 67.317 19.2635 67.317C20.1668 67.317 21.3125 67.1848 22.4141 67.8017C21.8413 66.5899 20.6075 65.8408 19.2635 65.8849H17.7433V64.3646C17.7433 64.3646 17.7433 63.0427 17.4128 62.6682H19.594C21.4667 62.6682 22.9209 62.6461 24.4411 63.6376C24.4411 63.6376 24.1547 61.1479 20.5193 61.1479H13.425C13.425 61.1479 14.6588 62.2055 14.6147 64.3426L14.6588 72.9352C14.6588 75.0943 15.518 75.1604 15.518 75.1604H22.5022C24.0886 75.1604 24.6394 74.0368 24.6394 73.4199L24.6614 72.6047C24.6614 72.6047 24.1547 73.6402 22.0836 73.6402Z" fill="#D71A21"/>
<path d="M40.6787 72.9134V66.8986C40.6787 64.5632 38.7839 63.9463 37.3518 63.9463C35.4791 63.9463 34.9062 65.5106 34.6639 66.0614C34.2453 64.6073 32.7691 63.9463 31.5794 63.9463C29.3101 63.9463 28.7372 66.1054 28.7372 66.1054C28.7372 66.1054 28.6932 64.0124 26.8645 64.0124H25.0799C25.0799 64.0124 26.1154 64.431 26.1154 66.2376V72.9134C26.1154 75.1166 26.9967 75.1607 26.9967 75.1607H29.949C29.244 74.6319 28.8254 73.7947 28.8254 72.8913V66.9647C28.8694 66.7003 29.3101 65.819 30.5659 65.819C31.293 65.819 32.0861 66.5681 32.0641 67.4053V72.9134C32.0641 75.1386 32.9454 75.1607 32.9454 75.1607H35.8977C35.1927 74.6099 34.774 73.7947 34.774 72.8913V66.9647C35.0605 66.1054 35.9858 65.6207 36.8671 65.9072C37.5281 66.1275 37.9907 66.7223 38.0128 67.4274C38.0128 67.4274 38.0128 72.4507 38.0128 72.9134C38.0348 75.1607 38.8941 75.1386 38.8941 75.1386C40.4363 75.1386 41.8464 75.1386 41.8464 75.1386C41.1193 74.6099 40.7007 73.7947 40.6787 72.9134Z" fill="#D71A21"/>
<path d="M45.8346 72.9133C45.8346 73.7945 46.2532 74.6318 46.9583 75.1605C46.9583 75.1605 45.5482 75.1605 44.006 75.1605C44.006 75.1605 43.1026 75.1826 43.1026 72.9353V66.2155C43.1026 64.4529 42.0892 63.9902 42.0892 63.9902H43.8738C44.5127 63.9902 45.8126 63.9902 45.8126 66.4799V72.8692L45.8346 72.9133Z" fill="#D71A21"/>
<path d="M54.9117 64.8494C54.9117 64.8494 54.6252 64.0563 53.4135 64.0563C51.5628 64.0563 51.1221 66.2595 51.1221 66.2595C50.9679 64.5189 50.5052 64.0122 49.2053 64.0122H47.4207C47.4207 64.0122 48.4562 64.4308 48.4562 66.2375V72.9132C48.4562 75.1164 49.3375 75.1605 49.3375 75.1605H52.2898C51.5848 74.6317 51.1662 73.7945 51.1662 72.9132V67.4272C51.2323 66.9645 51.4967 66.5459 51.8933 66.3036C52.8847 65.6426 54.1846 65.8409 54.9557 66.7442L54.9117 64.8494Z" fill="#D71A21"/>
<path d="M68.6378 65.2461C69.2547 65.2461 69.8496 65.4003 70.3784 65.6867V64.0123H67.9108V61.4565C67.382 62.2938 66.699 63.0429 65.9279 63.6818C65.0906 64.3648 63.3281 65.224 63.3281 65.224L65.2008 65.2461V73.0014C65.2008 75.1605 66.1041 75.1605 66.1041 75.1605C67.7125 75.1605 69.0344 75.1605 69.0344 75.1605C68.3294 74.6538 67.9108 73.8386 67.8887 72.9794V65.2461C68.6819 65.2461 68.1531 65.2461 68.6378 65.2461Z" fill="#D71A21"/>
<path d="M77.5828 68.6172C75.9304 70.3357 74.6305 70.0713 73.595 71.3491C73.595 71.3491 73.7712 73.0676 75.0711 73.6625C75.5117 73.8608 77.3404 74.5218 78.5081 72.4948V74.3014C78.5081 74.3014 77.759 75.1827 75.3575 75.1827C72.4713 75.1827 70.4884 72.9134 70.4884 69.8289C70.4884 66.7885 72.0968 63.9904 75.1592 63.9684C78.1336 63.9243 79.764 66.3478 77.5828 68.6172ZM75.7761 67.9121C76.2608 67.0088 76.6574 64.7175 74.983 64.8497C73.0441 65.0039 73.4187 70.1374 73.4187 70.1374C74.0576 69.4323 75.027 69.2781 75.7761 67.9121Z" fill="#D71A21"/>
<path d="M44.4683 63.1088C45.2174 63.0868 45.7902 62.4699 45.7902 61.7428C45.7682 60.9937 45.1513 60.4209 44.4242 60.4209C43.6972 60.4429 43.1023 61.0378 43.1023 61.7649C43.1023 62.514 43.7192 63.1088 44.4683 63.1088Z" fill="#D71A21"/>
<path d="M57.9742 73.8829C57.3133 73.8829 56.8286 73.1779 56.8286 72.4728C56.8286 69.6968 59.0979 69.3002 59.7148 68.5731V73.266C59.4284 73.4863 59.164 73.8829 57.9742 73.8829ZM59.7148 67.4936C59.0318 68.6833 53.7 68.9477 54.5152 73.0677C54.8457 74.6981 55.9253 75.1828 57.2913 75.1828C58.6132 75.1828 59.4284 74.4998 59.7589 73.8388C59.9571 75.0726 60.5961 75.1607 60.5961 75.1607C62.1383 75.1607 63.5484 75.1607 63.5484 75.1607C62.8434 74.632 62.4027 73.8168 62.4027 72.9355V66.6563C62.4027 65.1581 60.7503 63.9904 58.9877 63.9904C57.9963 63.9684 57.0489 64.2548 56.2337 64.8056V66.7445C56.2337 66.7445 56.8506 65.2022 58.3708 65.2022C59.869 65.2022 59.9792 65.9513 59.9792 66.3259C60.0012 66.7224 59.9351 67.141 59.7148 67.4936Z" fill="#D71A21"/>
<path d="M84.1041 72.1202C84.1261 72.9134 83.4211 73.9489 81.9229 73.9489C80.3806 73.9489 79.7637 72.3846 79.7637 72.3846V74.3675C80.601 74.8963 81.5704 75.1607 82.5618 75.1607C84.5667 75.1607 86.6157 73.6404 86.5717 71.5033C86.5496 70.7983 86.3073 70.1153 85.8887 69.5645C85.2057 68.6612 83.9719 68.0222 83.0025 67.4274C82.4517 67.0969 82.1652 66.48 82.1652 66.2817C82.1432 65.9071 82.3415 65.1581 83.8176 65.1581C85.2718 65.1581 85.9107 66.7003 85.9107 66.7003V64.8276C85.0955 64.2547 84.1041 63.9463 83.0906 63.9463C81.328 63.9463 79.7197 65.114 79.7637 66.6122C79.7858 67.9341 80.3366 68.7713 81.4161 69.5865C81.9009 69.939 82.4076 70.2475 82.9364 70.5339C83.7736 70.9966 84.082 71.5694 84.1041 72.1202Z" fill="#D71A21"/>
</svg>
