<svg width="100" height="100" viewBox="0 0 100 100" fill="none" xmlns="http://www.w3.org/2000/svg">
<path d="M62.8748 37.7238C62.8142 37.5372 62.6963 37.3745 62.538 37.2587C62.3796 37.1429 62.1888 37.0799 61.9926 37.0787H53.1767L50.4526 28.6943C50.3305 28.3224 49.9785 28.0547 49.5659 28.0547C49.1533 28.0547 48.8023 28.3226 48.6793 28.6953L45.9542 37.0787H37.1402C36.7484 37.0806 36.3847 37.3312 36.2572 37.7238C36.1964 37.9105 36.196 38.1117 36.2561 38.2986C36.3162 38.4856 36.4337 38.6488 36.5919 38.7652L43.7232 43.9467L40.999 52.3301C40.9401 52.5173 40.9413 52.7182 41.0025 52.9047C41.0637 53.0911 41.1817 53.2538 41.34 53.3697C41.6748 53.6131 42.1164 53.6013 42.4347 53.3733L49.5659 48.1918L56.6972 53.3733C57.0157 53.6013 57.4571 53.613 57.7919 53.3697C57.9506 53.2541 58.0689 53.0914 58.1301 52.9049C58.1913 52.7183 58.1923 52.5172 58.1329 52.33L55.4087 43.9467L62.54 38.7652C62.6982 38.6488 62.8157 38.4856 62.8758 38.2986C62.9359 38.1117 62.9355 37.9105 62.8747 37.7238" fill="black"/>
<path d="M62.8744 37.1872C62.8138 37.0006 62.6959 36.8379 62.5376 36.7221C62.3792 36.6063 62.1884 36.5433 61.9922 36.5421H53.1763L50.4521 28.1577C50.33 27.7859 49.978 27.5181 49.5654 27.5181C49.1528 27.5181 48.8018 27.7859 48.6788 28.1586L45.9537 36.542H37.1397C36.7479 36.5439 36.3842 36.7944 36.2567 37.1871C36.1959 37.3738 36.1956 37.575 36.2557 37.7619C36.3157 37.9489 36.4332 38.1121 36.5915 38.2285L43.7227 43.41L40.9985 51.7935C40.9396 51.9807 40.9408 52.1816 41.002 52.368C41.0632 52.5545 41.1812 52.7171 41.3396 52.833C41.6743 53.0764 42.1159 53.0646 42.4342 52.8366L49.5654 47.6551L56.6967 52.8366C57.0152 53.0646 57.4566 53.0763 57.7914 52.833C57.9501 52.7174 58.0684 52.5547 58.1296 52.3682C58.1908 52.1816 58.1918 51.9805 58.1325 51.7933L55.4083 43.41L62.5395 38.2285C62.6977 38.1121 62.8152 37.9489 62.8753 37.7619C62.9354 37.575 62.935 37.3738 62.8742 37.1871" fill="white"/>
<path d="M42.1534 52.0125C42.123 52.0348 42.0862 52.0468 42.0485 52.0468C42.0107 52.0468 41.974 52.0348 41.9435 52.0125C41.8784 51.9656 41.8522 51.8922 41.8757 51.8207L44.7094 43.0962L37.2941 37.7093C37.2638 37.6874 37.2412 37.6563 37.2299 37.6207C37.2185 37.585 37.2188 37.5467 37.2308 37.5112C37.2416 37.4752 37.2637 37.4437 37.2939 37.4214C37.3241 37.3991 37.3606 37.3871 37.3982 37.3873H46.5642L49.3961 28.6718C49.4077 28.6358 49.4304 28.6044 49.4609 28.5821C49.4915 28.5599 49.5283 28.5479 49.5661 28.5479C49.6457 28.5479 49.7118 28.6003 49.7362 28.6718L52.5672 37.3873H61.7342C61.8092 37.3873 61.8798 37.4352 61.9042 37.5112C61.916 37.5469 61.916 37.5853 61.9042 37.621C61.8925 37.6566 61.8697 37.6876 61.8391 37.7093L54.4219 43.0962L57.2557 51.8172C57.2783 51.8895 57.2529 51.9656 57.1887 52.0126C57.1582 52.0349 57.1214 52.0469 57.0837 52.0469C57.046 52.0469 57.0092 52.0349 56.9787 52.0126L49.5661 46.624L42.1534 52.0125Z" fill="#ED1C24"/>
<path d="M28.468 51.085V49.366H28.1306V48.8113H29.4361V49.366H29.0833V51.085H28.468ZM30.79 49.8637C30.9519 49.8637 31.0397 49.7216 31.0397 49.5742C31.0397 49.3751 30.9193 49.2901 30.7511 49.3V49.8609L30.79 49.8637ZM31.0887 51.0851L30.7476 50.1387L30.7412 50.1442C30.7449 50.2555 30.7511 50.3678 30.7511 50.4789V51.0851H30.1359V48.8115H30.7294C31.2633 48.8115 31.6487 48.968 31.6487 49.5678C31.6487 49.8185 31.541 50.041 31.2968 50.1387L31.7546 51.0851H31.0887ZM33.1868 50.3102L33.1208 49.7827C33.1027 49.6407 33.0909 49.496 33.0765 49.3539H33.0692C33.0521 49.496 33.0367 49.6407 33.0122 49.7827L32.9281 50.3102H33.1868ZM33.3044 51.0847L33.2592 50.7924H32.8466L32.7951 51.0847H32.1618L32.7073 48.811H33.4583L33.9405 51.0847H33.3044ZM35.1203 50.5363C35.4008 50.5335 35.4487 50.1834 35.4487 49.969C35.4487 49.722 35.4007 49.3781 35.1203 49.3781V50.5363ZM34.5051 48.8118H35C35.6994 48.8118 36.0758 49.2515 36.0758 49.9391C36.0758 50.9887 35.4162 51.0845 35.0416 51.0845H34.5051V48.8118ZM36.7634 48.8114H37.9061V49.3479H37.3787V49.6646H37.8518V50.201H37.3787V50.5476H37.9061V51.085H36.7634V48.8114ZM62.651 51.085L62.594 49.6554H62.5877C62.5605 49.821 62.5398 49.9874 62.5099 50.153L62.3353 51.085H61.8341L61.6197 49.6554H61.6142C61.6106 49.8246 61.6142 49.9902 61.6052 50.1593L61.5536 51.0849H60.8931L61.1582 48.8112H61.9245L62.1 50.02H62.1055C62.1236 49.8788 62.139 49.7395 62.1652 49.5984L62.3136 48.8112H63.0699L63.2907 51.0849H62.651V51.085ZM64.7167 50.3102L64.6506 49.7827C64.6326 49.6407 64.6208 49.496 64.6054 49.3539H64.5991C64.581 49.496 64.5665 49.6407 64.542 49.7827L64.458 50.3102H64.7167ZM64.8343 51.0847L64.789 50.7924H64.3766L64.325 51.0847H63.6916L64.238 48.811H64.9881L65.4703 51.0847H64.8343ZM66.6588 49.8637C66.8216 49.8637 66.9094 49.7216 66.9094 49.5742C66.9094 49.3751 66.7883 49.2901 66.6199 49.3V49.8609L66.6588 49.8637ZM66.9573 51.0851L66.6163 50.1387L66.6108 50.1442C66.6136 50.2555 66.6199 50.3678 66.6199 50.4789V51.0851H66.0047V48.8115H66.5982C67.1329 48.8115 67.5184 48.968 67.5184 49.5678C67.5184 49.8185 67.4098 50.041 67.1655 50.1387L67.6233 51.0851H66.9573ZM69.8518 48.8114L69.3605 49.9088L69.9088 51.085H69.2492L68.8665 50.041H68.8629V51.085H68.2477V48.8114H68.8629V49.7794H68.8665L69.2031 48.8114H69.8518ZM22.4961 66.2657C22.2492 65.5825 22.4464 63.4953 23.5963 63.1018C24.806 62.6866 25.5496 63.3098 25.9107 64.5295C26.0454 64.9818 26.0156 65.4595 25.8681 65.6379C25.6537 65.8985 25.271 66.0531 24.9263 66.1699L24.0206 66.4694C23.1304 66.7723 22.7052 66.833 22.4961 66.2657ZM28.2096 68.7972C27.6215 69.3863 26.8579 69.9706 26.1061 70.2095C25.3976 70.4375 23.3782 70.6139 22.7838 68.9464C22.6553 68.5846 22.7594 68.4733 23.0869 68.3764C23.5736 68.2317 24.8295 67.8626 26.1541 67.3658C27.3565 66.9172 28.4286 66.3661 28.7651 66.1417C29.3668 65.7473 29.4554 65.1917 29.1913 64.5937C28.348 62.6966 26.4381 60.7106 23.2643 61.3141C20.7418 61.7953 18.935 64.0663 18.935 66.6637C18.935 69.881 20.8739 71.7611 23.3402 72.3447C25.6211 72.8865 28.3019 71.7811 29.4491 69.9227C29.9042 69.207 28.6231 68.3576 28.2096 68.7972ZM52.0404 66.2657C51.8938 65.8567 51.9038 64.9465 52.1815 64.1966C52.3706 63.6926 52.6493 63.2981 53.1405 63.1018C53.6934 62.8793 54.1666 62.9399 54.5366 63.1533C54.96 63.3968 55.2622 63.879 55.4548 64.5294C55.5888 64.9817 55.5598 65.4595 55.4123 65.6378C55.1961 65.8984 54.8622 66.0286 54.4696 66.1698C54.1698 66.2765 53.8682 66.3779 53.5648 66.4738C52.6693 66.7544 52.2494 66.833 52.0404 66.2657ZM57.7521 68.7972C57.1658 69.3863 56.4013 69.9706 55.6513 70.2095C54.9419 70.4375 52.9216 70.6139 52.3282 68.9464C52.1997 68.5846 52.3046 68.4733 52.6313 68.3764C53.118 68.2317 54.3739 67.8626 55.6983 67.3658C56.9008 66.9172 57.9739 66.3661 58.3086 66.1417C58.9112 65.7473 58.9998 65.1917 58.7356 64.5937C57.8915 62.6966 55.9833 60.7106 52.8086 61.3141C50.2861 61.7953 48.4794 64.0663 48.4794 66.6637C48.4794 69.881 50.4174 71.7611 52.8846 72.3447C55.1646 72.8865 57.8463 71.7811 58.9935 69.9227C59.4485 69.207 58.1673 68.3576 57.7521 68.7972ZM74.5629 66.2657C74.4145 65.8567 74.4262 64.9465 74.704 64.1966C74.8931 63.6926 75.1718 63.2981 75.663 63.1018C76.2158 62.8793 76.6889 62.9399 77.059 63.1533C77.4824 63.3968 77.7837 63.879 77.9773 64.5294C78.1103 64.9817 78.0823 65.4595 77.9339 65.6378C77.7196 65.8984 77.3856 66.0286 76.9921 66.1698C76.692 66.2764 76.3901 66.3778 76.0864 66.4738C75.1899 66.7544 74.7719 66.833 74.5629 66.2657ZM80.2745 68.7972C79.6891 69.3863 78.9238 69.9706 78.1719 70.2095C77.4645 70.4375 75.4441 70.6139 74.8497 68.9464C74.7221 68.5846 74.827 68.4733 75.1536 68.3764C75.6404 68.2317 76.8952 67.8626 78.2207 67.3658C79.4222 66.9172 80.4962 66.3661 80.831 66.1417C81.4325 65.7473 81.5213 65.1917 81.2579 64.5937C80.4138 62.6966 78.5048 60.7106 75.3309 61.3141C72.8076 61.7953 71.0017 64.0663 71.0017 66.6637C71.0017 69.881 72.9398 71.7611 75.407 72.3447C77.687 72.8865 80.3677 71.7811 81.515 69.9227C81.9701 69.207 80.6898 68.3576 80.2745 68.7972ZM10.7006 65.4202C10.6154 65.4203 10.5337 65.4542 10.4735 65.5144C10.4132 65.5747 10.3794 65.6564 10.3794 65.7416L10.3803 69.385C10.3839 69.9503 10.554 70.3286 10.8625 70.4652C11.029 70.5393 11.3917 70.7067 11.5971 70.799C11.7383 70.8633 11.7436 71.0071 11.7228 71.1918C11.7048 71.3564 11.6568 71.826 11.6387 71.9988C11.6198 72.1869 11.4732 72.2665 11.1882 72.2665H5.91439C5.64747 72.2665 5.48189 72.2196 5.45928 71.9988C5.44114 71.8259 5.39226 71.3302 5.37421 71.1656C5.35062 70.9565 5.39316 70.8488 5.52255 70.7891C5.69903 70.7067 6.08346 70.5357 6.25002 70.458C6.57752 70.306 6.71684 69.8627 6.71684 69.3967L6.71594 60.3881C6.71505 59.8851 6.57386 59.4789 6.20749 59.3088C6.04101 59.2318 5.69358 59.0744 5.52443 58.994C5.38422 58.9269 5.34616 58.7976 5.37332 58.614C5.39682 58.4492 5.43578 58.1679 5.45928 57.9951C5.48913 57.7761 5.64747 57.7283 5.91439 57.7283H10.943C11.2108 57.7283 11.3637 57.7761 11.3944 57.9951C11.4179 58.1679 11.4569 58.4492 11.4804 58.614C11.5076 58.7976 11.4714 58.9244 11.3347 58.9976C11.1556 59.0943 10.9041 59.2355 10.743 59.3233C10.5259 59.4418 10.3838 59.687 10.3802 60.2679L10.3793 62.8935C10.3792 62.9357 10.3875 62.9776 10.4036 63.0166C10.4197 63.0557 10.4433 63.0912 10.4731 63.1211C10.503 63.151 10.5384 63.1747 10.5774 63.191C10.6164 63.2072 10.6582 63.2155 10.7005 63.2156H13.5161C13.5583 63.2156 13.6002 63.2073 13.6392 63.1911C13.6783 63.1749 13.7138 63.1512 13.7436 63.1213C13.7734 63.0914 13.7971 63.0558 13.8131 63.0167C13.8292 62.9776 13.8374 62.9358 13.8372 62.8935L13.8363 60.2679C13.8327 59.687 13.6907 59.4418 13.4744 59.3233C13.3125 59.2356 13.0619 59.0944 12.8827 58.9976C12.7461 58.9244 12.709 58.7976 12.7361 58.614C12.7597 58.4492 12.7985 58.1679 12.822 57.9951C12.8528 57.7761 13.0066 57.7283 13.2735 57.7283H18.3021C18.569 57.7283 18.7273 57.7761 18.7581 57.9951C18.7816 58.1679 18.8196 58.4492 18.844 58.614C18.8702 58.7976 18.8331 58.9269 18.6929 58.994C18.5228 59.0744 18.1754 59.2318 18.0089 59.3088C17.6434 59.4789 17.5022 59.8851 17.5013 60.3881L17.5004 69.3967C17.5004 69.8627 17.6389 70.306 17.9664 70.458C18.1328 70.5357 18.5182 70.7067 18.6946 70.7891C18.824 70.8488 18.8657 70.9565 18.8431 71.1656C18.8249 71.3302 18.7752 71.826 18.758 71.9988C18.7354 72.2196 18.5689 72.2665 18.302 72.2665H13.0285C12.7435 72.2665 12.5968 72.1869 12.5779 71.9988C12.5598 71.8259 12.5119 71.3564 12.4937 71.1918C12.4738 71.0071 12.4784 70.8633 12.6203 70.799C12.8249 70.7067 13.1877 70.5393 13.3551 70.4652C13.6626 70.3286 13.8328 69.9503 13.8363 69.385L13.8372 65.7416C13.8373 65.6994 13.8291 65.6576 13.8129 65.6186C13.7968 65.5795 13.7732 65.5441 13.7433 65.5142C13.7135 65.4844 13.6781 65.4607 13.6391 65.4446C13.6001 65.4285 13.5583 65.4202 13.5161 65.4202H10.7006Z" fill="#048743"/>
<path d="M67.224 65.129C67.224 65.129 69.134 68.5842 69.655 69.5333C70.0514 70.2544 70.4965 70.4543 71.1 70.7981C71.2556 70.8858 71.3027 70.9438 71.2746 71.2359C71.2538 71.4612 71.2185 71.8059 71.2013 71.9852C71.1769 72.2348 70.9995 72.2657 70.7517 72.2657H67.9361C67.5797 72.2657 67.4403 72.1915 67.3136 71.9617C67.1778 71.7156 64.8238 67.4324 64.8238 67.4324L63.9361 68.2801V69.4619C63.9407 70.0037 64.1904 70.3547 64.4337 70.4906C64.5912 70.5783 64.8301 70.7114 65.0219 70.8171C65.1693 70.8986 65.1801 71.0017 65.1603 71.2333C65.1458 71.397 65.1006 71.825 65.0834 71.9986C65.0635 72.1904 64.9332 72.2656 64.6319 72.2656H59.9453C59.6776 72.2656 59.5102 72.2193 59.4875 71.9986C59.4694 71.825 59.4251 71.3654 59.4071 71.2015C59.3844 70.9952 59.4206 70.8904 59.5563 70.8144C59.7533 70.703 59.9508 70.5926 60.1489 70.4832C60.3797 70.3555 60.5669 70.01 60.5669 69.4445V60.2941C60.5651 59.6607 60.3254 59.373 60.139 59.2688C60.0078 59.1947 59.6278 58.9839 59.541 58.9341C59.4098 58.8599 59.3845 58.717 59.4098 58.5414C59.4333 58.3786 59.4623 58.1669 59.4867 57.994C59.5183 57.7642 59.6685 57.7272 59.9418 57.7272H63.3264C63.6142 57.7272 63.9353 57.9398 63.9353 58.3416L63.9362 65.3334C63.9362 65.3334 65.8353 63.6225 66.1158 63.371C66.3158 63.191 66.2589 62.9992 66.1466 62.9467C65.9521 62.8563 65.7349 62.7603 65.6128 62.7052C65.4779 62.6436 65.4092 62.5713 65.4318 62.3488C65.4544 62.138 65.4916 61.7976 65.507 61.6358C65.5269 61.4258 65.5983 61.3398 65.944 61.3398H70.0805C70.3402 61.3398 70.428 61.4295 70.4452 61.5995C70.4632 61.7932 70.5103 62.1948 70.5284 62.3886C70.5428 62.5431 70.4352 62.6327 70.2072 62.716C69.6082 62.935 69.3486 63.0897 68.5397 63.8714C68.0338 64.3599 67.224 65.129 67.224 65.129ZM34.4883 69.4787C34.4928 70.0205 34.6728 70.3545 34.9171 70.4902C35.1127 70.5998 35.3087 70.7087 35.5052 70.8167C35.6517 70.8982 35.6635 71.0022 35.6427 71.233C35.6291 71.3976 35.5839 71.8255 35.5667 71.9982C35.5467 72.1909 35.4156 72.2661 35.1152 72.2661H30.4277C30.1608 72.2661 29.9952 72.219 29.9726 71.9982C29.946 71.7325 29.9186 71.4668 29.8903 71.2012C29.8677 70.9957 29.9048 70.8908 30.0395 70.8139C30.2364 70.7031 30.4336 70.593 30.6313 70.4837C30.862 70.3552 31.0502 70.0105 31.0502 69.4442L31.0493 64.3159C31.0484 63.6274 30.8457 63.3054 30.6231 63.1796C30.491 63.1054 30.3056 62.9988 30.2178 62.949C30.0794 62.8703 30.0568 62.7371 30.0821 62.5626C30.1056 62.3998 30.1418 62.1248 30.1662 61.9519C30.196 61.7329 30.3543 61.6851 30.6213 61.6851H34.1733C34.2146 61.6851 34.2555 61.6932 34.2937 61.709C34.3318 61.7248 34.3665 61.748 34.3957 61.7773C34.4248 61.8065 34.4479 61.8413 34.4636 61.8795C34.4793 61.9177 34.4874 61.9586 34.4872 61.9999L34.4883 69.4787ZM32.4941 57.4331C31.4546 57.4331 30.6131 58.2456 30.6131 59.2481C30.6131 60.2506 31.4546 61.0631 32.4941 61.0631C33.5319 61.0631 34.3743 60.2506 34.3743 59.2481C34.3743 58.2456 33.5319 57.4331 32.4941 57.4331ZM46.7098 64.3204C46.7098 62.4376 45.8566 61.7193 44.8687 61.4035C43.7277 61.0406 42.3508 61.6377 41.6442 61.9644C41.4574 62.0507 41.2725 62.1408 41.0896 62.2349C40.9069 61.806 40.81 61.6848 40.5395 61.6848H37.1983C36.9314 61.6848 36.773 61.7327 36.7432 61.9516C36.7188 62.1244 36.6826 62.3995 36.659 62.5623C36.6337 62.737 36.6554 62.8699 36.7947 62.9487C36.8816 62.9984 37.068 63.1061 37.1992 63.1803C37.4226 63.305 37.6244 63.6272 37.6262 64.3158L37.6271 69.4438C37.6271 70.0104 37.4389 70.355 37.2082 70.4835C37.0101 70.5924 36.8129 70.7027 36.6165 70.8146C36.4807 70.8907 36.4436 70.9955 36.4671 71.2019C36.4853 71.3656 36.5314 71.8253 36.5494 71.9981C36.5712 72.2189 36.7376 72.2658 37.0045 72.2658H41.6912C41.9915 72.2658 42.1228 72.1907 42.1426 71.9981C42.1598 71.8252 42.2051 71.3973 42.2195 71.2326C42.2394 71.0019 42.2286 70.8988 42.081 70.8164C41.8842 70.7089 41.6882 70.6001 41.493 70.4899C41.1899 70.3179 41.0631 69.871 41.0631 69.4648L41.065 65.3889C41.065 64.3239 41.5844 63.726 42.2973 63.6381C42.7713 63.5785 43.3793 63.8707 43.3793 64.7094V70.2002C43.3793 71.7637 44.7084 72.3635 45.7516 72.3635C46.8563 72.3635 47.799 71.856 48.2206 70.9729C48.3546 70.6933 48.1908 70.4807 48.0543 70.3296C47.8977 70.1568 47.7566 70.0031 47.5014 70.1335C47.2499 70.2628 46.9857 70.5126 46.8336 70.4285C46.7205 70.3669 46.7097 70.2673 46.7097 70.023V64.3204H46.7098ZM92.2164 64.3204C92.2164 62.4376 91.3632 61.7193 90.3752 61.4035C89.2344 61.0406 87.8573 61.6377 87.1507 61.9644C86.8639 62.0965 86.5961 62.2349 86.5961 62.2349C86.4143 61.806 86.3165 61.6848 86.046 61.6848H82.7047C82.4379 61.6848 82.2795 61.7327 82.2487 61.9516C82.2252 62.1244 82.189 62.3995 82.1654 62.5623C82.1392 62.737 82.1618 62.8699 82.3003 62.9487C82.388 62.9984 82.5735 63.1061 82.7065 63.1803C82.9291 63.305 83.1318 63.6272 83.1326 64.3158L83.1336 69.4438C83.1336 70.0104 82.9454 70.355 82.7138 70.4835C82.5162 70.5925 82.3192 70.7029 82.1231 70.8146C81.9873 70.8907 81.9502 70.9955 81.9737 71.2019C81.9909 71.3656 82.038 71.8253 82.0561 71.9981C82.0787 72.2189 82.2442 72.2658 82.5112 72.2658H87.1978C87.4991 72.2658 87.6294 72.1907 87.6493 71.9981C87.6665 71.8252 87.7117 71.3973 87.7271 71.2326C87.7461 71.0019 87.7353 70.8988 87.5877 70.8164C87.3909 70.7089 87.1949 70.6001 86.9997 70.4899C86.6957 70.3179 86.5698 69.871 86.5698 69.4648L86.5717 65.3889C86.5717 64.3239 87.0911 63.726 87.804 63.6381C88.2781 63.5785 88.886 63.8707 88.886 64.7094V70.2002C88.886 71.7637 90.2151 72.3635 91.2583 72.3635C92.363 72.3635 93.3057 71.856 93.7283 70.9729C93.8604 70.6933 93.6975 70.4807 93.56 70.3296C93.4044 70.1568 93.2633 70.0031 93.009 70.1335C92.7556 70.2628 92.4915 70.5126 92.3404 70.4285C92.2282 70.3669 92.2164 70.2673 92.2164 70.023V64.3204H92.2164ZM92.9269 57.9675C92.9269 57.7875 92.7388 57.7242 92.5823 57.7242H92.2213V58.2371H92.6321C92.8075 58.2372 92.9269 58.1215 92.9269 57.9675ZM93.4236 59.0061C93.4598 59.2487 93.5684 59.4233 93.6281 59.5509C93.3793 59.5509 93.2861 59.55 93.0725 59.55C92.9666 59.3121 92.9432 59.1519 92.8898 58.9873C92.8173 58.7474 92.6682 58.6767 92.4094 58.6767H92.2176V59.5499H91.7064V57.3161H92.7749C93.0236 57.3161 93.4534 57.4635 93.4534 57.9385C93.4534 58.2371 93.2879 58.4433 93.1205 58.5067C93.3051 58.6281 93.3865 58.7666 93.4236 59.0061ZM94.2126 58.5113C94.2126 57.5958 93.4752 56.8575 92.5641 56.8575C91.6466 56.8575 90.903 57.5958 90.903 58.5113C90.903 59.4242 91.6466 60.1661 92.5641 60.1661C93.4753 60.1661 94.2126 59.4242 94.2126 58.5113ZM94.6351 58.5113C94.6351 59.6558 93.705 60.5832 92.5641 60.5832C91.4169 60.5832 90.4849 59.6558 90.4849 58.5113C90.4849 57.3631 91.4169 56.4358 92.5641 56.4385C93.705 56.4359 94.6351 57.3632 94.6351 58.5113Z" fill="#048743"/>
</svg>
