<svg width="100" height="100" viewBox="0 0 100 100" fill="none" xmlns="http://www.w3.org/2000/svg">
<path d="M25.8156 54.0694L18.5378 54.9578L14.1227 49.1248L16.9853 42.3945L24.2631 41.4971L28.6782 47.339L25.8156 54.0694Z" fill="#FEFEFE"/>
<path d="M27.8702 54.7516L20.5924 55.64L16.1863 49.798L19.0489 43.0676L26.3267 42.1792L30.7329 48.0212L27.8702 54.7516Z" fill="#757475"/>
<path fill-rule="evenodd" clip-rule="evenodd" d="M26.6768 55.1373C25.1333 60.0729 22.5847 63.2676 20.099 62.9625C17.1107 62.5946 15.0826 56.4654 16.1505 49.2505C17.2184 42.0265 20.3861 36.8037 23.5718 37.0191C25.6538 37.1537 27.278 39.9715 27.7357 43.7675C27.1614 41.6227 26.2909 39.3882 24.8102 39.1998C22.7642 38.9305 20.09 43.0585 18.9862 48.7479C17.9632 54.0335 18.7708 59.3012 21.1669 59.6063C22.7104 59.8037 25.3487 58.1884 26.6858 55.1283L26.6768 55.1373Z" fill="#BEBEBF"/>
<path fill-rule="evenodd" clip-rule="evenodd" d="M28.0499 54.6704C30.8318 53.4141 33.6586 51.9603 33.3894 50.2194C32.9855 47.5721 26.8474 46.585 21.4721 47.1144C19.103 47.3478 10.6138 49.0618 10.7484 52.6334C10.7843 53.6743 13.5751 55.0473 15.8993 55.7204C12.2739 55.3165 8.61259 53.5128 8.35235 51.3411C7.96647 48.0567 13.7187 44.6825 21.2837 43.8839C28.7948 43.0852 35.2918 45.0415 35.7405 48.3169C36.0726 50.7847 32.8689 53.1628 28.041 54.6794L28.0499 54.6704Z" fill="#BEBEBF"/>
<path d="M25.8156 54.0694L18.5378 54.9578L14.1227 49.1248L16.9853 42.3945L24.2631 41.4971L28.6782 47.339L25.8156 54.0694Z" fill="#E62129"/>
<path fill-rule="evenodd" clip-rule="evenodd" d="M15.9172 51.4851C15.9621 50.7582 16.0429 50.0134 16.1505 49.2596C16.5454 46.5943 17.2274 44.2073 18.0889 42.26L21.481 41.8472C20.44 43.5522 19.5247 45.9662 18.9773 48.757C18.5555 50.9466 18.4478 53.1273 18.6273 54.958L18.5376 54.9669L15.9082 51.4941L15.9172 51.4851Z" fill="#FEFEFE"/>
<path fill-rule="evenodd" clip-rule="evenodd" d="M28.669 47.3481C26.5153 46.9442 23.9129 46.8725 21.463 47.1147C20.108 47.2494 16.7607 47.8596 14.1673 49.0262L15.8992 44.9521C17.5235 44.4495 19.3452 44.0816 21.2835 43.8752C22.9078 43.7047 24.4782 43.6598 25.9499 43.7316L28.678 47.3391V47.3481H28.669Z" fill="#FEFEFE"/>
<path d="M37.0236 45.6431L36.7633 47.1955H38.8812L37.6607 54.4195H39.1235L40.3529 47.1955H42.4797L42.7399 45.6431H37.0236Z" fill="#332C2B"/>
<path d="M43.1081 45.6431L41.6184 54.4195H46.9489L47.2181 52.858H43.3235L43.7093 50.5966H47.1284L47.3886 49.0352H43.9696L44.2837 47.1955H48.0078L48.277 45.6431H43.1081Z" fill="#332C2B"/>
<path d="M49.1296 45.6431L47.64 54.4195H52.6025L52.8627 52.8311H49.3809L50.6013 45.6431H49.1296Z" fill="#332C2B"/>
<path d="M54.7111 45.6431L53.2214 54.4195H54.6841L55.1957 51.4491L56.0213 50.5697L57.5468 54.4195H59.4313L57.2776 49.2326L60.7505 45.6431H58.857L55.5726 49.2057L56.1828 45.6431H54.7111Z" fill="#332C2B"/>
<path fill-rule="evenodd" clip-rule="evenodd" d="M64.259 45.4097C62.7065 45.4097 60.6964 46.5045 60.0951 50.0312C59.5118 53.4772 61.0733 54.6527 62.6886 54.6527C64.25 54.6527 66.2512 53.5669 66.8524 50.0222C67.4447 46.5135 65.7935 45.4097 64.259 45.4097ZM63.9808 46.9621C65.1923 46.9621 65.6948 48.1646 65.3807 50.0222C65.0397 52.0413 64.0885 53.1003 62.9488 53.1003C61.7463 53.1003 61.2438 51.9067 61.5668 50.0312C61.9078 47.9941 62.895 46.9621 63.9808 46.9621Z" fill="#332C2B"/>
<path d="M68.1809 45.6431L66.7002 54.4195H68.0643L69.3116 47.0968H69.3296L69.3655 54.4195H70.8013L73.3588 47.0789L73.3768 47.0699L72.1384 54.4195H73.5024L74.9921 45.6431H72.8743L70.4423 52.5619H70.4244L70.3257 45.6431H68.1809Z" fill="#332C2B"/>
<path d="M78.3753 45.4097C76.0959 45.4097 75.387 47.1326 75.2165 48.1198C74.8934 50.0312 75.9164 50.4171 77.0112 50.6863L77.7381 50.9106C78.4471 51.126 78.9316 51.3145 78.815 52.0054C78.6535 52.9746 77.7381 53.1361 77.1638 53.1361C76.3562 53.1361 75.7729 52.7682 75.9075 51.7183H74.4986C74.1845 53.5848 75.1267 54.6527 76.9753 54.6527C78.3753 54.6527 79.9098 53.881 80.2598 51.7811C80.5469 50.0671 79.5598 49.6722 78.7701 49.412L77.1907 48.8915C76.9125 48.8108 76.4818 48.6761 76.6074 47.9672C76.742 47.1865 77.451 46.9262 78.0073 46.9262C79.2906 46.9262 79.2457 47.8506 79.2188 48.2454H80.6277C80.7982 47.1685 80.52 45.4097 78.3753 45.4097Z" fill="#332C2B"/>
<path d="M81.9109 45.6431L80.4212 54.4195H85.7517L86.0119 52.858H82.1173L82.5031 50.5966H85.9311L86.1914 49.0352H82.7634L83.0864 47.1955H86.8106L87.0708 45.6431H81.9109Z" fill="#332C2B"/>
<path d="M87.9232 45.6431L86.4335 54.4195H91.3961L91.6653 52.8311H88.1745L89.3949 45.6431H87.9232Z" fill="#332C2B"/>
</svg>
