<svg width="100" height="100" viewBox="0 0 100 100" fill="none" xmlns="http://www.w3.org/2000/svg">
<g clip-path="url(#clip0)">
<path d="M40.0198 45.2983H43.3388L43.8729 42.6128H40.5531L40.0198 45.2983ZM39.676 47.026H42.9958L40.8868 57.6297C40.7333 57.683 40.2576 57.8719 39.6017 57.8719C38.7159 57.8719 37.9036 57.5274 37.9036 56.305C37.9036 56.075 37.9303 55.8127 37.9894 55.5157C38.6489 52.2068 39.676 47.026 39.676 47.026ZM72.6396 46.7838C70.4305 46.7838 69.5519 48.0761 69.1397 48.8625H69.1007L69.2283 47.0281H65.9474C65.9258 47.431 65.7838 48.7032 65.5734 49.8002C65.5734 49.8002 64.8159 53.649 64.6724 54.3856C64.5636 54.9485 64.3632 55.781 64.3632 56.2639C64.3632 57.2924 64.8865 57.8719 66.0519 57.8719C66.7057 57.8719 67.1763 57.6939 67.3479 57.6297L68.4449 52.1073C68.7497 50.5822 69.8532 49.5847 71.1671 49.5847C72.2259 49.5847 72.7326 50.3559 72.7326 50.9865C72.7326 51.5357 72.595 52.1441 72.4883 52.6825L72.0162 55.0472C71.96 55.3312 71.8396 55.8768 71.8396 56.3042C71.8396 57.3493 72.4299 57.8719 73.5514 57.8719C74.1633 57.8719 74.5511 57.7191 74.8264 57.6297L75.811 52.6789C76.0243 51.5602 76.1029 50.9707 76.1029 50.2586C76.1029 48.2087 74.9028 46.7838 72.6396 46.7838ZM57.8937 49.3475C56.0378 49.3475 55.01 51.2417 55.01 52.9304C55.01 54.3553 55.6544 55.3089 57.1182 55.3089C58.7738 55.3089 60.0697 53.902 60.0697 51.5011C60.0697 50.4027 59.4837 49.3475 57.8937 49.3475ZM56.915 57.8726C53.3609 57.8726 51.6599 55.7435 51.6599 53.0299C51.6599 49.3064 54.2201 46.7838 58.1756 46.7838C61.6078 46.7838 63.4306 48.8589 63.4306 51.5242C63.4306 55.5186 60.6968 57.8726 56.915 57.8726ZM44.4834 55.319C44.4077 55.701 44.3601 55.9684 44.3601 56.2963C44.3601 57.5122 45.1739 57.8719 46.0359 57.8719C46.7249 57.8719 47.1516 57.6838 47.308 57.6297L48.9045 49.5919L51.4855 49.5911L51.9951 47.026H49.4141L49.5395 46.3939C49.773 45.209 50.3309 44.6879 51.2974 44.6879C51.9432 44.6879 52.4643 44.8025 52.6459 44.85L53.1317 42.4096C52.9249 42.3577 51.9706 42.1241 50.5593 42.1241C48.3099 42.1241 46.8359 43.4885 46.3999 45.6861L46.1339 47.026H44.4531L43.9428 49.5911H45.6243C45.6243 49.5911 44.9613 52.9145 44.4834 55.319ZM36.842 46.7838C35.1756 46.7838 34.2595 47.9392 33.9006 48.861H33.8624L33.9907 47.026H30.7083C30.6795 47.6617 30.5462 48.7371 30.2117 50.4287C29.873 52.1426 29.5429 53.8515 29.202 55.515C29.1436 55.7997 29.1176 56.0779 29.1176 56.3136C29.1176 57.185 29.5487 57.8712 30.8222 57.8712C31.4536 57.8712 31.8918 57.7076 32.1023 57.6297L33.0789 52.7134C33.4306 50.833 34.0692 49.5897 35.923 49.5897C36.7663 49.5897 37.5678 49.7692 37.735 49.8182L38.2972 46.9899C38.1754 46.9481 37.6896 46.7838 36.842 46.7838ZM84.9926 51.3238C85.1699 50.3515 84.6042 49.3475 83.3241 49.3475C81.7615 49.3475 81.0746 50.4135 80.7683 51.3238H84.9926ZM86.4738 55.2692C86.4738 56.7446 85.0438 57.8755 82.5125 57.8755C79.0125 57.8755 77.3015 55.6981 77.3015 53.0327C77.3015 50.3869 79.0601 46.786 83.3522 46.786C86.1819 46.786 88.298 48.19 88.298 51.4053C88.298 52.1952 88.1214 53.0544 88.0458 53.3989H80.524C80.511 54.1701 81.1618 55.5071 83.776 55.5071C84.9422 55.5071 86.2612 55.0955 86.4738 54.991V55.2692ZM25.0101 51.3238C25.1874 50.3515 24.6209 49.3475 23.3415 49.3475C21.7782 49.3475 21.0921 50.4135 20.7857 51.3238H25.0101ZM26.4912 55.2692C26.4912 56.7446 25.0612 57.8755 22.53 57.8755C19.03 57.8755 17.3189 55.6981 17.3189 53.0327C17.3189 50.3869 19.0768 46.786 23.3689 46.786C26.1993 46.786 28.3147 48.19 28.3147 51.4053C28.3147 52.1952 28.1389 53.0544 28.0632 53.3989H20.5407C20.5284 54.1701 21.1793 55.5071 23.7934 55.5071C24.9589 55.5071 26.2786 55.0955 26.4912 54.991V55.2692ZM6.54364 43.4179H9.88289V53.9611C9.88289 55.546 10.6728 56.3554 11.9414 56.3554C12.0711 56.3554 12.1468 56.3388 12.172 56.3331C11.6163 57.1735 10.8955 57.8625 9.2407 57.8625C7.48927 57.8625 6.54364 56.648 6.54364 54.8267V43.4179Z" fill="#231F20"/>
<path d="M10.8129 52.8715V53.9786C10.8129 55.0475 11.391 55.4302 12.0223 55.4302C12.6674 55.4302 13.0127 54.9927 13.3291 54.4968C13.8603 53.6643 20.3463 43.4174 20.3463 43.4174H16.8752L10.8129 52.8715Z" fill="#00ADEF"/>
<path d="M91.2982 48.2859H91.6658C92.0067 48.2859 92.1753 48.1216 92.1753 47.922C92.1753 47.8009 92.1141 47.6236 91.7976 47.6236H91.4301L91.2982 48.2859ZM91.2874 47.4657H91.8301C92.1566 47.4657 92.3541 47.6409 92.3541 47.8967C92.3541 48.3227 91.9569 48.4121 91.771 48.433L92.135 49.3274H91.9375L91.5901 48.4438H91.2665L91.0913 49.3274H90.9176L91.2874 47.4657ZM91.4337 49.8752C92.3288 49.8752 92.9487 49.2301 93.0359 48.4301C93.1238 47.6308 92.5487 46.985 91.7486 46.985C90.8614 46.985 90.2336 47.6308 90.1464 48.4301C90.0592 49.2301 90.6344 49.8752 91.4337 49.8752ZM91.7695 46.7925C92.6726 46.7925 93.3278 47.5277 93.2291 48.4308C93.1303 49.3332 92.3995 50.0684 91.4128 50.0684C90.5104 50.0684 89.8552 49.3332 89.9532 48.4308C90.052 47.5277 90.8059 46.7925 91.7695 46.7925Z" fill="#231F20"/>
</g>
<defs>
<clipPath id="clip0">
<rect width="86.7823" height="15.8367" fill="white" transform="translate(6.49997 42.0801)"/>
</clipPath>
</defs>
</svg>
