<svg width="100" height="100" viewBox="0 0 100 100" fill="none" xmlns="http://www.w3.org/2000/svg">
<path d="M52.4691 32.3677L40.4433 50.0331C38.8617 52.3556 36.2927 54.5954 33.1908 54.8334V55.3763H46.5659C50.1167 55.3763 52.7071 53.0295 54.4596 50.4448L66.8089 32.3677H52.4705H52.4691Z" fill="#FF0000"/>
<path d="M19.7666 67.4904V59.7236H21.9986V67.4904H19.7661H19.7666ZM71.2427 67.4904L65.8796 62.8784V67.4904H63.9949V59.7236H65.596L70.8876 64.2631V59.7236H72.7724V67.4904H71.2427ZM82.9061 62.2292C81.8976 61.7249 80.7614 61.3168 79.2554 61.3168C77.4568 61.3168 76.1158 62.2612 76.1158 63.5744C76.1158 64.9197 77.481 65.8731 79.2391 65.8731C80.691 65.8731 81.8414 65.4964 82.977 64.8314V66.7534C81.9753 67.2577 80.6432 67.6338 79.1446 67.6338C76.0848 67.6338 73.6785 66.049 73.6785 63.5744C73.6785 61.1403 76.1315 59.5786 79.1361 59.5786C80.556 59.5786 81.8414 59.8507 82.9061 60.2919V62.2292ZM34.4199 67.4904V59.7236H41.8805V61.3887H36.6518V63.3186H41.7628V64.9843H36.6518V67.4909H34.4199V67.4904ZM84.2555 67.4904V59.7236H91.9998V61.3887H86.4869V62.7345H91.9131V64.3997H86.4869V65.8253H91.9762V67.4904H84.2555ZM49.6331 64.5756L52.7166 67.4909H50.3349C49.8065 67.4909 49.4598 67.3229 49.1835 67.0497L47.0855 64.9838C47.0611 64.9618 47.0325 64.9449 47.0015 64.934C46.9705 64.9231 46.9377 64.9184 46.9048 64.9202H45.4771V67.4904H43.2452V59.7236H48.0799C50.5876 59.7236 51.6445 60.8687 51.6445 62.1336C51.6445 63.607 50.3507 64.3109 49.6331 64.5761V64.5756ZM47.8514 63.2945C48.7339 63.2945 49.1599 62.8385 49.1599 62.3258C49.1599 61.8132 48.7817 61.3887 47.8514 61.3887H45.4771V63.2945H47.8514ZM30.4761 64.5761L33.5595 67.4904H31.1784C30.65 67.4904 30.3028 67.3223 30.027 67.0497L27.929 64.9838C27.9045 64.9618 27.8758 64.9448 27.8447 64.9339C27.8136 64.923 27.7807 64.9183 27.7478 64.9202H26.3206V67.4904H24.0881V59.7236H28.9228C31.4305 59.7236 32.4879 60.8687 32.4879 62.1336C32.4879 63.607 31.1942 64.3109 30.4761 64.5761ZM28.6943 63.2945C29.5779 63.2945 30.0039 62.8385 30.0039 62.3258C30.0039 61.8132 29.6251 61.3887 28.6943 61.3887H26.3206V63.2945H28.6943ZM16.2725 67.4904L15.2949 65.7848H11.0207L10.1293 67.4904H7.99979L12.2588 59.7315H14.1992L19.026 67.4904H16.2725ZM11.8722 64.167H14.3646L13.0709 61.7969L11.8722 64.167ZM60.84 67.4904L59.8856 65.7848H55.7227L54.8629 67.4904H52.788L56.9361 59.7315H58.8209L63.5137 67.4904H60.84ZM56.5579 64.167H58.9869L57.7251 61.7969L56.5579 64.167Z" fill="#051039"/>
</svg>
