<svg width="100" height="100" viewBox="0 0 100 100" fill="none" xmlns="http://www.w3.org/2000/svg">
<path d="M33.3722 66.6163L33.2162 66.7675C30.7664 69.2635 27.9315 70.5822 25.0114 70.5822C18.9126 70.5822 14.4884 66.0069 14.4884 59.6961C14.4884 53.395 18.9126 48.8124 25.0114 48.8124C27.9315 48.8124 30.7664 50.1384 33.2162 52.6442L33.3722 52.7929L37.2942 48.0494L37.1894 47.9227C33.9279 44.0689 30.0132 42.1944 25.2015 42.1944C20.3776 42.1944 15.9607 43.8203 12.7821 46.7478C9.32078 49.9215 7.49992 54.3968 7.49992 59.6961C7.49992 64.9954 9.32078 69.4805 12.7821 72.6542C15.9607 75.5987 20.3776 77.2124 25.2015 77.2124C30.0132 77.2124 33.9279 75.3355 37.1894 71.4793L37.2942 71.3623L33.3722 66.6163Z" fill="#004685"/>
<path d="M41.2555 76.5654H48.183V42.7419H41.2555V76.5654Z" fill="#004685"/>
<path d="M75.324 69.2127C73.4739 70.3389 71.7554 70.9068 70.21 70.9068C67.9699 70.9068 66.9559 69.7222 66.9559 67.0896V49.1418H74.0175V42.7749H66.9559V32.2496L60.1673 35.8864V42.7749H54.3074V49.1418H60.1673V68.2328C60.1673 73.4321 63.2483 76.991 67.8505 77.0836C70.973 77.1445 72.8548 76.2134 73.9955 75.5309L74.0687 75.4845L75.7335 68.9616L75.324 69.2127Z" fill="#004685"/>
<path d="M81.0583 76.5654H87.9957V42.7419H81.0583V76.5654Z" fill="#004685"/>
<path d="M92.0366 36.8132C85.7062 27.8479 75.1955 22.4999 64.5019 22.4999C53.8107 22.4999 43.2976 27.8479 36.9794 36.8132L36.6528 37.2739H44.6236L44.7113 37.1789C50.1349 31.5773 57.2185 28.6182 64.5019 28.6182C71.7853 28.6182 78.864 31.5773 84.2997 37.1789L84.3875 37.2739H92.3534L92.0366 36.8132Z" fill="#EE1C25"/>
</svg>
