<svg width="100" height="100" viewBox="0 0 100 100" fill="none" xmlns="http://www.w3.org/2000/svg">
<path d="M7.57646 58.1906H25.1071V40.4912H7.57646V58.1906Z" fill="white"/>
<path d="M24.5396 57.6382L18.1746 52.2548C18.1746 52.2548 17.3157 51.4112 16.3494 51.4112C15.3678 51.4112 14.5089 52.2548 14.5089 52.2548L8.14388 57.6382L8.12855 57.6229L13.466 51.1965C13.466 51.1965 14.3095 50.3222 14.3095 49.3406C14.3095 48.3591 13.466 47.5002 13.466 47.5002L8.12855 41.0584L8.14388 41.0431L14.5089 46.4419C14.5089 46.4419 15.3678 47.3008 16.3494 47.3008C17.3157 47.3008 18.1746 46.4419 18.1746 46.4419L24.5396 41.0431L24.5703 41.0738L19.2175 47.5002C19.2175 47.5002 18.3893 48.3744 18.3893 49.3406C18.3893 50.3222 19.2175 51.1965 19.2175 51.1965L24.5703 57.6229L24.5396 57.6382ZM27.515 49.3406C27.515 47.5922 27.5917 46.0431 28.8647 43.2977C29.2328 42.5002 30.0457 41.3345 28.8494 39.9848C27.8678 39.0032 26.7635 39.1566 26.012 39.6014C26.4414 38.8499 26.6101 37.7149 25.6285 36.7333C24.2942 35.5216 23.1285 36.3498 22.3463 36.7179C19.6316 38.0063 18.0979 38.083 16.3647 38.083C14.6316 38.083 13.0825 38.0063 10.3831 36.7179C9.60094 36.3498 8.4353 35.5216 7.10094 36.7333C6.11934 37.7302 6.28806 38.8499 6.7175 39.6014C5.96597 39.1566 4.84634 39.0032 3.88008 39.9848C2.66842 41.3345 3.49665 42.5002 3.86474 43.2977C5.15309 46.0431 5.22977 47.6075 5.22977 49.3406C5.22977 51.0891 5.15309 52.6535 3.86474 55.3989C3.49665 56.1965 2.68376 57.3621 3.88008 58.7118C4.86168 59.6934 5.98131 59.5247 6.7175 59.0952C6.28806 59.8468 6.11934 60.9818 7.10094 61.9633C8.4353 63.1903 9.60094 62.3621 10.3831 61.9787C13.0979 60.6903 14.6316 60.6137 16.3647 60.6137C18.0979 60.6137 19.6316 60.675 22.3463 61.9787C23.1285 62.3468 24.2942 63.175 25.6285 61.9633C26.6101 60.9818 26.4414 59.8621 26.012 59.0952C26.7635 59.5247 27.8678 59.6934 28.8494 58.7118C30.0611 57.3621 29.2328 56.1811 28.8647 55.3989C27.5764 52.6535 27.515 51.0891 27.515 49.3406Z" fill="#FF3333"/>
<path d="M48.2668 59.617C50.4448 58.8347 53.1441 55.0771 52.6994 49.1568C52.2699 43.436 50.1073 38.9421 44.3558 38.5127C44.3558 38.5127 43.2668 38.436 42.3466 38.436C41.365 38.436 41.1656 38.39 41.0889 39.4482C40.9662 41.4268 40.9202 56.8255 41.0583 59.0495C41.0736 59.3562 41.1043 60.0924 42.3619 60.2151C44.6472 60.4298 46.549 60.2458 48.2668 59.617ZM46.0429 37.5311C50.9049 37.5157 57.3159 40.8746 57.3006 49.3102C57.2852 56.6415 52.0398 61.1507 47.2086 61.1507H34.9233L34.9386 60.89C35.6288 60.7673 36.411 60.3378 36.5337 59.8624C36.9478 58.0985 36.8405 41.9482 36.5951 39.2949C36.5184 38.4667 35.8742 37.9298 35.0767 37.7918L35.046 37.5464C35.046 37.5311 44.9386 37.5464 46.0429 37.5311ZM72.9601 55.3532C73.0521 50.2765 69.3711 48.9268 65.5675 48.7274C65.4908 48.7274 65.5214 48.528 65.5828 48.528C66.8251 48.482 71.7484 47.8992 71.549 43.1446C71.3497 38.5127 67.8681 38.4053 66.5951 38.39C65.5521 38.3746 65.3374 38.3746 64.8926 38.4053C64.1564 38.436 63.9724 38.4973 63.9724 39.2949C63.9724 39.4022 63.8036 47.6384 63.7116 53.436C63.6656 56.5801 63.6503 59.0035 63.6503 59.0035C63.6656 59.5863 63.6043 60.1691 65 60.2305C66.457 60.3071 68.3282 60.3685 69.6319 60.0771C70.8435 59.8317 72.8834 58.9421 72.9601 55.3532ZM71.457 48.5433C77.1779 49.9697 77.5306 54.1568 77.454 55.3225C77.1932 60.5525 72.8067 61.1507 71.0276 61.1507H57.5153L57.5306 60.89C58.5122 60.7519 59.2484 60.2151 59.2484 58.4667L59.3251 40.4605C59.3405 38.5127 58.8343 37.9145 57.776 37.7765L57.7454 37.5311H67.9601C69.8313 37.5311 75.4908 37.1476 75.9662 42.393C76.365 46.5955 71.7944 48.3593 71.457 48.5433ZM93.4969 37.6078H93.727L93.8036 41.8102H93.5429C93.1288 40.0924 91.503 38.482 88.2362 38.3133C84.3711 38.1139 82.6993 40.4298 82.684 42.6384C82.6687 45.5679 84.9233 46.166 88.2668 46.9943C89.8466 47.3777 95.6748 48.1599 95.2147 54.7857C94.8926 59.4176 90.9356 61.6108 85.3374 61.4421C85.3374 61.4421 83.0061 61.3654 79.7546 60.4605C79.1564 60.2918 78.9877 60.4912 78.7576 60.936L78.4969 60.9513L78.5122 56.4114L78.773 56.4268C78.8957 56.8869 78.9417 57.7458 79.7546 58.4667C80.3527 59.0035 81.7638 60.3225 84.8619 60.3532C87.8987 60.3992 90.4141 59.0955 90.7515 55.6599C90.8435 54.7397 90.7515 52.6078 88.6963 51.6415C87.0859 50.89 82.638 50.3838 80.4908 48.482C80.4908 48.482 77.9294 46.6875 78.3282 43.3133C78.8957 38.5587 82.8221 37.3777 86.3497 37.301C86.3497 37.301 89.5092 37.2703 92.0245 37.9298C92.0245 37.9298 92.638 38.0986 93.1441 37.8992C93.3282 37.8225 93.4355 37.6844 93.4969 37.6078Z" fill="black"/>
</svg>
