<svg width="100" height="100" viewBox="0 0 100 100" fill="none" xmlns="http://www.w3.org/2000/svg">
<path d="M68.889 28.3411C65.0487 22.6127 61.6741 20.6826 60.7248 19.7743C59.682 18.7724 58.8872 17.637 58.3815 17.0904C57.2567 15.8614 55.8007 14.3444 53.4058 14.3444C51.0941 14.3444 49.5666 15.8509 49.0704 17.1524C48.9264 17.5235 48.8128 17.9776 48.7098 18.1427C48.4827 18.5148 47.4609 20.2589 47.0372 20.9506H48.9474L48.018 22.7052C49.1019 22.4676 49.8757 22.2921 50.908 22.2921C51.8268 22.2921 52.487 22.5097 52.7761 23.0868C53.3133 24.1612 53.3133 27.4118 54.2216 29.8592C55.0679 32.1594 57.1326 34.4101 59.4549 36.1342C59.4854 36.1542 59.5169 36.1647 59.5579 36.1647C59.6715 36.1647 59.744 36.0827 59.744 35.9997C59.744 35.9376 59.723 35.8966 59.6715 35.8451C57.7308 33.9045 56.1518 31.7578 55.3055 29.405C54.4687 27.1132 54.6032 23.8921 53.8705 22.4571C53.3848 21.5078 52.3535 21.2608 51.4032 21.2608C50.6399 21.2608 49.9272 21.4153 49.5971 21.4868L50.4328 20.0728H49.0189C49.3185 19.5472 49.6276 19.0615 49.7831 18.7724C49.9167 18.5243 49.9692 18.2152 50.1343 17.7926C50.6704 16.4396 51.8573 15.5828 53.4058 15.5828C55.3465 15.5828 56.4819 16.8317 57.6067 18.0807C58.1229 18.6589 58.9692 19.8668 59.95 20.7646C60.6208 21.3838 61.9012 22.0755 63.8724 24.1097C65.0077 25.2861 66.3292 26.8136 67.7221 28.8573C72.7083 36.1542 75.9799 42.5849 77.807 47.6016L77.7765 47.6226C72.5433 44.0714 68.0112 40.7168 64.358 36.5779C61.7666 33.6364 59.5169 30.2303 57.5552 25.8843C57.4207 25.5952 57.3082 25.3271 57.1841 25.0485C57.1326 24.935 57.0811 24.9034 56.9981 24.9034C56.895 24.9034 56.8225 24.976 56.8225 25.079C56.8225 25.1925 56.874 25.4406 56.9875 25.9358C58.0304 30.4363 60.9204 34.4722 64.0069 37.8268C67.083 41.1614 70.5606 44.0304 73.4201 46.1161L75.6498 52.4942C75.7013 52.6498 75.7633 52.8148 75.7633 52.9694C75.7633 53.0829 75.7318 53.1754 75.6603 53.2375C75.5983 53.2995 75.5163 53.331 75.3302 53.331H74.6595C74.3704 53.331 74.2558 53.289 74.1528 53.207C74.0498 53.1239 73.9783 52.9999 73.9257 52.8558C73.7302 52.2566 72.5527 48.902 72.3267 48.2208C72.2847 48.0978 72.2121 48.0557 72.1301 48.0557C72.0271 48.0557 71.9546 48.1388 71.9546 48.2313C71.9546 48.3143 71.9851 48.4068 72.0376 48.6959C72.3362 50.2234 72.6873 51.937 72.8313 52.5878C72.8944 52.8863 72.9659 53.166 72.9659 53.372C72.9659 53.557 72.9249 53.6611 72.7704 53.8157L72.0786 54.5179C71.9136 54.683 71.82 54.724 71.6865 54.724C71.5214 54.724 71.3869 54.6104 71.3249 54.3213C70.5406 50.6566 69.3537 46.1161 69.0436 44.8556C68.971 44.5781 68.9195 44.4225 68.7545 44.4225C68.6105 44.4225 68.559 44.5255 68.559 44.6496C68.559 44.7421 68.5789 44.8556 68.5894 44.9387C68.7755 46.2391 69.5293 50.9772 70.344 55.3022C70.4891 56.0454 70.7677 56.4575 71.4079 56.4575C71.697 56.4575 71.9745 56.344 72.2332 56.0969C72.6568 55.6733 72.7798 55.5597 73.2865 55.0646C73.6471 54.7135 73.8952 54.5694 74.5144 54.5694H76.0419C76.4036 54.5694 76.5991 54.4769 76.7747 54.3108C76.9397 54.1563 77.0428 53.9397 77.0428 53.6296C77.0428 53.31 76.9608 53.0524 76.8472 52.7318C76.4551 51.6795 75.1957 48.1177 74.8235 47.1169L74.855 47.0959C76.145 48.0767 78.0236 49.3257 78.8499 49.3257C79.1075 49.3257 79.2631 49.2121 79.2631 48.8095C79.2631 46.9109 76.104 39.0967 68.889 28.3411Z" fill="#939CA1"/>
<path d="M33.4538 16.3469C33.6704 15.8717 34.1456 15.5416 34.7132 15.5416C35.487 15.5416 36.1062 16.1409 36.1062 16.9356C36.1062 17.3992 35.8896 17.8029 35.549 18.05C35.6215 18.3191 35.6731 18.5556 35.6731 18.7827C35.6731 19.65 35.1569 20.2587 34.2076 20.5793C34.0835 21.105 33.8565 21.5802 33.4843 21.9313C32.8651 22.5295 32.2354 22.5295 32.2354 22.7776C32.2354 22.9121 32.3289 22.9941 32.5865 22.9941C33.7324 22.9941 34.8573 22.355 34.9918 21.2911C36.0862 20.92 36.7464 19.8151 36.7464 18.9383C36.7464 18.7102 36.7254 18.5146 36.6329 18.3296C36.9325 18.0395 37.2836 17.5443 37.2836 16.8116C37.2836 16.1713 37.004 15.5217 36.5088 15.0465C36.0757 14.6228 35.466 14.3442 34.7542 14.3442C33.7219 14.3442 33.0512 14.9025 32.6696 15.4491C31.5436 15.4491 30.0887 16.698 30.0887 18.4842H29.9341C29.8301 17.865 29.1909 17.4507 28.6537 17.4203C28.2206 16.1198 27.2397 15.0055 25.6292 15.0055C25.4441 15.0055 25.2171 15.016 25.0205 15.0465C24.5463 14.6123 24.0197 14.3442 23.2869 14.3442C21.8824 14.3442 20.7365 15.4701 20.7365 16.8936C20.7365 17.7819 21.1392 18.3906 21.9034 18.9278C21.9034 18.9278 21.8929 19.0413 21.8929 19.0928C21.8929 20.2282 23.1313 22.0038 24.969 22.0038C24.969 22.2919 25.3306 22.6851 25.7332 22.7565V22.9016H25.5776C23.0493 22.9016 21.976 24.12 21.976 24.9348C21.2222 25.2449 20.7365 26.0807 20.7365 26.8544C20.7365 28.3924 21.8624 29.4868 23.3489 29.4868C23.8441 29.4868 24.3498 29.2913 24.7009 29.0222C24.9584 29.1147 25.2885 29.1662 25.6292 29.1662C26.3419 29.1662 27.1367 28.9191 27.6939 28.1033C27.7769 28.1138 27.8484 28.1138 27.9315 28.1138C28.8398 28.1138 29.624 27.5146 30.0372 26.7304C30.1402 26.5348 30.1812 26.3803 30.1812 26.2657C30.1812 26.1532 30.1297 26.0597 30.0161 26.0597C29.8721 26.0597 29.8511 26.1942 29.5935 26.4318C29.0153 26.9585 28.127 27.154 27.2187 27.154C26.7751 27.8048 26.2284 28.1454 25.5987 28.1454C25.134 28.1454 24.7734 28.0213 24.4013 27.7732C24.1017 28.1033 23.7306 28.2379 23.3689 28.2379C22.5542 28.2379 21.976 27.6702 21.976 26.8439C21.976 26.2657 22.3471 25.7506 22.8633 25.554C22.9558 24.5321 24.0501 23.8404 25.4126 23.8404C25.5882 23.8404 25.7637 23.8509 25.9498 23.8719C26.1559 23.5418 26.651 23.1907 27.3533 23.0972C27.4983 23.0772 27.6108 23.0667 27.6939 23.0257C27.7769 22.9836 27.8179 22.9016 27.8179 22.8081C27.8179 22.7261 27.7864 22.6535 27.7044 22.602C27.6318 22.561 27.5078 22.541 27.3638 22.5095C26.713 22.3854 25.9393 21.9828 25.5472 21.002C23.9881 21.002 22.8422 19.753 22.8422 18.3496V18.2571C22.326 18.05 21.976 17.5548 21.976 16.9661C21.976 16.1924 22.5847 15.5732 23.3584 15.5732C23.8231 15.5732 24.2257 15.8002 24.4843 16.1409C24.7009 16.0788 24.9479 16.0578 25.1855 16.0578C26.3419 16.0578 27.5803 16.7905 27.8179 18.215C29.3044 18.3496 29.6556 19.609 29.7481 20.1357C29.7996 20.4038 29.8406 20.6309 30.0161 20.6309C30.2022 20.6309 30.2432 20.4238 30.3052 20.1452C30.4188 19.6195 30.6154 19.1959 31.0075 18.8658C31.0075 17.5128 32.0188 16.3469 33.4538 16.3469Z" fill="#939CA1"/>
<path d="M36.4573 24.4394C35.9716 25.1312 35.6216 25.4718 34.5167 26.7722C33.0617 28.4963 32.2974 29.8903 31.0275 32.9863C31.2346 32.9653 31.5342 32.9453 31.8643 32.9453C32.0293 32.9453 32.1629 32.9453 32.3805 32.9548L32.535 32.6247C33.2478 31.0972 34.2065 29.0325 35.549 27.4429L36.0137 26.8963C37.3961 25.2763 38.2529 24.3154 38.7901 22.1067C38.9762 21.3224 39.1307 20.6212 39.6574 20.1145C40.1315 19.6603 40.7308 19.4648 41.3395 19.4648C41.8556 19.4648 42.2383 19.5889 42.7955 19.8254C43.3011 20.042 43.4862 20.084 44.0234 20.084C44.2094 20.084 44.343 20.0735 44.467 20.063L43.7448 21.0333L44.7256 21.725C43.4967 22.0856 42.847 23.2736 42.6294 23.8202C42.5884 23.9338 42.5684 24.0063 42.5684 24.0789C42.5684 24.1619 42.6094 24.2439 42.7334 24.2439C42.867 24.2439 42.97 24.1409 43.1456 23.9338C43.7448 23.2116 44.22 22.7154 46.4276 22.0247L44.8696 20.8472L46.046 19.1242H44.9422C44.2399 19.1242 43.7753 19.1137 43.1666 18.8351C42.3403 18.4535 41.9177 18.2884 41.1849 18.2884C40.2871 18.2884 39.4713 18.608 38.8006 19.2272C38.0258 19.9389 37.7882 20.8893 37.5107 21.9322C37.2931 22.7364 37.0355 23.6247 36.4573 24.4394Z" fill="#939CA1"/>
<path d="M38.8312 31.4689C38.2425 32.2636 37.4373 33.3054 36.8181 34.4103C37.0146 34.5039 37.6654 34.855 37.8925 34.978C38.6042 33.9047 39.5955 32.5843 40.2452 31.5824C40.8339 30.6741 41.0715 30.282 41.1125 29.0635C41.123 28.8575 41.123 28.6609 41.143 28.4654C41.1945 27.8357 41.3606 27.1954 41.9588 26.6078C42.4024 26.1631 43.0427 25.937 43.6829 25.937C44.3021 25.937 44.6627 26.1116 45.1999 26.1116C45.5815 26.1116 45.8601 26.019 46.1082 25.9265L46.3048 25.854L45.8296 26.9904L46.944 27.4435C46.2322 27.8872 44.6732 29.7973 44.6732 32.0576C44.6732 32.8734 44.7972 33.6261 44.9728 34.2968C44.9938 34.3693 45.0348 34.4419 45.1484 34.4419C45.2514 34.4419 45.3239 34.3799 45.3344 34.2663L45.345 34.0287C45.3754 33.337 45.427 32.2437 45.7056 31.2628C46.1702 29.6113 47.4191 28.0627 48.668 27.3195L46.8924 26.5457L47.6567 24.6776L46.821 24.8532C46.3153 24.9562 45.9431 25.0487 45.4995 25.0487C45.2104 25.0487 44.8803 25.0077 44.4882 24.9142C44.1886 24.8427 43.8679 24.7806 43.4148 24.7806C42.599 24.7806 41.7212 25.0897 41.123 25.6679C40.0287 26.7108 39.9666 27.8357 39.8941 28.8375C39.8016 30.1684 39.5535 30.4985 38.8312 31.4689Z" fill="#939CA1"/>
<path d="M65.3177 32.0981C65.2451 32.0056 65.1831 31.9635 65.1011 31.9635C64.977 31.9635 64.915 32.0466 64.915 32.1391C64.915 32.2841 65.018 32.4597 65.2767 32.8939C66.0609 34.2248 67.0312 35.5662 68.2286 36.8267C69.5186 38.1986 71.0356 39.478 72.6566 40.6239L73.1623 40.9751C73.2348 41.0276 73.2863 41.0581 73.3484 41.0581C73.4514 41.0581 73.5239 40.9551 73.5239 40.872C73.5239 40.8205 73.5029 40.768 73.4409 40.7164C71.9344 39.3445 70.3133 37.6719 68.7963 36.0624C67.6084 34.7925 66.391 33.4511 65.3177 32.0981Z" fill="#939CA1"/>
<path d="M32.1016 27.4224C32.2562 27.1648 32.7208 26.5351 32.9069 26.3385C32.1121 24.729 30.8117 23.191 30.244 22.5812L29.7688 23.0459C30.3165 23.8407 31.2343 25.3787 32.1016 27.4224Z" fill="#939CA1"/>
<path d="M24.5353 18.1023C24.4417 18.0192 24.4217 17.9677 24.4217 17.9057C24.4217 17.8342 24.4733 17.7511 24.5868 17.7511C24.6278 17.7511 24.6688 17.7616 24.7214 17.7827C25.4846 18.0917 26.1353 18.4534 26.7135 18.897C27.1982 19.2681 27.6733 19.7233 28.137 20.27L27.7038 20.7651C27.1677 20.3204 25.4331 18.8665 24.5353 18.1023Z" fill="#939CA1"/>
<path d="M31.854 21.5601L31.2968 21.2194C31.6574 20.3627 32.1021 19.5784 32.6277 18.9897C32.9998 18.5671 33.351 18.2254 33.7431 17.8858C33.8356 17.8133 33.8871 17.7513 33.9796 17.7513C34.0837 17.7513 34.1562 17.8343 34.1562 17.9163C34.1562 17.9573 34.1352 18.0088 34.0942 18.0709C33.4645 19.0517 32.2356 20.9924 31.854 21.5601Z" fill="#939CA1"/>
<path d="M24.8554 26.3491C24.7209 26.4006 24.6588 26.4321 24.5874 26.4321C24.4738 26.4321 24.4213 26.3386 24.4213 26.266C24.4213 26.1945 24.4528 26.1535 24.5253 26.0905C25.7942 25.1002 26.9096 24.708 28.4476 24.4494L28.6327 25.0697L24.8554 26.3491Z" fill="#939CA1"/>
<path d="M51.3314 18.3395C51.3314 17.9779 51.5175 17.3271 52.1882 17.3271C52.4152 17.3271 52.6318 17.3787 52.8074 17.4617C53.0555 17.5752 53.2205 17.7403 53.2205 17.9159C53.2205 18.1019 53.0344 18.288 52.7559 18.5151C52.4668 18.7516 52.0957 18.9692 51.796 18.9692C51.4355 18.9692 51.3314 18.6276 51.3314 18.3395Z" fill="#939CA1"/>
<path d="M40.8546 21.3534C40.8546 20.9098 41.1227 20.4241 41.6388 20.4241C41.8659 20.4241 42.134 20.5166 42.3306 20.7037C42.4441 20.8068 42.4956 20.9192 42.4956 21.0338C42.4956 21.2819 42.258 21.5185 41.9794 21.6835C41.7629 21.8076 41.5358 21.8906 41.3403 21.8906C41.0196 21.8906 40.8546 21.693 40.8546 21.3534Z" fill="#939CA1"/>
<path d="M43.2802 27.7218C43.2802 27.6188 43.2907 27.4948 43.3317 27.3707C43.4147 27.1026 43.5892 26.844 44.0234 26.844C44.22 26.844 44.4355 26.8955 44.6111 27.0206C44.7667 27.1237 44.8287 27.2572 44.8287 27.3917C44.8287 27.8354 44.0855 28.3516 43.7133 28.3516C43.4452 28.3516 43.2802 28.0929 43.2802 27.7218Z" fill="#939CA1"/>
<path d="M39.2131 40.748C37.8202 40.748 37.1999 40.0878 37.1999 39.2521C37.1999 37.7855 39.7703 36.3516 42.0821 35.4633L42.6813 36.2381C41.2568 36.8047 38.3879 38.0242 38.3879 39.0765C38.3879 39.4476 38.6044 39.7167 39.4707 39.7167C40.9782 39.7167 42.5993 38.983 44.0952 38.2502C44.2088 38.1987 44.3433 38.1472 44.4674 38.1472C44.6629 38.1472 44.787 38.2092 44.931 38.4153L45.1791 38.7559C43.435 39.7167 41.2568 40.748 39.2131 40.748Z" fill="#939CA1"/>
<path d="M43.0533 41.1404C41.6908 41.9036 40.2768 42.4103 39.0279 42.4103C37.6339 42.4103 36.3955 41.8111 35.3632 40.252C34.93 39.5918 34.5894 38.7666 34.1763 38.0338C33.6811 37.1665 33.1439 36.7019 32.2051 36.7019C31.3483 36.7019 30.5115 37.053 29.6242 37.4346L29.6652 37.6312C29.7378 37.9508 29.8618 38.1779 30.1604 38.1779C30.295 38.1779 30.4295 38.1169 30.5021 38.0959C30.9972 37.9403 31.3578 37.8057 31.8645 37.8057C32.6382 37.8057 33.0093 38.2609 33.536 39.3753L33.7326 39.7884C33.1954 39.9745 31.936 40.067 30.9972 40.067H30.5536L30.6261 40.5106C30.6566 40.6967 30.7291 40.8513 30.8837 40.9238C31.0687 41.0163 31.3378 41.0268 31.8025 41.0268C32.9789 41.0268 33.8357 40.8828 34.3308 40.7577C35.6007 42.6479 37.3448 43.3701 39.0279 43.3701C40.4619 43.3701 41.9179 42.8434 43.3119 42.0802L43.0533 41.1404Z" fill="#939CA1"/>
<path d="M44.4564 41.6054L44.2094 40.655C46.335 39.5102 48.2757 38.5914 51.3728 38.2918C51.4348 39.4786 51.3517 40.9757 52.2296 40.9757C53.0338 40.9757 54.7884 38.9004 56.8121 36.2996C56.9981 36.4751 57.2967 36.6612 57.5658 36.8673L57.0497 37.538C55.0775 40.0779 53.3954 42.2456 52.0119 42.2456C50.722 42.2456 50.2363 40.7276 50.2164 39.5922C48.2452 39.7888 46.3866 40.449 44.4564 41.6054Z" fill="#939CA1"/>
<path d="M71.769 20.8889C70.9637 20.8889 70.7366 20.4442 70.7366 19.8156C70.7366 18.5151 71.5524 16.647 72.0686 15.5831H70.8186C70.1689 16.8426 67.6091 20.8784 66.2256 22.551L67.0204 23.4067C67.7636 22.5815 68.5794 21.178 69.4667 19.7946H69.6317C69.6317 19.8671 69.6223 19.9491 69.6223 20.0216C69.6223 21.1885 70.2204 22.0548 71.6964 22.0548C72.6047 22.0548 74.0292 21.6006 75.3717 21.1465C76.4861 20.7649 77.5079 20.3728 78.0136 20.2287V18.9903C77.4354 19.1648 76.259 19.619 75.0405 20.0427C73.7611 20.4863 72.5017 20.8889 71.769 20.8889Z" fill="#939CA1"/>
<path d="M74.5247 24.6357C75.7631 24.1101 77.9823 23.2217 79.2628 22.7571V21.4976C76.6924 22.448 72.1814 24.3161 69.1054 25.9887C69.1884 26.0907 69.7256 26.8444 69.7866 26.938C71.087 26.4008 72.2539 26.0497 73.3063 26.0497C74.7833 26.0497 75.9902 26.0497 78.0139 25.5745V24.6252C76.8785 24.8323 75.6706 25.0793 74.8863 25.0793C74.4217 25.0793 74.2871 25.0173 74.2871 24.8628C74.2871 24.7703 74.3491 24.7082 74.5247 24.6357Z" fill="#939CA1"/>
<path d="M48.0798 30.4364L47.5836 31.3867H52.8589L52.4667 30.4364H48.0798Z" fill="#939CA1"/>
<path d="M29.0768 36.1032C29.634 36.1032 30.0881 35.9171 30.5223 35.7426C30.9344 35.5765 31.3475 35.4115 31.9047 35.4115C33.2262 35.4115 34.8567 36.0517 36.2917 36.6604C36.3747 36.6919 36.4673 36.7119 36.5598 36.7119C36.7879 36.7119 36.9635 36.6089 37.076 36.3923L37.262 36.0517C35.683 35.1329 33.1642 34.152 31.8532 34.152C31.255 34.152 30.8209 34.3076 30.4088 34.4716C29.9441 34.6587 29.5415 34.8543 29.1178 34.8543C28.076 34.8543 25.4026 33.8219 25.4026 32.8211C25.4026 31.6447 29.655 31.1906 30.1197 31.1906L30.5423 30.2297C27.4568 30.2297 23.7815 31.3136 23.7815 32.7486C23.7815 33.1617 24.0191 33.3678 24.0191 33.7494C24.0191 34.2656 23.7815 34.6167 23.7815 35.1949C23.7815 35.5765 24.0086 36.0622 24.2767 36.4859C24.5658 36.9295 24.9064 37.2175 24.9064 37.5897C24.9064 37.8683 24.7213 38.1984 24.7213 38.8491C24.7213 40.2421 25.5161 41.0894 27.0636 42.7504L27.3737 43.0805C26.0943 43.5767 23.709 44.6091 23.1518 44.8456C21.2216 45.6509 20.737 46.6317 20.737 48.1803C20.737 48.7784 20.737 49.4597 20.778 50.0684H21.1491C21.9239 50.0684 22.0164 49.6047 22.0164 49.1611C22.0164 48.8615 22.0059 48.5209 22.0059 48.1487C22.0164 47.293 22.0479 46.5287 23.4304 45.9095C23.9886 45.6614 26.723 44.5471 28.7572 43.6797C29.3554 43.4211 29.9126 43.2046 30.5318 43.2046C31.2235 43.2046 32.0183 43.5042 33.0096 44.0929C33.8454 44.5881 34.7232 45.2588 35.4149 46.0325L36.2917 45.3618C35.5379 44.4745 34.4961 43.6797 33.4533 43.0605C32.4104 42.4413 31.4821 42.0797 30.6979 42.0797C30.3572 42.0797 30.0787 42.1417 29.8411 42.2038C29.5625 42.2763 29.3039 42.3583 28.9738 42.3583C28.5921 42.3583 28.2715 42.2658 27.8068 41.7286C27.6313 41.533 26.5169 40.2631 26.2793 39.892C26.1658 39.7164 25.9598 39.3653 25.9598 38.9522C25.9598 38.7766 25.9902 38.5705 26.0943 38.3845C27.0531 39.1277 28.241 39.5819 29.6855 39.7574L29.4899 38.7766C27.4147 38.2299 25.206 36.4028 25.206 35.2264C25.206 34.9783 25.268 34.8028 25.3616 34.5862C26.1658 35.3295 28.0549 36.1032 29.0768 36.1032Z" fill="#939CA1"/>
<path d="M43.9304 36.2895C45.2308 35.3706 46.5722 35.2676 47.6561 35.2676C48.3068 35.2676 49.0701 35.3601 49.8753 35.4632C50.5261 35.5462 51.1137 35.6082 51.816 35.6082C53.23 35.6082 54.6544 35.0921 55.2736 34.8229C55.4492 35.0405 55.7488 35.3296 55.9864 35.5357C55.6868 35.7218 53.7882 36.7531 51.8475 36.7531C50.9907 36.7531 50.175 36.6511 49.4727 36.5575C48.8535 36.4755 48.1828 36.403 47.532 36.403C46.8203 36.403 45.3853 36.6091 44.4981 37.0327L43.9304 36.2895Z" fill="#939CA1"/>
<path d="M63.0983 39.9743C61.5498 43.2364 59.196 45.6102 56.7812 46.9832C55.6353 47.6329 54.603 48.0565 52.3742 48.0565H47.5531C45.83 48.0565 44.7462 48.2836 43.8999 48.5002C42.9905 48.7378 42.4134 48.9743 41.4946 48.9743C40.1321 48.9743 38.8727 48.3036 38.264 47.6644L39.3994 46.7666L38.8317 46.0118C38.5016 46.2504 34.4657 49.2329 33.6184 49.9036L33.5669 49.8731C33.5879 49.6671 33.5879 49.481 33.5879 49.2949C33.5879 47.0242 32.5345 46.4765 30.9356 45.8373L29.8517 46.4765C32.0499 47.2103 32.5966 47.7979 32.5966 49.439C32.5966 50.7404 32.1319 51.2556 31.4612 51.6488C30.7694 52.0514 29.9127 52.2364 29.1599 52.2364C28.8393 52.2364 28.6953 52.2984 28.5817 52.412C28.4577 52.536 28.3957 52.7221 28.3957 52.9797V53.3413H28.6543C30.0367 53.3413 31.3172 53.1247 32.7206 52.0199L37.2937 48.4487C37.9434 49.1919 39.5855 50.2243 41.5251 50.2243C42.6194 50.2243 43.3217 49.9551 44.333 49.6976C45.1173 49.501 45.8816 49.3254 47.5531 49.3254H52.3942C54.8721 49.3254 56.0695 48.8093 57.3899 48.0671C60.2599 46.4565 62.7062 43.7316 64.0897 40.603C63.728 40.377 63.3874 40.1699 63.0983 39.9743Z" fill="#939CA1"/>
<path d="M55.3258 43.8554C56.5747 41.8527 57.6891 40.0771 60.4245 38.6327C60.1354 38.4571 59.7233 38.189 59.5057 38.0439C58.4428 38.5086 57.3905 39.4369 56.4927 40.3767C54.428 42.5234 54.613 43.7618 52.4358 44.5987C51.8881 44.8047 51.2174 45.0318 50.3606 45.2284C49.855 43.6693 48.5861 42.1208 47.2436 42.1208C46.3143 42.1208 45.2409 42.6054 44.0025 43.1532C42.5475 43.7934 41.2156 44.5261 40.793 44.8047L41.3606 45.569C41.7938 45.3303 43.0427 44.7111 44.2916 44.175C45.3755 43.7103 46.3563 43.3287 47.0165 43.3287C48.0794 43.3287 48.7711 44.5366 49.1538 45.5059C47.7598 45.8371 45.468 45.9191 44.7773 45.9191C44.4567 45.9191 44.3431 45.9706 44.2296 46.0641C44.1266 46.1566 44.0435 46.3217 43.992 46.5488L43.91 46.8999H44.6522C48.5135 46.8999 52.1573 46.2912 54.4995 44.8667C54.8307 44.9603 55.1198 45.0213 55.4909 45.0213C56.8323 45.0213 58.2158 44.2885 59.0831 43.6178C59.3921 43.3802 59.4647 43.1626 59.4647 42.9261C59.4647 42.8125 59.4542 42.7095 59.4437 42.6054L59.4027 42.2038C58.1643 43.1836 57.1319 43.9174 55.8525 43.9174C55.6254 43.9174 55.4604 43.8964 55.3258 43.8554Z" fill="#939CA1"/>
<path d="M22.4064 63.7881C22.1983 64.0405 22.0805 64.3222 22.0805 64.8121V78.2821H22.0059C22.0059 78.2821 14.6333 65.138 14.2769 64.5303C14.0246 64.0993 13.7429 63.8029 13.3718 63.58C13.0007 63.3729 12.6149 63.2394 11.8737 63.2394H9.44105C8.87651 63.2394 8.52118 63.4318 8.26887 63.7293C8.06072 63.9805 7.94193 64.2633 7.94193 64.7522V83.8455C7.94193 84.3354 8.06072 84.6171 8.26887 84.8694C8.52118 85.1659 8.87651 85.3582 9.44105 85.3582H10.8203C11.3838 85.3582 11.7402 85.1659 11.9925 84.8694C12.1996 84.6171 12.3184 84.3354 12.3184 83.8455V70.0485H12.393C12.393 70.0485 20.0474 83.6079 20.3596 84.1125C20.7896 84.8242 21.516 85.3582 22.5547 85.3582H24.9137C25.4772 85.3582 25.8336 85.1659 26.0859 84.8694C26.293 84.6171 26.4118 84.3354 26.4118 83.8455V66.6213H57.4024C57.7146 66.6213 57.9512 66.533 58.1299 66.3848C58.3223 66.2061 58.4116 65.9685 58.4116 65.6132V64.3075C58.4116 63.9511 58.3223 63.7135 58.1299 63.5358C57.9512 63.3876 57.7146 63.2983 57.4024 63.2983H23.5786C23.0151 63.2983 22.6588 63.4917 22.4064 63.7881ZM35.9364 68.891C30.7883 68.891 27.8952 72.9122 27.8952 77.1551C27.8952 81.6798 30.9964 85.6558 35.9658 85.6558C38.4437 85.6558 40.8763 84.7212 42.2703 83.0738C42.879 82.3621 43.3689 81.3676 43.3689 80.76C43.3689 80.5518 43.3237 80.3741 43.206 80.2406C43.0872 80.0924 42.9084 80.003 42.5973 80.003H40.2088C39.7336 80.003 39.4077 80.1807 39.1701 80.5371C38.4731 81.561 37.4639 82.0951 35.9805 82.0951C33.755 82.0951 32.3168 80.4036 32.2128 78.5491H42.5384C42.9978 78.5491 43.3237 78.4451 43.5466 78.2232C43.7989 77.9856 43.9177 77.644 43.9177 77.0059C43.9177 75.0631 43.309 73.0457 42.0338 71.5024C40.7281 69.9444 38.7401 68.891 35.9364 68.891ZM51.8538 68.891C47.7895 68.891 45.1193 70.8201 45.1193 73.9056C45.1193 75.0032 45.5198 75.8936 46.1727 76.5906C46.9296 77.4074 48.0124 77.9709 49.5851 78.3715L52.9818 79.2314C53.9164 79.469 54.7469 79.7507 54.7469 80.5665C54.7469 81.8281 53.4118 82.258 51.9883 82.258C51.2903 82.258 50.5638 82.1245 49.9699 81.8281C49.5546 81.6199 49.1993 81.3234 48.947 80.9229C48.7241 80.5812 48.6505 80.3289 48.3089 80.1366C48.1007 80.0178 47.8484 80.003 47.5078 80.003H45.668C45.2675 80.003 45.0751 80.1218 44.9416 80.2848C44.8081 80.4477 44.7629 80.6853 44.7629 80.9229C44.7629 81.5158 44.9711 82.258 45.4609 82.9256C46.5879 84.4384 48.947 85.6558 51.9578 85.6558C54.9256 85.6558 59.035 84.4237 59.035 80.4477C59.035 79.4248 58.7375 78.5491 58.1888 77.8374C57.4918 76.9323 56.4983 76.3089 54.8068 75.8789L51.4396 75.0179C50.0445 74.6626 49.3917 74.4103 49.3917 73.5493C49.3917 72.7187 50.1339 72.0512 51.8538 72.0512C52.863 72.0512 53.7829 72.2741 54.3768 72.8975C54.8657 73.4168 54.7774 73.6838 55.1632 73.8909C55.3997 74.0097 55.6667 74.0097 56.083 74.0097H57.7588C58.0258 74.0097 58.2192 73.9656 58.3664 73.8016C58.4863 73.668 58.5599 73.4609 58.5599 73.1193C58.5599 72.3476 58.0552 71.3542 57.1659 70.5973C55.979 69.5733 54.1098 68.891 51.8538 68.891ZM61.0966 69.4556H60.2661C59.9549 69.4556 59.7173 69.5439 59.5396 69.6921C59.3462 69.8708 59.2569 70.1084 59.2569 70.4638V71.4877C59.2569 71.8441 59.3462 72.0806 59.5396 72.2593C59.7173 72.4076 59.9549 72.4969 60.2661 72.4969H61.0966V79.899C61.0966 81.7976 61.6159 82.9845 62.5799 83.9348C63.4704 84.8095 64.6278 85.3582 66.6452 85.3582H67.9057C68.2179 85.3582 68.4545 85.2699 68.6332 85.1217C68.8256 84.943 68.9444 84.7054 68.9444 84.3501V83.0591C68.9444 82.7027 68.8256 82.4662 68.6332 82.2875C68.4545 82.1392 68.2179 82.0499 67.9057 82.0499H67.728C66.927 82.0499 66.3782 81.8428 66.0071 81.4864C65.5624 81.0711 65.3395 80.433 65.3395 79.6025V72.4969H68.0403C68.3515 72.4969 68.589 72.4076 68.7667 72.2593C68.9591 72.0806 69.0484 71.8441 69.0484 71.4877V70.4638C69.0484 70.1084 68.9591 69.8708 68.7667 69.6921C68.589 69.5439 68.3515 69.4556 68.0403 69.4556H65.3543V64.6187C65.3543 64.2328 65.2355 63.9511 65.0578 63.7293C64.8349 63.4623 64.5238 63.2983 64.0643 63.2983H62.3876C61.9271 63.2983 61.6159 63.4623 61.393 63.7293C61.2154 63.9511 61.0966 64.2328 61.0966 64.6187V69.4556ZM70.1765 84.0378C70.1765 84.4237 70.2942 84.7054 70.4729 84.9283C70.6947 85.1953 71.007 85.3582 71.4664 85.3582H73.2315C73.6919 85.3582 74.0031 85.1953 74.226 84.9283C74.4036 84.7054 74.5224 84.4237 74.5224 84.0378V64.6197C74.5224 64.2339 74.4036 63.9521 74.226 63.7293C74.0031 63.4623 73.6919 63.2983 73.2315 63.2983H71.4664C71.007 63.2983 70.6947 63.4623 70.4729 63.7293C70.2942 63.9521 70.1765 64.2339 70.1765 64.6197V84.0378ZM32.2422 75.389C32.4346 73.564 33.8296 72.1994 35.9511 72.1994C38.0284 72.1994 39.4666 73.564 39.66 75.389H32.2422ZM90.5891 66.6213C90.9003 66.6213 91.1379 66.533 91.3155 66.3848C91.509 66.2061 91.5983 65.9685 91.5983 65.6132V64.2328C91.5983 63.6988 91.4943 63.4318 91.3155 63.2394C91.1526 63.0607 90.8856 62.9576 90.5891 62.9576C90.3515 62.9576 90.115 62.9871 89.7145 63.0312L77.875 64.2034C77.5344 64.2328 77.3714 64.3369 77.2526 64.4704C77.1191 64.6187 77.0592 64.8121 77.0592 65.0791V65.8497C77.0592 66.1472 77.1191 66.2807 77.2232 66.3995C77.3556 66.5477 77.5491 66.6213 77.8161 66.6213H90.5891ZM84.047 68.891C78.8989 68.891 76.0058 72.9122 76.0058 77.1551C76.0058 81.6798 79.1071 85.6558 84.0764 85.6558C86.5543 85.6558 88.987 84.7212 90.381 83.0738C90.9896 82.3621 91.4795 81.3676 91.4795 80.76C91.4795 80.5518 91.4343 80.3741 91.3155 80.2406C91.1978 80.0924 91.0191 80.003 90.7079 80.003H88.3194C87.8442 80.003 87.5183 80.1807 87.2807 80.5371C86.5837 81.561 85.5745 82.0951 84.0912 82.0951C81.8656 82.0951 80.4264 80.4036 80.3234 78.5491H90.6785C91.1379 78.5491 91.4648 78.4451 91.6866 78.2232C91.939 77.9856 92.0577 77.644 92.0577 77.0059C92.0577 75.0631 91.4491 73.0457 90.1739 71.5024C88.8682 69.9444 86.8508 68.891 84.047 68.891ZM80.3528 75.389C80.5463 73.564 81.9403 72.1994 84.0617 72.1994C86.1391 72.1994 87.5772 73.564 87.7706 75.389H80.3528Z" fill="#939CA1"/>
</svg>
