<svg width="32" height="32" viewBox="0 0 32 32" fill="none" xmlns="http://www.w3.org/2000/svg">
<path d="M12.277 27.5997C9.69802 19.1017 15.1473 15.9988 15.1473 15.9988C14.766 20.5334 17.3429 24.0662 17.3429 24.0662C18.2907 23.7803 20.0996 22.4438 20.0996 22.4438C20.0996 24.0662 19.1451 27.5977 19.1451 27.5977C19.1451 27.5977 22.4866 25.014 23.5384 20.7227C24.5889 16.4315 21.5375 12.1233 21.5375 12.1233C21.7214 15.1606 20.6938 18.1478 18.6807 20.43C18.7814 20.3137 18.8659 20.1846 18.9308 20.0447C19.2925 19.3214 19.8732 17.4414 19.5331 13.088C19.0545 6.97694 13.5174 4.40002 13.5174 4.40002C13.9947 8.12343 12.5636 8.98128 9.2113 16.0489C5.85901 23.1151 12.277 27.5997 12.277 27.5997Z" fill="url(#paint0_linear)"/>
<defs>
<linearGradient id="paint0_linear" x1="16.0002" y1="4.40002" x2="16.0002" y2="27.5997" gradientUnits="userSpaceOnUse">
<stop stop-color="#E96200"/>
<stop offset="1" stop-color="#E95400"/>
</linearGradient>
</defs>
</svg>
