<svg width="192" height="48" viewBox="0 0 192 48" fill="none" xmlns="http://www.w3.org/2000/svg">
<path d="M71.511 26.345H75.615C76.255 26.345 76.711 26.425 76.983 26.585C77.271 26.745 77.463 26.977 77.559 27.281C77.655 27.585 77.703 27.985 77.703 28.481C77.703 28.977 77.655 29.377 77.559 29.681C77.463 29.985 77.295 30.201 77.055 30.329C76.815 30.441 76.599 30.513 76.407 30.545C76.231 30.561 75.959 30.569 75.591 30.569H66.927C66.367 30.569 65.879 30.361 65.463 29.945C65.047 29.529 64.839 29.033 64.839 28.457C64.839 27.881 65.047 27.393 65.463 26.993C65.879 26.577 66.519 25.985 67.383 25.217C68.247 24.449 69.031 23.761 69.735 23.153C70.439 22.529 70.823 22.185 70.887 22.121H67.503C66.591 22.121 66.015 21.969 65.775 21.665C65.503 21.313 65.367 20.849 65.367 20.273C65.367 19.697 65.407 19.273 65.487 19.001C65.567 18.713 65.663 18.505 65.775 18.377C65.887 18.233 66.047 18.121 66.255 18.041C66.527 17.961 66.943 17.921 67.503 17.921H75.303C75.863 17.921 76.351 18.121 76.767 18.521C77.183 18.921 77.391 19.425 77.391 20.033C77.391 20.625 77.151 21.153 76.671 21.617C76.191 22.081 74.471 23.657 71.511 26.345ZM78.9015 24.257C78.9015 22.337 79.5735 20.753 80.9175 19.505C82.2615 18.257 83.7975 17.633 85.5255 17.633C87.2535 17.633 88.7815 18.257 90.1095 19.505C91.4375 20.737 92.1015 22.313 92.1015 24.233C92.1015 25.561 91.7575 26.745 91.0695 27.785C90.3815 28.809 89.5415 29.569 88.5495 30.065C87.5735 30.545 86.5575 30.785 85.5015 30.785C84.4455 30.785 83.4215 30.529 82.4295 30.017C81.4375 29.489 80.5975 28.721 79.9095 27.713C79.2375 26.689 78.9015 25.537 78.9015 24.257ZM83.9175 25.985C84.4295 26.369 84.9495 26.561 85.4775 26.561C86.0055 26.561 86.5335 26.361 87.0615 25.961C87.5895 25.561 87.8535 24.969 87.8535 24.185C87.8535 23.401 87.6055 22.817 87.1095 22.433C86.6135 22.049 86.0775 21.857 85.5015 21.857C84.9255 21.857 84.3895 22.057 83.8935 22.457C83.3975 22.857 83.1495 23.449 83.1495 24.233C83.1495 25.001 83.4055 25.585 83.9175 25.985ZM93.2921 24.257C93.2921 22.337 93.9641 20.753 95.3081 19.505C96.6521 18.257 98.1881 17.633 99.9161 17.633C101.644 17.633 103.172 18.257 104.5 19.505C105.828 20.737 106.492 22.313 106.492 24.233C106.492 25.561 106.148 26.745 105.46 27.785C104.772 28.809 103.932 29.569 102.94 30.065C101.964 30.545 100.948 30.785 99.8921 30.785C98.8361 30.785 97.8121 30.529 96.8201 30.017C95.8281 29.489 94.9881 28.721 94.3001 27.713C93.6281 26.689 93.2921 25.537 93.2921 24.257ZM98.3081 25.985C98.8201 26.369 99.3401 26.561 99.8681 26.561C100.396 26.561 100.924 26.361 101.452 25.961C101.98 25.561 102.244 24.969 102.244 24.185C102.244 23.401 101.996 22.817 101.5 22.433C101.004 22.049 100.468 21.857 99.8921 21.857C99.3161 21.857 98.7801 22.057 98.2841 22.457C97.7881 22.857 97.5401 23.449 97.5401 24.233C97.5401 25.001 97.7961 25.585 98.3081 25.985ZM112.171 19.601C112.923 18.465 113.827 17.897 114.883 17.897C116.515 17.897 117.731 18.593 118.531 19.985C118.707 19.745 118.915 19.497 119.155 19.241C119.411 18.969 119.811 18.681 120.355 18.377C120.899 18.057 121.459 17.897 122.035 17.897C123.315 17.897 124.387 18.393 125.251 19.385C126.115 20.361 126.547 21.985 126.547 24.257V28.457C126.547 28.825 126.531 29.105 126.499 29.297C126.483 29.473 126.411 29.681 126.283 29.921C126.075 30.353 125.459 30.569 124.435 30.569C123.427 30.569 122.811 30.345 122.587 29.897C122.475 29.657 122.403 29.449 122.371 29.273C122.355 29.081 122.347 28.801 122.347 28.433V24.233C122.347 22.841 121.851 22.145 120.859 22.145C120.299 22.145 119.915 22.329 119.707 22.697C119.515 23.065 119.419 23.585 119.419 24.257V28.457C119.419 28.841 119.403 29.121 119.371 29.297C119.355 29.473 119.283 29.681 119.155 29.921C118.931 30.353 118.307 30.569 117.283 30.569C116.275 30.569 115.659 30.345 115.435 29.897C115.323 29.657 115.251 29.449 115.219 29.273C115.203 29.081 115.195 28.801 115.195 28.433V24.233C115.195 22.841 114.699 22.145 113.707 22.145C112.747 22.145 112.267 22.841 112.267 24.233V28.481C112.267 28.849 112.251 29.129 112.219 29.321C112.203 29.497 112.131 29.705 112.003 29.945C111.763 30.361 111.139 30.569 110.131 30.569C109.123 30.569 108.507 30.353 108.283 29.921C108.171 29.681 108.099 29.473 108.067 29.297C108.051 29.121 108.043 28.841 108.043 28.457V20.009C108.043 19.641 108.051 19.369 108.067 19.193C108.099 19.001 108.179 18.793 108.307 18.569C108.547 18.137 109.115 17.921 110.011 17.921C110.907 17.921 111.491 18.065 111.763 18.353C112.035 18.641 112.171 19.057 112.171 19.601ZM136.665 19.265C136.761 18.369 137.393 17.921 138.561 17.921C139.185 17.921 139.649 17.969 139.953 18.065C140.257 18.161 140.465 18.329 140.577 18.569C140.705 18.809 140.777 19.025 140.793 19.217C140.825 19.393 140.841 19.665 140.841 20.033V28.433C140.841 28.801 140.825 29.081 140.793 29.273C140.777 29.449 140.713 29.657 140.601 29.897C140.377 30.313 139.825 30.521 138.945 30.521C138.081 30.521 137.497 30.417 137.193 30.209C136.905 29.985 136.737 29.665 136.689 29.249C136.097 30.097 135.105 30.521 133.713 30.521C132.337 30.521 131.057 29.889 129.873 28.625C128.689 27.361 128.097 25.897 128.097 24.233C128.097 22.553 128.689 21.089 129.873 19.841C131.073 18.577 132.385 17.945 133.809 17.945C134.353 17.945 134.849 18.041 135.297 18.233C135.745 18.425 136.057 18.609 136.233 18.785C136.409 18.945 136.553 19.105 136.665 19.265ZM132.297 24.257C132.297 24.785 132.505 25.265 132.921 25.697C133.337 26.113 133.841 26.321 134.433 26.321C135.025 26.321 135.513 26.105 135.897 25.673C136.297 25.241 136.497 24.769 136.497 24.257C136.497 23.729 136.305 23.241 135.921 22.793C135.553 22.345 135.049 22.121 134.409 22.121C133.785 22.121 133.273 22.345 132.873 22.793C132.489 23.241 132.297 23.729 132.297 24.257ZM142.85 29.441C142.546 29.249 142.394 28.945 142.394 28.529C142.394 28.113 142.698 27.481 143.306 26.633C143.482 26.361 143.762 26.225 144.146 26.225C144.546 26.225 145.082 26.425 145.754 26.825C146.426 27.209 147.034 27.401 147.578 27.401C148.554 27.401 149.042 27.209 149.042 26.825C149.042 26.521 148.506 26.297 147.434 26.153C146.426 26.009 145.426 25.633 144.434 25.025C143.97 24.737 143.586 24.289 143.282 23.681C142.978 23.057 142.826 22.321 142.826 21.473C142.826 18.945 144.562 17.681 148.034 17.681C149.17 17.681 150.338 17.953 151.538 18.497C152.098 18.753 152.378 19.073 152.378 19.457C152.378 19.841 152.202 20.313 151.85 20.873C151.498 21.433 151.138 21.713 150.77 21.713C150.578 21.713 150.218 21.593 149.69 21.353C149.178 21.113 148.618 20.993 148.01 20.993C147.066 20.993 146.594 21.169 146.594 21.521C146.594 22.001 147.138 22.313 148.226 22.457C149.282 22.569 150.306 22.873 151.298 23.369C151.762 23.593 152.146 23.985 152.45 24.545C152.77 25.089 152.93 25.777 152.93 26.609C152.93 27.441 152.77 28.153 152.45 28.745C152.146 29.321 151.714 29.753 151.154 30.041C150.13 30.537 148.842 30.785 147.29 30.785C145.754 30.785 144.274 30.337 142.85 29.441ZM161.465 22.169L159.905 22.073V25.385C159.905 25.817 159.969 26.129 160.097 26.321C160.241 26.513 160.497 26.609 160.865 26.609C161.249 26.609 161.537 26.625 161.729 26.657C161.937 26.673 162.153 26.745 162.377 26.873C162.745 27.081 162.929 27.617 162.929 28.481C162.929 29.489 162.705 30.105 162.257 30.329C162.017 30.441 161.801 30.513 161.609 30.545C161.433 30.561 161.169 30.569 160.817 30.569C159.153 30.569 157.889 30.193 157.025 29.441C156.161 28.689 155.729 27.417 155.729 25.625V22.073C155.425 22.121 155.097 22.145 154.745 22.145C154.393 22.145 154.097 22.009 153.857 21.737C153.633 21.465 153.521 21.001 153.521 20.345C153.521 19.689 153.561 19.217 153.641 18.929C153.721 18.625 153.833 18.409 153.977 18.281C154.233 18.073 154.553 17.969 154.937 17.969L155.729 18.065V15.593C155.729 15.225 155.737 14.953 155.753 14.777C155.785 14.601 155.865 14.409 155.993 14.201C156.201 13.801 156.817 13.601 157.841 13.601C158.929 13.601 159.577 13.897 159.785 14.489C159.865 14.745 159.905 15.153 159.905 15.713V18.065C160.609 18.001 161.137 17.969 161.489 17.969C161.857 17.969 162.129 17.985 162.305 18.017C162.497 18.033 162.713 18.105 162.953 18.233C163.369 18.441 163.577 19.057 163.577 20.081C163.577 21.089 163.361 21.705 162.929 21.929C162.689 22.041 162.473 22.113 162.281 22.145C162.105 22.161 161.833 22.169 161.465 22.169ZM176.625 22.745C176.625 23.721 176.377 24.449 175.881 24.929C175.401 25.393 174.865 25.625 174.273 25.625H168.585C168.585 26.073 168.849 26.449 169.377 26.753C169.905 27.057 170.433 27.209 170.961 27.209C171.889 27.209 172.617 27.113 173.145 26.921L173.409 26.825C173.793 26.649 174.113 26.561 174.369 26.561C174.881 26.561 175.321 26.921 175.689 27.641C175.897 28.073 176.001 28.441 176.001 28.745C176.001 30.169 174.297 30.881 170.889 30.881C169.705 30.881 168.649 30.681 167.721 30.281C166.809 29.865 166.097 29.321 165.585 28.649C164.577 27.353 164.073 25.905 164.073 24.305C164.073 22.289 164.721 20.681 166.017 19.481C167.329 18.265 168.961 17.657 170.913 17.657C173.137 17.657 174.769 18.441 175.809 20.009C176.353 20.841 176.625 21.753 176.625 22.745ZM171.561 23.441C172.169 23.441 172.473 23.185 172.473 22.673C172.473 22.305 172.329 22.009 172.041 21.785C171.769 21.561 171.369 21.449 170.841 21.449C170.329 21.449 169.817 21.665 169.305 22.097C168.793 22.513 168.537 22.961 168.537 23.441H171.561ZM186.783 18.065C187.087 18.161 187.335 18.329 187.527 18.569C187.735 18.793 187.839 19.161 187.839 19.673C187.839 20.185 187.687 20.745 187.383 21.353C187.079 21.961 186.639 22.265 186.063 22.265C185.775 22.265 185.495 22.201 185.223 22.073C184.967 21.945 184.623 21.881 184.191 21.881C183.759 21.881 183.351 22.033 182.967 22.337C182.599 22.641 182.415 23.009 182.415 23.441V28.481C182.415 28.849 182.399 29.129 182.367 29.321C182.351 29.497 182.279 29.705 182.151 29.945C181.911 30.361 181.287 30.569 180.279 30.569C179.511 30.569 178.959 30.433 178.623 30.161C178.367 29.937 178.223 29.593 178.191 29.129C178.191 28.969 178.191 28.737 178.191 28.433V20.009C178.191 19.641 178.199 19.369 178.215 19.193C178.247 19.001 178.319 18.793 178.431 18.569C178.655 18.137 179.279 17.921 180.303 17.921C181.263 17.921 181.863 18.105 182.103 18.473C182.279 18.729 182.367 18.993 182.367 19.265C182.447 19.153 182.559 19.017 182.703 18.857C182.863 18.697 183.191 18.481 183.687 18.209C184.183 17.937 184.615 17.801 184.983 17.801C185.367 17.801 185.687 17.825 185.943 17.873C186.199 17.905 186.479 17.969 186.783 18.065Z" fill="white"/>
<path d="M49.1319 21.8735C49.1319 23.6405 46.0119 25.2095 41.1639 26.2175C41.0889 26.0495 41.0109 25.8815 40.9269 25.7165C40.7949 25.4525 40.6539 25.1945 40.5069 24.9395C41.1699 24.4625 41.5389 23.9315 41.5389 23.3825C41.5389 22.0415 39.3849 20.8535 36.0819 20.1305C33.5796 19.6119 31.0293 19.3605 28.4739 19.3805C26.0049 19.3633 23.5404 19.5955 21.1179 20.0735C17.6709 20.7935 15.4179 22.0085 15.4179 23.3735C15.4179 23.9555 15.8289 24.5165 16.5729 25.0175C16.4139 25.3025 16.2579 25.5905 16.1169 25.8905C16.0629 26.0045 16.0089 26.1245 15.9519 26.2415C10.9989 25.2455 7.80994 23.6615 7.80994 21.8735C7.80994 20.2025 10.6029 18.7055 15.0099 17.6975C15.5947 14.5546 17.2608 11.7153 19.7194 9.67199C22.178 7.62863 25.2741 6.50999 28.4709 6.50999C31.6678 6.50999 34.7639 7.62863 37.2225 9.67199C39.6811 11.7153 41.3472 14.5546 41.9319 17.6975C46.3389 18.7055 49.1319 20.2025 49.1319 21.8735Z" fill="#FFCE06"/>
<path d="M49.1319 21.9305C49.1319 23.6975 46.0149 25.2665 41.1639 26.2745C41.0919 26.1065 41.0109 25.9385 40.9269 25.7705C40.7979 25.5095 40.6569 25.2515 40.5099 24.9965C41.1699 24.5165 41.5389 23.9885 41.5389 23.4365C41.5389 22.0955 39.3879 20.9105 36.0819 20.1875C33.5797 19.6686 31.0293 19.4172 28.4739 19.4375C26.0058 19.4189 23.5421 19.6511 21.1209 20.1305C17.6709 20.8505 15.4029 22.0655 15.4029 23.4305C15.4029 24.0305 15.8169 24.5735 16.5579 25.0775C16.3989 25.3775 16.2579 25.6505 16.1019 25.9505C16.0479 26.0645 15.9909 26.1815 15.9369 26.2985C10.9989 25.3025 7.80994 23.7155 7.80994 21.9305C7.80994 20.2595 10.6029 18.7595 15.0099 17.7515C18.6399 16.9235 23.3289 16.4225 28.4739 16.4225C33.6189 16.4225 38.3169 16.9235 41.9319 17.7515C46.3389 18.7595 49.1319 20.2595 49.1319 21.9305Z" fill="#F3E455"/>
<path d="M15.0099 17.6975C15.7359 17.5175 16.4709 17.3645 17.2149 17.2295C17.1729 17.3735 17.1549 17.4485 17.1549 17.4485L15.0099 17.6975Z" fill="#FFEEA9"/>
<path d="M26.7549 6.86753C21.6789 8.11553 19.0599 12.5915 17.9079 15.3065C16.8159 15.4775 16.0389 15.6275 15.6609 15.7055C19.0479 6.95453 26.7549 6.86753 26.7549 6.86753Z" fill="#FEF8E2"/>
<path d="M17.9079 15.3065C17.6375 15.9326 17.406 16.5748 17.2149 17.2295C16.4709 17.3645 15.7359 17.5295 15.0099 17.6975C15.1913 17.0224 15.4086 16.3575 15.6609 15.7055C16.0389 15.6275 16.8159 15.4775 17.9079 15.3065Z" fill="#FBD7DC"/>
<path d="M15.4029 15.7595L15.6609 15.7055C15.4086 16.3575 15.1913 17.0224 15.0099 17.6975L15.4029 15.7595Z" fill="#ED2024"/>
<path d="M41.9319 17.6975C41.9319 17.6975 28.6539 15.1325 17.2149 17.2295C17.406 16.5748 17.6374 15.9326 17.9079 15.3065C22.4079 14.5955 32.2839 13.5215 41.4309 15.7595L41.9319 17.6975Z" fill="#ED2024"/>
<path d="M11.4549 22.2245C11.4549 22.2245 8.26591 19.9595 21.1209 16.9835C21.1209 16.9835 10.4169 17.1365 7.80991 21.4355C7.80991 21.4355 7.55191 23.5115 9.60991 24.1355L11.4549 22.2245Z" fill="#FEF8E2"/>
<path d="M49.1319 21.8915C49.1319 23.6555 46.0149 25.2275 41.1639 26.2325C41.0919 26.0645 41.0109 25.8965 40.9269 25.7315C40.7979 25.4675 40.6569 25.2095 40.5099 24.9575C41.1699 24.4775 41.5389 23.9495 41.5389 23.3975C41.5389 22.0565 39.3879 20.8715 36.0819 20.1455C33.5794 19.6296 31.029 19.3812 28.4739 19.4045C26.0059 19.3874 23.5424 19.6196 21.1209 20.0975C17.6709 20.8205 15.4029 22.0325 15.4029 23.3975C15.4029 23.9795 15.8169 24.5405 16.5579 25.0415C16.3989 25.3415 16.2579 25.6175 16.1019 25.9145L15.9399 26.2655C10.9989 25.2605 7.80994 23.6765 7.80994 21.8915C7.80994 20.2205 10.6029 18.7205 15.0099 17.7125C18.6399 16.8845 23.3289 16.3805 28.4739 16.3805C33.6189 16.3805 38.3169 16.8845 41.9319 17.7125C46.3389 18.7205 49.1319 20.2205 49.1319 21.8915Z" stroke="#172951" stroke-width="0.648" stroke-miterlimit="10"/>
<path d="M28.4739 16.3805C23.3289 16.3805 18.6399 16.8845 15.0099 17.7125C15.5947 14.5696 17.2608 11.7303 19.7194 9.68699C22.178 7.64364 25.2741 6.525 28.4709 6.525C31.6678 6.525 34.7639 7.64364 37.2225 9.68699C39.6811 11.7303 41.3472 14.5696 41.9319 17.7125C38.3169 16.8845 33.6129 16.3805 28.4739 16.3805Z" stroke="#172951" stroke-width="0.648" stroke-miterlimit="10"/>
<path d="M21.1209 20.0885C19.2387 21.3661 17.6771 23.0612 16.5579 25.0415C15.8169 24.5405 15.4029 23.9795 15.4029 23.3975C15.4029 22.0235 17.6709 20.8115 21.1209 20.0885Z" fill="#172951" stroke="#172951" stroke-width="0.216" stroke-miterlimit="10"/>
<path d="M41.5389 23.3975C41.5389 23.9495 41.1699 24.4775 40.5099 24.9575C39.4108 23.047 37.8977 21.4069 36.0819 20.1575C39.3879 20.8715 41.5389 22.0565 41.5389 23.3975Z" fill="#172951" stroke="#172951" stroke-width="0.432" stroke-miterlimit="10"/>
<path d="M51.3399 32.9045C50.4879 33.8735 47.3439 36.6695 41.9529 35.7035C40.2969 40.4045 34.9359 41.4905 28.5729 41.4905C22.2099 41.4905 16.8399 40.4045 15.1809 35.6915C9.79291 36.6575 6.63991 33.8615 5.79391 32.9045C4.94791 31.9475 3.07591 30.2045 3.84691 28.1765C4.61791 26.1485 7.79791 25.9175 11.2719 22.8125C14.6499 19.7945 18.2859 22.6745 18.2859 22.6745C19.1167 21.716 20.0699 20.8708 21.1209 20.1605C22.0209 19.9715 22.9869 19.8185 24.0219 19.7045C25.4069 19.5537 26.7988 19.4746 28.1919 19.4675H28.4739C31.0291 19.4478 33.5793 19.6982 36.0819 20.2145C37.1003 20.9136 38.0257 21.7392 38.8359 22.6715C38.8359 22.6715 42.4689 19.7945 45.8469 22.8125C49.3209 25.9145 52.5009 26.1575 53.2719 28.1765C54.0429 30.1955 52.1769 31.9235 51.3399 32.9045Z" fill="#A9DEED"/>
<path d="M14.6499 32.3285C14.6499 32.3285 15.0969 39.2045 27.9819 39.0815C40.8669 38.9585 42.4689 32.3285 42.4689 32.3285C42.4689 32.3285 43.7379 41.9585 28.1979 41.4065C12.6579 40.8545 14.6499 32.3285 14.6499 32.3285Z" fill="#68CCE6"/>
<path d="M19.4169 21.4355C19.4169 21.4355 26.7759 19.2785 37.5759 21.3245L36.2109 20.2115C36.2109 20.2115 26.3949 18.4115 20.7999 20.1755L19.4169 21.4355Z" fill="#DFF2F6"/>
<path d="M40.7409 25.2695C41.8411 24.991 42.9935 24.9913 44.0935 25.2705C45.1936 25.5497 46.2066 26.099 47.0409 26.8685C48.6066 27.765 50.3787 28.2385 52.1829 28.2425C52.1829 28.2425 55.0149 28.7165 53.0499 31.0235C51.0849 33.3305 48.9699 36.5315 42.0669 35.5745C42.0669 35.5745 44.6409 31.3085 40.7409 25.2695Z" fill="#78D0E8"/>
<path d="M40.9389 25.5245C40.9389 25.5245 44.5389 24.5285 45.9399 26.4665C47.3409 28.4045 48.5919 28.8065 49.4319 29.2085C50.2719 29.6105 51.8319 30.3485 49.9989 32.0645C48.1659 33.7805 46.6989 34.4645 42.7029 34.7255C42.7029 34.7255 43.6029 28.9685 40.9389 25.5245Z" fill="#33AFE5"/>
<path d="M46.3179 23.3435C45.4646 22.6505 44.3992 22.2714 43.2999 22.2695C42.0252 22.2916 40.8101 22.8129 39.9159 23.7215L38.9709 22.5695C39.7211 21.9749 40.6194 21.5963 41.5689 21.4745C44.2179 21.1565 46.0929 23.1035 46.3179 23.3435Z" fill="#DFF2F6"/>
<path d="M16.6119 25.2395C15.5117 24.9604 14.3592 24.9605 13.259 25.2397C12.1589 25.519 11.1458 26.0685 10.3119 26.8385C8.74349 27.7364 6.96813 28.21 5.16091 28.2125C5.16091 28.2125 2.3289 28.6865 4.29391 30.9935C6.25891 33.3005 8.38291 36.5045 15.2859 35.5445C15.2859 35.5445 12.7149 31.2785 16.6119 25.2395Z" fill="#78D0E8"/>
<path d="M16.4139 25.4945C16.4139 25.4945 12.8139 24.4985 11.4159 26.4365C10.0179 28.3745 8.76092 28.7765 7.92392 29.1785C7.08692 29.5805 5.52392 30.3185 7.35392 32.0375C9.18392 33.7565 10.6539 34.4375 14.6499 34.6955C14.6499 34.7045 13.7529 28.9385 16.4139 25.4945Z" fill="#33AFE5"/>
<path d="M11.0349 23.3045C11.8871 22.6091 12.953 22.2288 14.0529 22.2275C15.3306 22.251 16.5475 22.777 17.4399 23.6915L18.2589 22.7915C17.59 22.1048 16.7277 21.6381 15.7869 21.4535C13.1109 20.9555 11.1399 23.1935 11.0349 23.3045Z" fill="#DFF2F6"/>
<path d="M18.2829 22.6025C18.2829 22.6025 14.6499 19.7225 11.2719 22.7435C7.79788 25.8455 4.61788 26.0885 3.84688 28.1045C3.07588 30.1205 4.94188 31.8545 5.79388 32.8235C6.64588 33.7925 9.78988 36.5885 15.1809 35.6225" stroke="#162851" stroke-width="0.648" stroke-miterlimit="10"/>
<path d="M42.4689 32.1905C42.4689 39.8255 36.2409 41.4065 28.5579 41.4065C20.8749 41.4065 14.6499 39.8255 14.6499 32.1905C14.6545 30.1464 15.0942 28.1266 15.9399 26.2655L16.1049 25.9145C16.2489 25.6145 16.4049 25.3145 16.5609 25.0415C17.6793 23.0615 19.2398 21.3664 21.1209 20.0885C23.5426 19.6136 26.0061 19.3845 28.4739 19.4045C31.0293 19.3842 33.5796 19.6356 36.0819 20.1545C37.8977 21.4039 39.4107 23.044 40.5099 24.9545C40.6569 25.2065 40.8099 25.4645 40.9269 25.7285C41.0109 25.8935 41.0919 26.0615 41.1639 26.2295C42.0197 28.1005 42.4647 30.1331 42.4689 32.1905V32.1905Z" stroke="#162851" stroke-width="0.648" stroke-miterlimit="10"/>
<path d="M16.4139 25.3055C15.6784 25.0548 14.9003 24.9528 14.1249 25.0055C11.7009 25.1765 11.3709 26.8415 8.65295 27.6575C6.45095 28.3205 4.87595 27.7655 4.13195 28.9235C3.92541 29.2639 3.82126 29.6565 3.83195 30.0545" stroke="#162851" stroke-width="0.648" stroke-miterlimit="10" stroke-linecap="round"/>
<path d="M40.6929 25.3295C41.4285 25.079 42.2066 24.9771 42.9819 25.0295C45.4059 25.2005 45.7359 26.8655 48.4539 27.6815C50.6589 28.3445 52.2309 27.7895 52.9749 28.9475C53.1814 29.2879 53.2856 29.6805 53.2749 30.0785" stroke="#162851" stroke-width="0.648" stroke-miterlimit="10" stroke-linecap="round"/>
<path d="M38.8329 22.6025C38.8329 22.6025 42.4689 19.7225 45.8469 22.7435C49.3209 25.8455 52.5009 26.0885 53.2719 28.1045C54.0429 30.1205 52.1769 31.8545 51.3399 32.8235C50.5029 33.7925 47.3439 36.5885 41.9529 35.6195" stroke="#162851" stroke-width="0.648" stroke-miterlimit="10"/>
<path d="M32.3619 31.9565C32.3619 31.9565 28.9539 34.7735 25.4619 32.9105C25.4619 32.9105 25.7769 36.8375 28.2339 36.9365C28.2399 36.9365 32.1399 37.4045 32.3619 31.9565Z" fill="#162851"/>
<path d="M25.7079 35.2385C26.6304 34.7854 27.6347 34.5227 28.6608 34.466C29.687 34.4093 30.7141 34.5598 31.6809 34.9085C31.6809 34.9085 30.7989 37.1705 28.5249 37.1195C28.5399 37.1195 26.9259 37.4435 25.7079 35.2385Z" fill="#ED2024"/>
<path d="M26.2059 35.0045C27.8431 34.3251 29.668 34.2475 31.3569 34.7855L30.9969 35.4155C30.7193 35.28 30.4314 35.1666 30.1359 35.0765C28.858 34.7095 27.4993 34.7346 26.2359 35.1485L26.2059 35.0045Z" fill="#F6A2A9"/>
<path d="M32.4129 31.7915C28.8129 34.9175 25.5129 33.8105 23.8929 30.7625C22.2729 27.7145 25.0779 23.7665 25.3929 20.7875C25.7079 17.8085 22.8399 16.4045 22.8399 16.4045C22.4409 13.7525 24.7509 13.6415 25.7619 13.7045C26.7729 13.7675 31.3209 15.3485 30.1749 22.5605C29.0289 29.7725 32.7069 29.0735 32.7069 29.0735" fill="#A9DEED"/>
<path d="M25.7409 15.8495C25.7409 15.8495 28.3899 16.2545 28.0629 21.6905C27.7359 27.1265 27.3579 30.7445 31.8009 31.9565C31.8009 31.9565 30.5199 34.1555 27.0009 33.4955C23.4819 32.8355 23.1219 29.0795 23.4129 28.1045C23.4129 28.1045 23.8449 24.3065 25.0149 22.4945C25.0149 22.4945 26.3199 18.2315 23.5149 16.8245C23.4999 16.8365 25.1979 17.0255 25.7409 15.8495Z" fill="#68CCE6"/>
<path d="M28.1919 24.9425C27.9081 25.0676 27.614 25.168 27.3129 25.2425C26.3321 25.4597 25.3112 25.412 24.3549 25.1045L24.5349 24.5885C24.9512 24.7029 25.3739 24.7921 25.8009 24.8555C26.5924 24.9706 27.3941 24.9998 28.1919 24.9425V24.9425Z" fill="#33AFE5"/>
<path d="M28.1259 28.1375C27.7531 28.3296 27.3609 28.4814 26.9559 28.5905C25.8344 28.8738 24.6559 28.8375 23.5539 28.4855C23.5989 28.2185 23.6469 27.9545 23.6949 27.6875C24.0909 27.7895 24.5139 27.8795 24.9609 27.9515C26.0065 28.1242 27.0673 28.1865 28.1259 28.1375Z" fill="#33AFE5"/>
<path d="M29.0709 30.5495C28.6813 30.8674 28.2426 31.1197 27.7719 31.2965C26.5077 31.7298 25.1271 31.6741 23.9019 31.1405L24.0399 30.3425C24.4565 30.4546 24.8792 30.5428 25.3059 30.6065C26.5557 30.7916 27.8273 30.7724 29.0709 30.5495V30.5495Z" fill="#33AFE5"/>
<path d="M25.3688 16.1733C26.0123 15.4529 26.0811 14.4645 25.5226 13.9656C24.964 13.4667 23.9896 13.6463 23.3462 14.3667C22.7027 15.0872 22.6339 16.0756 23.1924 16.5745C23.751 17.0733 24.7254 16.8937 25.3688 16.1733Z" fill="#33AFE5"/>
<path d="M25.9119 14.2415C25.9119 14.2415 30.0759 15.5555 29.5419 20.8415C29.0079 26.1275 28.7379 29.4125 31.7979 29.3045C31.7979 29.3045 29.2509 28.9025 29.8959 23.6825C30.5409 18.4625 29.9259 14.9885 25.9119 14.2415Z" fill="#DFF2F6"/>
<path d="M32.3619 31.8365C28.7619 34.9625 25.5219 33.8105 23.8929 30.7625C22.2639 27.7145 25.0779 23.7665 25.3929 20.7875C25.7079 17.8085 22.8399 16.4045 22.8399 16.4045C22.4409 13.7525 24.7509 13.6415 25.7619 13.7045C26.7729 13.7675 31.3209 15.3485 30.1749 22.5605C29.0289 29.7725 32.7069 29.0735 32.7069 29.0735" stroke="#162851" stroke-width="0.648" stroke-miterlimit="10" stroke-linecap="round"/>
<path d="M31.6779 31.4525C32.2229 31.644 32.6975 31.9953 33.0399 32.4605" stroke="#162851" stroke-width="0.648" stroke-miterlimit="10" stroke-linecap="round"/>
<path d="M32.5599 31.9565C32.5599 31.9565 32.0229 36.8675 28.7199 36.9635C25.4169 37.0595 25.1979 32.4635 25.1979 32.4635" stroke="#162851" stroke-width="0.648" stroke-miterlimit="10" stroke-linecap="round"/>
<path d="M22.8399 16.4045C26.9559 17.7635 25.7619 13.7045 25.7619 13.7045" stroke="#162851" stroke-width="0.648" stroke-miterlimit="10" stroke-linecap="round"/>
<path d="M24.4419 24.2045C24.4419 24.2045 25.3959 25.2575 28.0659 24.6635" stroke="#162851" stroke-width="0.648" stroke-miterlimit="10" stroke-linecap="round"/>
<path d="M23.5119 27.3455C24.2198 27.7504 25.0047 28.0023 25.816 28.085C26.6273 28.1677 27.4469 28.0793 28.2219 27.8255" stroke="#162851" stroke-width="0.648" stroke-miterlimit="10" stroke-linecap="round"/>
<path d="M23.5149 29.7545C23.5149 29.7545 26.3319 31.6475 29.1729 30.2045" stroke="#162851" stroke-width="0.648" stroke-miterlimit="10" stroke-linecap="round"/>
<path d="M35.2599 28.7465C36.1861 28.7465 36.9369 27.9997 36.9369 27.0785C36.9369 26.1573 36.1861 25.4105 35.2599 25.4105C34.3337 25.4105 33.5829 26.1573 33.5829 27.0785C33.5829 27.9997 34.3337 28.7465 35.2599 28.7465Z" fill="#162851"/>
<path d="M34.9509 27.2105C35.2243 27.2105 35.4459 26.9903 35.4459 26.7185C35.4459 26.4468 35.2243 26.2265 34.9509 26.2265C34.6775 26.2265 34.4559 26.4468 34.4559 26.7185C34.4559 26.9903 34.6775 27.2105 34.9509 27.2105Z" fill="white"/>
<path d="M20.4549 28.7465C21.3811 28.7465 22.1319 27.9997 22.1319 27.0785C22.1319 26.1573 21.3811 25.4105 20.4549 25.4105C19.5287 25.4105 18.7779 26.1573 18.7779 27.0785C18.7779 27.9997 19.5287 28.7465 20.4549 28.7465Z" fill="#162851"/>
<path d="M20.7609 27.2105C21.0343 27.2105 21.2559 26.9903 21.2559 26.7185C21.2559 26.4468 21.0343 26.2265 20.7609 26.2265C20.4875 26.2265 20.2659 26.4468 20.2659 26.7185C20.2659 26.9903 20.4875 27.2105 20.7609 27.2105Z" fill="white"/>
</svg>
