<svg width="24" height="24" viewBox="0 0 24 24" fill="none" xmlns="http://www.w3.org/2000/svg">
<path d="M12 15.9844C11.4688 15.9844 11 15.7969 10.5938 15.4219C10.1875 15.0156 9.98438 14.5469 9.98438 14.0156C9.98438 13.4531 10.1875 12.9688 10.5938 12.5625L19.0781 6.9375L13.4062 15.4219C13.0312 15.7969 12.5625 15.9844 12 15.9844ZM20.3906 8.57812C20.8281 9.26562 21.2031 10.1406 21.5156 11.2031C21.8281 12.2656 21.9844 13.2031 21.9844 14.0156C21.9844 15.8594 21.5469 17.5156 20.6719 18.9844C20.2656 19.6719 19.6875 20.0156 18.9375 20.0156H5.0625C4.3125 20.0156 3.73438 19.6719 3.32812 18.9844C2.45313 17.5156 2.01562 15.8594 2.01562 14.0156C2.01562 11.2656 2.98438 8.92188 4.92188 6.98438C6.89062 5.01562 9.26562 4.03125 12.0469 4.03125C12.8594 4.03125 13.7812 4.1875 14.8125 4.5C15.875 4.8125 16.75 5.1875 17.4375 5.625L15.5625 6.84375C14.4375 6.28125 13.25 6 12 6C9.8125 6 7.92188 6.78125 6.32812 8.34375C4.76562 9.90625 3.98438 11.7969 3.98438 14.0156C3.98438 15.4531 4.34375 16.7812 5.0625 18H18.9375C19.6562 16.7812 20.0156 15.4531 20.0156 14.0156C20.0156 12.7344 19.7344 11.5312 19.1719 10.4062L20.3906 8.57812Z" fill="#006EE9"/>
</svg>
