<svg width="25" height="24" viewBox="0 0 25 24" fill="none" xmlns="http://www.w3.org/2000/svg">
<path d="M17.4 8.72495C17.05 8.52495 16.6 8.52495 16.2 8.72495L13.4 10.375L11.5 11.425L8.75002 13.075C8.40002 13.275 7.95002 13.275 7.55002 13.075L5.40002 11.775C5.05002 11.575 4.80002 11.175 4.80002 10.725V8.22495C4.80002 7.82495 5.00002 7.42495 5.40002 7.17495L7.55002 5.92495C7.90002 5.72495 8.35002 5.72495 8.75002 5.92495L10.9 7.22495C11.25 7.42495 11.5 7.82495 11.5 8.27495V9.92495L13.4 8.82495V7.12495C13.4 6.72495 13.2 6.32495 12.8 6.07495L8.80002 3.72495C8.45002 3.52495 8.00002 3.52495 7.60002 3.72495L3.50002 6.12495C3.10002 6.32495 2.90002 6.72495 2.90002 7.12495V11.825C2.90002 12.225 3.10002 12.625 3.50002 12.875L7.55002 15.225C7.90002 15.425 8.35002 15.425 8.75002 15.225L11.5 13.625L13.4 12.525L16.15 10.925C16.5 10.725 16.95 10.725 17.35 10.925L19.5 12.175C19.85 12.375 20.1 12.775 20.1 13.225V15.725C20.1 16.125 19.9 16.525 19.5 16.775L17.4 18.025C17.05 18.225 16.6 18.225 16.2 18.025L14.05 16.775C13.7 16.575 13.45 16.175 13.45 15.725V14.125L11.55 15.225V16.875C11.55 17.275 11.75 17.675 12.15 17.925L16.2 20.275C16.55 20.475 17 20.475 17.4 20.275L21.45 17.925C21.8 17.725 22.05 17.325 22.05 16.875V12.125C22.05 11.725 21.85 11.325 21.45 11.075L17.4 8.72495Z" fill="#8247E5"/>
</svg>
