<svg width="100" height="100" viewBox="0 0 100 100" fill="none" xmlns="http://www.w3.org/2000/svg">
<path d="M56.1609 58.56C58.0009 59.8 59.3209 60.7 60.1209 61.26C61.5609 62.34 62.2809 63.38 62.2809 64.38C62.2809 65.34 61.6809 66.7 60.4809 68.46C59.2809 70.22 58.0609 71.1 56.8209 71.1C56.0609 71.1 54.9009 70.56 53.3409 69.48C53.1409 69.36 52.5809 68.98 51.6609 68.34C50.7409 67.7 50.0209 67.22 49.5009 66.9C45.7809 69.78 41.6009 71.22 36.9609 71.22C30.7609 71.22 25.5209 69.02 21.2409 64.62C17.0009 60.22 14.8809 54.98 14.8809 48.9C14.8809 45.58 15.4809 42.48 16.6809 39.6C17.8809 36.68 19.4809 34.24 21.4809 32.28C23.4809 30.32 25.7809 28.78 28.3809 27.66C30.9809 26.54 33.6609 25.98 36.4209 25.98C42.3409 25.98 47.4809 28.12 51.8409 32.4C56.2009 36.68 58.3809 42.1 58.3809 48.66C58.3809 51.98 57.6409 55.28 56.1609 58.56ZM25.5009 48.6C25.5009 52.16 26.6409 55.06 28.9209 57.3C31.2409 59.5 33.8209 60.6 36.6609 60.6C39.5009 60.6 42.0609 59.52 44.3409 57.36C46.6209 55.2 47.7609 52.3 47.7609 48.66C47.7609 45.02 46.6009 42.1 44.2809 39.9C42.0009 37.7 39.4409 36.6 36.6009 36.6C33.7609 36.6 31.2009 37.72 28.9209 39.96C26.6409 42.16 25.5009 45.04 25.5009 48.6ZM76.2655 28.02C77.3055 26.98 78.4255 26.46 79.6255 26.46C80.8655 26.46 81.8255 26.56 82.5055 26.76C83.1855 26.96 83.7055 27.2 84.0655 27.48C84.4255 27.72 84.7055 28.14 84.9055 28.74C85.1055 29.42 85.2055 30.48 85.2055 31.92V65.34C85.2055 66.26 85.1655 66.96 85.0855 67.44C85.0455 67.88 84.8655 68.4 84.5455 69C83.9855 70.08 82.4255 70.62 79.8655 70.62C77.3855 70.62 75.8455 70.1 75.2455 69.06C74.9255 68.46 74.7255 67.92 74.6455 67.44C74.6055 66.92 74.5855 66.18 74.5855 65.22V43.8L73.8055 44.52C72.1655 45.76 70.7655 46.38 69.6055 46.38C68.4455 46.38 67.2255 45.68 65.9455 44.28C64.7055 42.88 64.0855 41.64 64.0855 40.56C64.0855 39.48 64.8055 38.3 66.2455 37.02L76.0855 28.14L76.2655 28.02Z" fill="#006EE9"/>
</svg>
