<svg width="100" height="100" viewBox="0 0 100 100" fill="none" xmlns="http://www.w3.org/2000/svg">
<path d="M49.31 60.02C51.15 61.26 52.47 62.16 53.27 62.72C54.71 63.8 55.43 64.84 55.43 65.84C55.43 66.8 54.83 68.16 53.63 69.92C52.43 71.68 51.21 72.56 49.97 72.56C49.21 72.56 48.05 72.02 46.49 70.94C46.29 70.82 45.73 70.44 44.81 69.8C43.89 69.16 43.17 68.68 42.65 68.36C38.93 71.24 34.75 72.68 30.11 72.68C23.91 72.68 18.67 70.48 14.39 66.08C10.15 61.68 8.03003 56.44 8.03003 50.36C8.03003 47.04 8.63003 43.94 9.83003 41.06C11.03 38.14 12.63 35.7 14.63 33.74C16.63 31.78 18.93 30.24 21.53 29.12C24.13 28 26.81 27.44 29.57 27.44C35.49 27.44 40.63 29.58 44.99 33.86C49.35 38.14 51.53 43.56 51.53 50.12C51.53 53.44 50.79 56.74 49.31 60.02ZM18.65 50.06C18.65 53.62 19.79 56.52 22.07 58.76C24.39 60.96 26.97 62.06 29.81 62.06C32.65 62.06 35.21 60.98 37.49 58.82C39.77 56.66 40.91 53.76 40.91 50.12C40.91 46.48 39.75 43.56 37.43 41.36C35.15 39.16 32.59 38.06 29.75 38.06C26.91 38.06 24.35 39.18 22.07 41.42C19.79 43.62 18.65 46.5 18.65 50.06Z" fill="#006EE9"/>
<path d="M86.6947 61.4C88.3347 61.4 89.4947 61.6 90.1747 62C90.8947 62.36 91.3747 62.94 91.6147 63.74C91.8547 64.5 91.9747 65.52 91.9747 66.8C91.9747 68.04 91.8347 69.04 91.5547 69.8C91.3147 70.56 90.8947 71.08 90.2947 71.36C89.4147 71.84 88.1747 72.08 86.5747 72.08H63.1147C61.6747 72.08 60.4347 71.54 59.3947 70.46C58.3547 69.38 57.8347 68.12 57.8347 66.68C57.8347 64.52 58.5747 62.54 60.0547 60.74C61.5747 58.9 63.3947 57.34 65.5147 56.06C67.6347 54.74 69.7547 53.46 71.8747 52.22C73.9947 50.94 75.7947 49.5 77.2747 47.9C78.7947 46.3 79.5547 44.6 79.5547 42.8C79.5547 42.44 79.4147 41.94 79.1347 41.3C78.8547 40.62 78.5347 40.08 78.1747 39.68C77.8547 39.24 77.3347 38.84 76.6147 38.48C75.8947 38.12 74.8947 37.94 73.6147 37.94C72.3347 37.94 71.2147 38.42 70.2547 39.38C69.3347 40.3 68.8147 41.22 68.6947 42.14L68.4547 43.52V43.88C68.4547 44.76 68.4147 45.42 68.3347 45.86C68.2947 46.3 68.1147 46.8 67.7947 47.36C67.1947 48.32 65.6347 48.8 63.1147 48.8C60.3147 48.8 58.6547 48.04 58.1347 46.52C57.9347 45.88 57.8347 44.86 57.8347 43.46C57.8347 39.3 59.3147 35.58 62.2747 32.3C65.2747 28.98 69.1747 27.32 73.9747 27.32C78.8147 27.32 82.7347 29 85.7347 32.36C88.7347 35.68 90.2347 39.48 90.2347 43.76C90.2347 46.04 89.7347 48.2 88.7347 50.24C87.7347 52.28 86.5347 53.92 85.1347 55.16C82.1747 57.8 79.5347 59.58 77.2147 60.5L75.7147 61.1V61.4H86.6947Z" fill="#006EE9"/>
</svg>
