<svg width="100" height="100" viewBox="0 0 100 100" fill="none" xmlns="http://www.w3.org/2000/svg">
<path d="M50.57 59.96C52.41 61.2 53.73 62.1 54.53 62.66C55.97 63.74 56.69 64.78 56.69 65.78C56.69 66.74 56.09 68.1 54.89 69.86C53.69 71.62 52.47 72.5 51.23 72.5C50.47 72.5 49.31 71.96 47.75 70.88C47.55 70.76 46.99 70.38 46.07 69.74C45.15 69.1 44.43 68.62 43.91 68.3C40.19 71.18 36.01 72.62 31.37 72.62C25.17 72.62 19.93 70.42 15.65 66.02C11.41 61.62 9.29004 56.38 9.29004 50.3C9.29004 46.98 9.89004 43.88 11.09 41C12.29 38.08 13.89 35.64 15.89 33.68C17.89 31.72 20.19 30.18 22.79 29.06C25.39 27.94 28.07 27.38 30.83 27.38C36.75 27.38 41.89 29.52 46.25 33.8C50.61 38.08 52.79 43.5 52.79 50.06C52.79 53.38 52.05 56.68 50.57 59.96ZM19.91 50C19.91 53.56 21.05 56.46 23.33 58.7C25.65 60.9 28.23 62 31.07 62C33.91 62 36.47 60.92 38.75 58.76C41.03 56.6 42.17 53.7 42.17 50.06C42.17 46.42 41.01 43.5 38.69 41.3C36.41 39.1 33.85 38 31.01 38C28.17 38 25.61 39.12 23.33 41.36C21.05 43.56 19.91 46.44 19.91 50Z" fill="#006EE9"/>
<path d="M80.6947 29.36C81.0147 28.8 81.5547 28.42 82.3147 28.22C83.1147 27.98 84.1347 27.86 85.3747 27.86C86.6547 27.86 87.6747 28 88.4347 28.28C89.1947 28.52 89.7347 28.94 90.0547 29.54C90.3747 30.1 90.5547 30.62 90.5947 31.1C90.6747 31.58 90.7147 32.28 90.7147 33.2V66.56C90.7147 68.12 90.5147 69.28 90.1147 70.04C89.7547 70.76 89.1747 71.24 88.3747 71.48C87.6147 71.72 86.6547 71.84 85.4947 71.84C84.3347 71.84 83.4147 71.74 82.7347 71.54C82.0547 71.34 81.5347 71.1 81.1747 70.82C80.8147 70.54 80.5547 70.14 80.3947 69.62C80.1547 68.94 80.0347 67.9 80.0347 66.5V59.18H63.7747C60.9747 59.18 59.3147 58.42 58.7947 56.9C58.5947 56.26 58.4947 55.4 58.4947 54.32C58.4947 53.24 58.5547 52.44 58.6747 51.92L63.6547 31.82C63.8947 30.9 64.0947 30.2 64.2547 29.72C64.4547 29.24 64.8147 28.78 65.3347 28.34C65.8947 27.9 66.5947 27.68 67.4347 27.68C68.2747 27.68 69.1947 27.82 70.1947 28.1C72.9947 28.86 74.3947 30.14 74.3947 31.94C74.3947 32.58 74.2547 33.42 73.9747 34.46C73.9347 34.54 73.9147 34.6 73.9147 34.64L70.2547 49.28H80.0347V32.9C80.0347 31.98 80.0547 31.3 80.0947 30.86C80.1747 30.42 80.3747 29.92 80.6947 29.36Z" fill="#006EE9"/>
</svg>
