<svg width="24" height="24" viewBox="0 0 24 24" fill="none" xmlns="http://www.w3.org/2000/svg">
<path d="M12 1.5C6.1996 1.5 1.5 6.1996 1.5 12C1.5 17.8004 6.1996 22.5 12 22.5C17.8004 22.5 22.5 17.8004 22.5 12C22.5 6.1996 17.8004 1.5 12 1.5ZM17.123 8.69758L15.4294 16.8266C15.3024 17.4194 14.9637 17.5464 14.4556 17.2923L11.8306 15.3448L10.5605 16.5726C10.4335 16.6996 10.3065 16.8266 10.0524 16.8266L10.2218 14.1593L15.0907 9.75605C15.3024 9.58669 15.0484 9.45968 14.752 9.62903L8.73992 13.4395L6.15726 12.6351C5.60685 12.4657 5.60685 12.0423 6.28427 11.7883L16.4032 7.89315C16.869 7.72379 17.2923 8.02016 17.123 8.69758Z" fill="#006EE9"/>
</svg>
