<svg width="32" height="32" viewBox="0 0 32 32" fill="none" xmlns="http://www.w3.org/2000/svg">
<path d="M16 2C8.26613 2 2 8.26613 2 16C2 23.7339 8.26613 30 16 30C23.7339 30 30 23.7339 30 16C30 8.26613 23.7339 2 16 2ZM22.8306 11.5968L20.5726 22.4355C20.4032 23.2258 19.9516 23.3952 19.2742 23.0565L15.7742 20.4597L14.0806 22.0968C13.9113 22.2661 13.7419 22.4355 13.4032 22.4355L13.629 18.879L20.121 13.0081C20.4032 12.7823 20.0645 12.6129 19.6694 12.8387L11.6532 17.9194L8.20968 16.8468C7.47581 16.621 7.47581 16.0565 8.37903 15.7177L21.871 10.5242C22.4919 10.2984 23.0565 10.6935 22.8306 11.5968Z" fill="white"/>
</svg>
