<svg width="32" height="32" viewBox="0 0 32 32" fill="none" xmlns="http://www.w3.org/2000/svg">
<path d="M7.60015 8.43917H24.4009C24.5971 8.43907 24.7932 8.45153 24.9879 8.47644C24.9219 8.01325 24.7628 7.56822 24.5201 7.16819C24.2775 6.76815 23.9564 6.42139 23.5761 6.14881C23.1959 5.87623 22.7643 5.68349 22.3076 5.58219C21.8508 5.48089 21.3782 5.47315 20.9184 5.55942L7.10137 7.91834H7.08562C6.21832 8.0842 5.44706 8.5749 4.92935 9.29023C5.70933 8.73545 6.643 8.43793 7.60015 8.43917ZM24.4009 9.69922H7.60015C6.70928 9.70019 5.85518 10.0545 5.22524 10.6845C4.5953 11.3144 4.24097 12.1685 4.24 13.0594V23.1398C4.24097 24.0307 4.5953 24.8848 5.22524 25.5147C5.85518 26.1447 6.70928 26.499 7.60015 26.5H24.4009C25.2917 26.499 26.1458 26.1447 26.7758 25.5147C27.4057 24.8848 27.7601 24.0307 27.761 23.1398V13.0594C27.7601 12.1685 27.4057 11.3144 26.7758 10.6845C26.1458 10.0545 25.2917 9.70019 24.4009 9.69922ZM21.907 19.7797C21.5747 19.7797 21.2499 19.6811 20.9736 19.4965C20.6973 19.3119 20.482 19.0495 20.3548 18.7425C20.2277 18.4355 20.1944 18.0977 20.2592 17.7718C20.3241 17.4459 20.4841 17.1466 20.719 16.9116C20.954 16.6766 21.2534 16.5166 21.5793 16.4518C21.9052 16.387 22.243 16.4202 22.55 16.5474C22.8569 16.6746 23.1193 16.8899 23.3039 17.1662C23.4886 17.4425 23.5871 17.7673 23.5871 18.0996C23.5871 18.5452 23.4101 18.9725 23.095 19.2876C22.7799 19.6027 22.3526 19.7797 21.907 19.7797Z" fill="url(#paint0_linear)"/>
<path d="M4.26625 16.6033V11.3793C4.26625 10.2416 4.89628 8.33417 7.083 7.92098C8.93895 7.57289 10.7765 7.57289 10.7765 7.57289C10.7765 7.57289 11.9841 8.41293 10.9865 8.41293C9.989 8.41293 10.0153 9.69923 10.9865 9.69923C11.9578 9.69923 10.9865 10.933 10.9865 10.933L7.07512 15.3695L4.26625 16.6033Z" fill="url(#paint1_linear)"/>
<defs>
<linearGradient id="paint0_linear" x1="16.0005" y1="5.5" x2="16.0005" y2="26.5" gradientUnits="userSpaceOnUse">
<stop stop-color="#006EE9"/>
<stop offset="1" stop-color="#A1EBF7"/>
</linearGradient>
<linearGradient id="paint1_linear" x1="16.0005" y1="5.5" x2="16.0005" y2="26.5" gradientUnits="userSpaceOnUse">
<stop stop-color="#006EE9"/>
<stop offset="1" stop-color="#A1EBF7"/>
</linearGradient>
</defs>
</svg>
