<svg width="840" height="600" viewBox="0 0 840 600" fill="none" xmlns="http://www.w3.org/2000/svg">
<path d="M257.295 543.5C244.895 535.9 226.462 479.667 218.795 452.5C247.595 470.1 277.462 474.833 288.795 475V548.5L281.295 563H244.295C244.695 552.2 253.128 545.5 257.295 543.5Z" fill="#71504E"/>
<path d="M289.795 500C263.395 503.6 238.128 493.167 228.795 487.5L220.795 453.5C225.995 460.3 268.962 472.333 289.795 477.5V500Z" fill="#5E3636"/>
<path d="M258.295 543C250.295 542.2 245.962 557.333 244.795 565H280.795L287.795 549.5L258.295 543Z" fill="#4C4C4C"/>
<path d="M257.295 543.5C244.895 535.9 226.462 479.667 218.795 452.5C247.595 470.1 277.462 474.833 288.795 475V548.5M257.295 543.5L288.795 548.5M257.295 543.5C253.128 545.5 244.695 552.2 244.295 563C246.295 563 269.795 563 281.295 563L288.795 548.5" stroke="black" stroke-width="10"/>
<path d="M230.868 144.598L346.235 83.6809C362.156 67.0448 408.4 48.3049 466.01 106.433C538.022 179.093 640.897 150.47 660.737 144.598C680.577 138.726 725.401 131.387 749.65 227.533C773.899 323.68 787.126 442.578 665.881 549L658.295 563.5H620.295C620.295 550.7 630.111 545.564 635.018 544.596L650.45 488.083C625.04 480.886 590.941 463.015 573.021 433.037C554.741 431.08 510.54 431.129 479.972 446.982C449.403 462.835 418.737 469.245 407.225 470.468C402.081 489.061 387.238 530.798 369.014 549L360.295 563H322.795C325.195 547 335.992 545.532 341.091 546.798L342.399 479.275C285.382 484.902 169.437 465.477 161.795 342.762L230.868 144.598Z" fill="#7E5656"/>
<path d="M632.295 545.041C624.295 544.241 621.962 555.374 620.795 563.041L660.795 563.041L667.795 547.541L632.295 545.041Z" fill="#4C4C4C"/>
<path d="M563.295 413C536.895 401.8 451.962 429.333 412.795 444.5C412.795 454.1 409.128 465.833 407.295 470.5C420.295 470.5 452.595 466.4 477.795 450C502.995 433.6 552.295 431.5 573.795 432.5L563.295 413Z" fill="#6B4343"/>
<path d="M341.795 454C240.995 471.6 186.128 409.667 171.295 376.5C190.095 471.7 292.795 484.167 341.795 478.5V454Z" fill="#6B4343"/>
<path d="M671.295 454.5C584.895 447.3 577.295 362.5 584.295 321C519.495 409.8 600.629 470.667 649.295 490L637.295 542L645.295 543.5L671.295 454.5Z" fill="#6B4343"/>
<path d="M369.795 98.5L284.795 137.5C273.595 137.5 254.462 144.5 246.295 148L231.295 143.5C263.795 125.167 332.195 87.4001 345.795 83.0001C362.795 77.5001 413.295 54.0001 443.295 88.5001C473.295 123 557.795 180.567 654.295 148C731.495 121.946 755.462 225.811 757.795 281C735.295 180 693.295 159.5 629.295 175.5C565.295 191.5 496.795 177 449.295 128.5C411.295 89.7 380.462 92.3333 369.795 98.5Z" fill="#A06D6C"/>
<path d="M334.295 547C326.295 546.2 323.962 557.334 322.795 565L362.795 565L369.795 549.5L334.295 547Z" fill="#4C4C4C"/>
<path d="M665.881 549C787.126 442.578 773.899 323.68 749.65 227.533C725.401 131.387 680.577 138.726 660.737 144.598C640.897 150.47 538.022 179.093 466.01 106.433C408.4 48.305 368.795 70 346.235 83.681L230.868 144.598L161.795 342.762C169.437 465.477 285.382 484.902 342.399 479.276M665.881 549L635.018 544.596M665.881 549L658.295 563.5H620.295C620.295 550.7 630.111 545.564 635.018 544.596M635.018 544.596L650.45 488.083C625.04 480.886 590.941 463.015 573.021 433.037M585.785 315.607C553.641 366.18 556.219 404.93 573.021 433.037M573.021 433.037C554.741 431.08 510.54 431.129 479.972 446.982C449.403 462.835 418.737 469.245 407.225 470.468M407.225 470.468C411.633 456.768 419.129 416.01 413.838 362.579M407.225 470.468C402.081 489.061 387.238 530.798 369.014 549M369.014 549L341.091 546.798M369.014 549L360.295 563H322.795C325.195 547 335.992 545.532 341.091 546.798M341.091 546.798L342.399 479.276M343.295 433.037L342.399 479.276" stroke="black" stroke-width="10"/>
<path d="M540.795 487.5C507.595 485.9 483.295 462.5 475.295 451C490.095 433.4 545.795 431.333 571.795 432.5L622.295 477.5C602.695 513.9 571.129 540.333 557.795 549L549.295 563H512.795C512.395 549.8 521.962 543.5 526.795 542L540.795 487.5Z" fill="#714D4D"/>
<path d="M523.295 545.041C515.295 544.241 512.962 555.374 511.795 563.041L551.795 563.041L558.795 547.541L523.295 545.041Z" fill="#4C4C4C"/>
<path d="M499.795 471C490.595 467.8 480.295 456.333 476.295 451C489.095 437.8 544.962 430.833 571.295 429C574.095 440.6 604.795 465.5 619.795 476.5C594.195 458.9 529.129 465.5 499.795 471Z" fill="#5D3636"/>
<path d="M526.795 542L540.795 487.5C507.595 485.9 483.295 462.5 475.295 451C490.095 433.4 545.795 431.333 571.795 432.5L594.795 457L622.295 477.5C602.695 513.9 571.128 540.333 557.795 549M526.795 542L557.795 549M526.795 542C521.962 543.5 512.395 549.8 512.795 563H549.295L557.795 549" stroke="black" stroke-width="10"/>
<path d="M740.295 193C759.295 193 797.895 181.7 800.295 136.5C802.695 91.2999 773.629 84.3333 758.795 86.5C738.795 91.9999 749.295 92.5 721.295 113.5C698.895 130.3 677.628 102.5 669.795 86.5C686.795 95.4999 686.295 89.5001 715.295 64.0001C738.495 43.6001 753.962 70.5 758.795 86.5C771.129 82.8333 799.995 83.1001 816.795 113.5C837.795 151.5 810.295 216.5 749.295 219.5L740.295 193Z" fill="#8E5E5E"/>
<path d="M66.7952 209.5C79.5952 193.9 115.795 190.667 132.295 191C127.895 207.4 132.129 229.833 134.795 239C116.795 244.2 81.9618 221.5 66.7952 209.5Z" fill="#A47170"/>
<path d="M66.7952 209.5C79.5952 193.9 115.795 190.667 132.295 191C127.895 207.4 132.128 229.833 134.795 239M66.7952 209.5C81.9618 221.5 116.795 244.2 134.795 239M66.7952 209.5C106.795 206.7 128.795 228 134.795 239" stroke="black" stroke-width="10"/>
<path d="M811.795 105C827.795 177 774.462 203 745.795 207V222.5C836.595 199.3 827.629 134.5 811.795 105Z" fill="#6B4343"/>
<path d="M720.295 86.0002C735.095 67.2002 752.795 78.1669 759.795 86.0002C754.295 70.5002 737.495 45.0001 714.295 67.0001C691.095 89.0001 677.295 91.8335 673.295 90.5001C675.795 98.5001 701.795 109.5 720.295 86.0002Z" fill="#A06D6C"/>
<path d="M143.761 287.071C167.882 388.455 221.96 397.685 245.984 389.627C273.93 397.93 334.676 389.041 354.091 287.071C378.36 159.608 354.827 104.667 245.984 149.353C137.877 110.528 113.608 160.341 143.761 287.071Z" fill="#7F5757"/>
<circle cx="307.795" cy="228" r="13" fill="black"/>
<ellipse cx="303.295" cy="226" rx="3.5" ry="4" fill="white"/>
<circle cx="186.795" cy="228" r="13" fill="black"/>
<ellipse cx="182.295" cy="226" rx="3.5" ry="4" fill="white"/>
<path d="M247.295 166C151.295 125.6 131.629 179.5 133.795 211.5C126.195 113.1 206.295 129.833 247.295 150.5C276.095 131.7 308.629 133 321.295 136C364.895 146.4 365.129 190.667 359.795 211.5C360.195 124.3 284.962 144.833 247.295 166Z" fill="#AE8A8A"/>
<path d="M245.295 223.5C214.495 223.5 201.795 259.5 199.295 277.5H294.795C291.129 259.5 276.095 223.5 245.295 223.5Z" fill="#CD898B"/>
<path d="M430.795 209.5C417.995 193.9 381.795 190.667 365.295 191C369.695 207.4 365.462 229.833 362.795 239C380.795 244.2 415.628 221.5 430.795 209.5Z" fill="#A57271"/>
<path d="M430.795 209.5C417.995 193.9 381.795 190.667 365.295 191C369.695 207.4 365.462 229.833 362.795 239M430.795 209.5C415.628 221.5 380.795 244.2 362.795 239M430.795 209.5C390.795 206.7 368.795 228 362.795 239" stroke="black" stroke-width="10"/>
<path d="M246.038 418.5C204.038 418.5 199.538 400.833 202.538 392H295.538C296.538 400.833 288.038 418.5 246.038 418.5Z" fill="#D68E8F"/>
<path d="M758.795 86.5C773.628 84.3333 802.695 91.2999 800.295 136.5C797.895 181.7 759.295 193 740.295 193L749.295 219.5C810.295 216.5 837.795 151.5 816.795 113.5C799.995 83.1001 771.128 82.8333 758.795 86.5ZM758.795 86.5C753.962 70.5 738.495 43.6001 715.295 64.0001C686.295 89.5001 686.795 95.4999 669.795 86.5C677.628 102.5 698.895 130.3 721.295 113.5C749.295 92.5 738.795 91.9999 758.795 86.5Z" stroke="black" stroke-width="10"/>
<path d="M202.538 395C199.538 403.833 208.295 421 250.295 421C292.295 421 299.795 404 295.795 388.5" stroke="black" stroke-width="10"/>
<path d="M245.795 252.5C232.195 252.5 225.795 268.167 224.295 276H267.795C267.295 271 262.795 252.5 245.795 252.5Z" fill="#AF6E70"/>
<path d="M245.295 223.5C214.495 223.5 201.795 259.5 199.295 277.5H294.795C291.129 259.5 276.095 223.5 245.295 223.5Z" stroke="black" stroke-width="10"/>
<circle cx="320.795" cy="264" r="13" fill="#E69090"/>
<circle cx="173.795" cy="268" r="13" fill="#E69090"/>
<path d="M143.761 287.071C167.882 388.455 221.96 397.685 245.984 389.627C273.93 397.93 334.676 389.041 354.091 287.071C378.36 159.608 354.827 104.667 245.984 149.353C137.877 110.528 113.608 160.341 143.761 287.071Z" stroke="black" stroke-width="10"/>
<path d="M73.1322 34C26.7322 144.8 111.466 168.167 159.632 166C162.832 178.8 160.966 194.333 159.632 200.5C-43.9677 183.3 17.1323 82.3333 73.1322 34Z" fill="#FEEAEB"/>
<path d="M162.295 188C-10.5048 175.2 28.9619 82 70.2952 37C-59.3048 155.4 77.6285 196.667 162.295 202.5V188Z" fill="#DBA7A9"/>
<path d="M159.632 166C111.466 168.167 30.7952 150.5 73.1322 34C17.1323 82.3333 -43.9677 183.3 159.632 200.5M159.632 166C162.832 178.8 160.966 194.333 159.632 200.5M159.632 166C159.466 165 158.432 162 155.632 158M159.632 200.5C158.799 203.167 156.832 208.8 155.632 210" stroke="black" stroke-width="10"/>
<path d="M424.062 34C470.462 144.8 385.729 168.167 337.562 166C334.362 178.8 336.229 194.333 337.562 200.5C541.162 183.3 480.062 82.3333 424.062 34Z" fill="#FEEAEB"/>
<path d="M147.795 320.5C148.995 270.5 204.795 277.5 244.795 277.5H297.295C339.295 277.5 350.462 306.167 350.795 320.5C350.795 370.5 300.795 391 248.295 391C195.795 391 146.295 383 147.795 320.5Z" fill="#F8A4A4"/>
<path d="M333.795 188C506.595 175.2 467.128 82 425.795 37C555.395 155.4 418.462 196.667 333.795 202.5V188Z" fill="#DBA7A9"/>
<path d="M424.062 34L419.355 35.6862L412.949 17.8035L427.329 30.2149L424.062 34ZM337.562 200.5L332.79 201.991L332.723 201.777L332.675 201.557L337.562 200.5ZM337.787 161.005C361.5 162.072 391.865 158.138 411.183 140.781C429.864 123.995 439.875 92.97 419.355 35.6862L428.769 32.3138C449.982 91.53 440.826 127.589 417.866 148.219C395.542 168.278 361.79 172.095 337.337 170.995L337.787 161.005ZM427.329 30.2149C441.602 42.5335 456.283 58.2709 467.032 75.321C477.732 92.2932 484.876 111.114 483.14 129.398C481.369 148.039 470.478 165.082 447.335 178.362C424.394 191.525 389.202 201.155 337.983 205.482L337.141 195.518C387.722 191.245 421.243 181.804 442.358 169.688C463.271 157.689 471.78 143.245 473.184 128.452C474.623 113.302 468.717 96.7443 458.573 80.654C448.478 64.6416 434.523 49.6332 420.795 37.7851L427.329 30.2149ZM342.335 199.009C342.725 200.259 343.386 202.215 344.076 203.966C344.423 204.846 344.749 205.602 345.028 206.163C345.395 206.904 345.436 206.803 345.098 206.464L338.027 213.536C337.088 212.597 336.434 211.342 336.068 210.605C335.615 209.69 335.172 208.646 334.773 207.634C333.972 205.602 333.232 203.408 332.79 201.991L342.335 199.009ZM332.675 201.557C331.266 195.038 329.247 178.644 332.711 164.787L342.413 167.213C339.477 178.956 341.192 193.629 342.449 199.443L332.675 201.557ZM332.63 165.178C332.962 163.19 334.414 159.492 337.466 155.133L345.658 160.867C344.428 162.625 343.621 164.113 343.121 165.205C342.584 166.38 342.476 166.93 342.494 166.822L332.63 165.178Z" fill="black"/>
<circle cx="203.295" cy="320.5" r="25.5" fill="#CF8989"/>
<circle cx="285.295" cy="320.5" r="25.5" fill="#CF8989"/>
<path d="M248.295 293.5C167.495 293.5 148.295 310.5 148.795 319C143.795 304.667 156.695 276 248.295 276C339.895 276 354.129 302.667 349.795 316C349.629 308.5 329.095 293.5 248.295 293.5Z" fill="#FFD7D7"/>
<path d="M219.795 311.5C199.795 307.1 190.795 324.333 188.795 333.5C183.295 327.667 175.595 313.6 188.795 304C201.995 294.4 214.962 305 219.795 311.5Z" fill="#A85757"/>
<path d="M301.795 311.5C281.795 307.1 272.795 324.333 270.795 333.5C265.295 327.667 257.595 313.6 270.795 304C283.995 294.4 296.962 305 301.795 311.5Z" fill="#A85757"/>
<path d="M147.795 320.5C148.995 270.5 204.795 277.5 244.795 277.5H297.295C339.295 277.5 350.462 306.167 350.795 320.5C350.795 370.5 299.795 394.5 247.295 394.5C194.795 394.5 146.295 383 147.795 320.5Z" stroke="black" stroke-width="10"/>
<circle cx="203.295" cy="320.5" r="20.5" stroke="black" stroke-width="10"/>
<circle cx="285.295" cy="320.5" r="20.5" stroke="black" stroke-width="10"/>
</svg>
