<svg width="927" height="537" viewBox="0 0 927 537" fill="none" xmlns="http://www.w3.org/2000/svg">
<path d="M861.681 375.097C968.009 430.851 888.13 489.238 834.9 511.463L33.6273 359.776C-38.5459 238.302 57.9363 220.315 115.199 226.506C211.329 71.3908 312.065 157.12 350.418 219.374C385.895 9.02282 503.532 92.6541 557.916 160.764C786.289 -150.561 786.077 77.7455 757.424 230.814C988.337 191.471 923.142 310.61 861.681 375.097Z" fill="#086906"/>
<path d="M744.173 401.108C816.459 446.196 752.862 492.777 712.028 510.432L202.509 403.742C174.214 354.169 239.505 346.148 275.688 348.334C248.108 270.371 313.062 281.535 348.986 296.862C360.195 81.7943 500.952 241.035 504.948 242.884C609.199 94.7321 651.606 206.917 659.779 281.529C863.573 245.8 743.815 389.299 744.173 401.108Z" fill="#38A736"/>
<path d="M755.628 406.851C914.83 386.804 847.643 461.136 794.149 500.808L526.17 447.102C479.513 351.489 541.96 366.559 579.015 386.046C577.399 207.26 634.5 281.312 663.253 340.686C894.163 175.777 821.049 316.084 755.628 406.851Z" fill="#76E274"/>
</svg>
