<svg width="133" height="280" viewBox="0 0 133 280" fill="none" xmlns="http://www.w3.org/2000/svg">
<path d="M27.349 63.7755C25.5878 73.1684 16.5887 204.373 14.2649 242.042L43.1261 277.684C61.8385 272.18 70.6443 249.065 70.6443 224.115V107.754C77.6499 109.151 87.8024 109.813 102.932 108.538C137.789 105.603 133.753 71.8475 123.112 66.7108C112.472 61.574 107.335 57.538 89.3566 43.2286C74.9738 31.781 58.414 34.3004 51.9319 36.9911C48.2628 31.2429 40.9246 19.3795 40.9246 17.9118C40.9246 16.0773 40.9246 -1.90127 27.349 7.27146C16.4884 14.6096 25.759 21.8255 31.7519 24.5162L40.9246 41.7609C37.5001 38.5811 28.5231 33.1753 20.0108 36.9911C11.4985 40.807 4.47829 41.7609 2.03223 41.7609C1.15164 57.6114 18.5431 63.0417 27.349 63.7755Z" fill="#F8CA06"/>
<path d="M33.2195 48.7322C30.6512 51.4229 23.7533 54.9697 16.7086 47.6315C20.5 46.0416 29.1102 44.0358 33.2195 48.7322Z" fill="#E29221"/>
<path d="M40.5577 41.7609C41.7318 40.5868 48.6297 39.0703 51.9319 38.4588L41.2915 17.9118C40.7045 2.06135 32.2411 3.72467 28.0828 6.53764C16.3417 14.7564 25.3921 21.9478 31.385 24.5162L40.5577 41.7609Z" fill="#E29221"/>
<path d="M62.5723 17.178L66.2414 34.0558L55.2341 35.8904L52.6657 19.0126C50.0974 16.8111 40.9246 3.96927 55.2341 2.13473C66.6817 0.667091 64.896 11.5521 62.5723 17.178Z" fill="#E29221"/>
<path d="M124.947 68.1784C120.25 66.4172 110.515 59.3726 106.234 56.0704C107.091 57.7826 106.161 64.2158 95.5941 76.2504C85.0271 88.285 92.1696 103.035 97.0617 108.905C99.7035 109.492 109.659 107.438 114.306 106.337C138.889 96.0635 130.817 70.3799 124.947 68.1784Z" fill="#EFAC00"/>
<path d="M17.0755 41.394C24.7072 37.8717 34.6872 39.9263 38.7232 41.394C35.421 35.8903 22.2123 34.4227 18.9101 36.9911C16.2683 39.0458 7.04667 41.5163 2.76606 42.4947C4.356 43.5954 9.44381 44.9163 17.0755 41.394Z" fill="#E29221"/>
<path d="M33.5865 50.1998C32.8526 47.5092 28.303 43.3019 15.9748 47.9984" stroke="#162851" stroke-width="3.58" stroke-linecap="round"/>
<path d="M93.0258 23.7824C94.1999 34.0558 89.6013 40.0487 87.1552 41.7609C84.5135 38.5321 74.558 35.5235 69.9105 34.4227C75.781 25.9105 87.7667 23.7824 93.0258 23.7824Z" fill="#E29221"/>
<path d="M12.5128 261.316C14.8366 223.646 25.5878 73.1684 27.349 63.7755C18.5431 63.0417 1.15164 57.6114 2.03223 41.7609C4.47829 41.7609 11.4985 40.807 20.0108 36.9911C28.5231 33.1753 37.5001 38.5811 40.9246 41.7609L31.7519 24.5162C25.759 21.8255 16.4885 14.6096 27.349 7.27146C40.9246 -1.90127 40.9246 16.0773 40.9246 17.9118C40.9246 19.3795 48.2628 31.2429 51.9319 36.9911C58.414 34.3004 74.9738 31.781 89.3566 43.2286C107.335 57.538 112.472 61.574 123.112 66.7108C133.753 71.8475 137.789 105.603 102.932 108.538C87.8024 109.813 77.6499 109.151 70.6443 107.754M70.6443 107.754C61.5103 105.933 57.7259 102.861 55.2341 101.2C57.5579 103.007 63.8932 106.848 70.6443 107.754ZM70.6443 107.754C70.6443 138.224 70.6443 204.155 70.6443 224.115C70.6443 249.065 61.8385 272.18 43.1261 277.684" stroke="#162851" stroke-width="3.58"/>
<path d="M66.2414 34.0558L62.5723 17.178C64.896 11.5521 66.6817 0.667091 55.2341 2.13473C40.9246 3.96927 50.0974 16.8111 52.6657 19.0126L55.2341 35.8904" stroke="#162851" stroke-width="3.58"/>
<path d="M87.1552 41.7609C89.6013 40.0487 94.1999 34.0558 93.0258 23.7824C87.7667 23.7824 75.781 25.9105 69.9105 34.4227" stroke="#162851" stroke-width="3.58"/>
<path d="M129.717 89.8261C125.925 94.3513 114.894 100.687 101.098 89.8261L98.5294 91.2937C100.242 90.6822 103.152 88.5052 101.098 84.6893" stroke="#162851" stroke-width="3.58" stroke-linecap="round" stroke-linejoin="round"/>
<ellipse rx="2.56836" ry="3.61803" transform="matrix(-0.745442 0.66657 0.66657 0.745442 117.318 77.9804)" fill="#172951"/>
<circle r="10.2735" transform="matrix(-1 0 0 1 69.5436 64.1424)" fill="black"/>
<circle r="2.93527" transform="matrix(-1 0 0 1 73.2126 62.6748)" fill="white"/>
<ellipse rx="6.23746" ry="7.70509" transform="matrix(-1 0 0 1 34.6872 98.265)" fill="#E29222"/>
<ellipse rx="8.87656" ry="10.6519" transform="matrix(-0.958269 -0.285867 -0.285867 0.958269 57.2682 120.508)" fill="#E29222"/>
<ellipse rx="6.90875" ry="8.71103" transform="matrix(-0.923851 0.382753 0.382753 0.923851 35.7095 121.503)" fill="#E29222"/>
<ellipse rx="6.27218" ry="7.90841" transform="matrix(-0.785774 -0.618514 -0.618514 0.785774 58.9897 145.441)" fill="#E29222"/>
<ellipse rx="10.9098" ry="13.7559" transform="matrix(-0.9749 -0.222644 -0.222644 0.9749 33.8303 155.565)" fill="#E29222"/>
<ellipse rx="5.3469" ry="6.74174" transform="matrix(-0.977557 0.210669 0.210669 0.977557 52.6229 170.925)" fill="#E29222"/>
<ellipse rx="4.75219" ry="5.99189" transform="matrix(-0.977557 0.210669 0.210669 0.977557 46.7579 87.145)" fill="#E29222"/>
<ellipse rx="9.00414" ry="11.353" transform="matrix(-0.783313 -0.621627 -0.621627 0.783313 58.3684 196.777)" fill="#E29222"/>
<ellipse rx="5.69395" ry="7.17933" transform="matrix(-0.933955 0.357391 0.357391 0.933955 56.5231 221.114)" fill="#E29222"/>
<ellipse rx="9.8366" ry="12.4027" transform="matrix(-0.933955 0.357391 0.357391 0.933955 33.9094 210.595)" fill="#E29222"/>
<ellipse rx="7.47878" ry="9.42977" transform="matrix(-0.933955 0.357391 0.357391 0.933955 51.1165 244.4)" fill="#E29222"/>
<ellipse rx="4.75848" ry="5.99982" transform="matrix(-0.993863 0.110622 0.110622 0.993863 34.7728 186.575)" fill="#E29222"/>
</svg>
