<svg width="676" height="600" viewBox="0 0 676 600" fill="none" xmlns="http://www.w3.org/2000/svg">
<path d="M394.954 177.618C394.954 252.185 455.397 267.637 529.954 267.637C604.51 267.637 664.954 252.185 664.954 177.618C664.914 157.659 660.656 137.934 652.46 119.736L650.876 116.321C649.469 113.4 647.991 110.584 646.442 107.786C635.595 88.4674 620.439 71.9118 602.152 59.4065C578.954 41.1368 567.954 36.6368 527.954 47.6368C498.454 35.1368 479.954 43.9769 456.893 59.9697C439.23 72.2195 424.54 88.2769 413.905 106.959C412.474 109.446 411.119 111.969 409.84 114.526C409.048 116.145 408.274 117.782 407.553 119.436C399.266 137.714 394.971 157.549 394.954 177.618Z" fill="#ECFFFE"/>
<path d="M559.454 490.637C553.787 457.303 555.454 375.137 607.454 313.137C659.454 251.137 660.454 181.304 654.454 154.137C606.954 135.304 488.854 109.537 396.454 157.137C385.287 167.637 346.254 184.137 279.454 166.137C195.954 143.637 105.954 164.637 62.9536 227.637C28.5536 278.037 35.6203 340.304 43.4536 365.137C40.9536 379.97 34.5536 412.537 28.9536 424.137C23.3536 435.737 15.9536 487.303 12.9536 511.637C10.9536 521.137 14.2536 539.637 43.4536 537.637C72.6536 535.637 101.954 536.803 112.954 537.637C114.787 547.97 124.954 568.637 150.954 568.637H210.954C216.12 568.137 226.754 564.737 227.954 555.137C229.282 544.509 213.355 534.666 195.454 530.122C196.787 520.96 203.254 496.437 218.454 471.637C223.565 463.296 227.519 452.64 230.412 441.137C244.926 445.637 282.254 452.537 315.454 444.137C315.557 443.236 315.67 442.282 315.792 441.279C310.147 494.455 316.151 551.224 356.954 568.637H432.954C440.787 566.637 453.854 559.237 443.454 545.637C435.882 535.735 423.963 531.24 414.954 529.528C418.017 512.95 429.362 482.924 453.429 452.637C459.104 480.97 478.454 537.637 510.454 537.637H574.454C582.287 536.47 596.754 531.137 591.954 519.137C588.567 510.671 575.193 504.362 563.454 500.56C562.43 499.419 560.198 495.837 559.454 490.637Z" fill="#ECFFFE"/>
<path d="M434.954 321.137C528.954 402.137 606.954 303.137 611.454 301.137C561.854 363.137 556.12 458.97 559.454 499.137H550.454C527.454 500.137 512.954 513.637 515.954 519.637C518.954 525.637 534.954 517.637 548.954 515.137C562.954 512.637 597.454 519.137 589.954 531.137C582.454 543.137 552.454 539.137 509.954 538.137C475.954 537.337 457.787 481.47 452.954 453.637C427.754 485.237 417.787 517.47 415.954 529.637C411.154 528.437 405.287 529.137 402.954 529.637C372.154 535.237 368.787 545.97 370.954 550.637C371.62 552.47 374.954 555.037 382.954 550.637C392.954 545.137 409.454 543.637 434.954 550.637C455.354 556.237 443.454 565.303 434.954 569.137H358.454C323.254 569.137 314.12 486.137 313.954 444.637C288.354 453.037 247.954 445.803 230.954 441.137C229.12 447.97 222.954 465.637 212.954 481.637C202.954 497.637 196.787 519.97 194.954 529.137C223.454 538.137 228.454 545.637 225.454 561.137C222.454 576.637 185.954 568.637 152.454 569.137C125.654 569.537 114.62 547.637 112.454 536.637C90.7869 536.803 43.0536 537.037 25.4536 536.637C3.45361 536.137 22.4536 448.137 32.4536 417.137C40.4536 392.337 39.7869 327.803 38.4536 298.637C38.9536 301.637 44.3536 309.637 61.9536 317.637C79.5536 325.637 96.6203 344.637 102.954 353.137C140.954 409.137 156.954 419.137 179.454 423.637C201.954 428.137 224.454 412.137 225.454 392.637C226.254 377.037 231.787 378.137 234.454 380.637C267.254 394.237 310.12 386.303 327.454 380.637L330.954 363.637C362.954 368.637 370.454 450.637 383.954 475.137C397.454 499.637 417.954 468.637 434.954 448.137C451.954 427.637 452.954 397.637 434.954 374.637C416.954 351.637 408.454 317.637 409.454 304.137C410.454 290.637 432.954 321.137 434.954 321.137Z" fill="#BEE8E5"/>
<path d="M396.331 185.647C395.966 184.307 395.683 183.001 395.481 181.738C395.791 183.043 396.072 184.346 396.331 185.647C403.764 212.964 445.302 254.839 539.481 248.738C638.281 242.338 660.814 203.405 663.481 181.738C667.814 212.238 647.581 271.938 531.981 266.738C392.195 260.45 404.011 224.216 396.331 185.647Z" fill="#BEE8E5"/>
<path d="M317.954 194.637C374.354 207.437 394.787 186.637 397.954 174.637V158.137C387.154 173.737 340.12 175.637 317.954 174.637C248.354 153.037 195.62 154.637 177.954 158.137C76.3536 178.537 47.6203 240.304 45.9536 268.637C48.787 256.637 68.9536 225.037 126.954 194.637C199.454 156.637 247.454 178.637 317.954 194.637Z" fill="white"/>
<path d="M529.481 67.2382C565.881 52.0382 614.314 79.1786 633.981 97.3452C590.481 27.7382 547.981 41.3453 529.481 52.3453C479.981 21.7382 425.981 91.5824 423.981 93.2382C468.781 55.6382 516.147 61.2382 529.481 67.2382Z" fill="white"/>
<path d="M111.954 538.141C110.62 524.474 101.454 497.241 75.4536 497.641" stroke="black" stroke-width="10"/>
<path d="M554.454 208.137C553.12 213.803 546.254 225.137 529.454 225.137C512.654 225.137 505.787 213.803 504.454 208.137" stroke="black" stroke-width="8"/>
<path d="M663.454 157.137C669.454 184.304 659.454 251.137 607.454 313.137C555.454 375.137 553.787 457.304 559.454 490.637C560.198 495.837 562.43 499.419 563.454 500.56M396.454 157.137C385.287 167.637 346.254 184.137 279.454 166.137C195.954 143.637 105.954 164.637 62.9536 227.637C28.5536 278.037 35.6203 340.304 43.4536 365.137C40.9536 379.97 34.5536 412.537 28.9536 424.137C23.3536 435.737 15.9536 487.304 12.9536 511.637C10.9536 521.137 14.2536 539.637 43.4536 537.637C72.6536 535.637 101.954 536.804 112.954 537.637C114.787 547.97 124.954 568.637 150.954 568.637C176.954 568.637 201.787 568.637 210.954 568.637C216.12 568.137 226.754 564.737 227.954 555.137C229.282 544.509 213.354 534.666 195.454 530.122M195.454 530.122C193.142 529.536 190.798 529.037 188.454 528.637C172.054 525.837 186.287 528.46 195.454 530.122ZM195.454 530.122C196.787 520.96 203.254 496.437 218.454 471.637C223.565 463.297 227.519 452.64 230.412 441.137M230.412 441.137C238.272 409.886 238.301 372.391 232.454 358.137C235.759 366.304 239.979 394.337 230.412 441.137ZM230.412 441.137C244.926 445.637 282.254 452.537 315.454 444.137C317.62 425.304 323.854 383.137 331.454 365.137C313.787 421.804 294.154 541.837 356.954 568.637H432.954C440.787 566.637 453.854 559.237 443.454 545.637C435.882 535.735 423.963 531.24 414.954 529.528M414.954 529.528C411.588 528.888 408.629 528.637 406.454 528.637L414.954 529.528ZM414.954 529.528C418.017 512.95 429.362 482.924 453.429 452.637M453.429 452.637C469.958 431.836 492.487 410.912 522.454 394.137C506.27 403.444 469.809 428.173 453.429 452.637ZM453.429 452.637C459.104 480.97 478.454 537.637 510.454 537.637C542.454 537.637 566.454 537.637 574.454 537.637C582.287 536.47 596.754 531.137 591.954 519.137C588.567 510.671 575.193 504.362 563.454 500.56M563.454 500.56C558.554 498.974 553.938 497.824 550.454 497.137L563.454 500.56Z" stroke="black" stroke-width="10"/>
<circle cx="581.954" cy="133.637" r="13" fill="black"/>
<ellipse cx="577.454" cy="131.637" rx="3.5" ry="4" fill="white"/>
<circle r="13" transform="matrix(-1 0 0 1 476.954 133.637)" fill="black"/>
<ellipse rx="3.5" ry="4" transform="matrix(-1 0 0 1 481.454 131.637)" fill="white"/>
<path d="M394.954 177.618C394.954 252.185 455.397 267.637 529.954 267.637C604.51 267.637 664.954 252.185 664.954 177.618C664.914 157.659 660.656 137.934 652.46 119.736L650.876 116.321C649.469 113.4 647.991 110.584 646.442 107.786C635.595 88.4674 620.439 71.9118 602.152 59.4065C578.954 41.1368 567.954 36.6368 527.954 47.6368C498.454 35.1368 479.954 43.9769 456.893 59.9697C439.23 72.2195 424.54 88.2769 413.905 106.959C412.474 109.446 411.119 111.969 409.84 114.526C409.048 116.145 408.274 117.782 407.553 119.436C399.266 137.714 394.971 157.549 394.954 177.618Z" stroke="black" stroke-width="10" stroke-miterlimit="10"/>
<path d="M570.454 190.637C565.787 201.804 551.054 219.437 529.454 200.637M529.454 200.637V190.637M529.454 200.637C522.787 208.637 505.454 218.137 489.454 192.137" stroke="black" stroke-width="10"/>
<path d="M644.454 46.6368C663.254 71.0368 653.954 97.8035 646.954 108.137C633.754 82.9368 607.12 61.9701 595.454 54.6368C603.954 41.8035 625.654 22.2368 644.454 46.6368Z" fill="#ECFFFE"/>
<path d="M636.5 60.5C644.9 74.5 640 85.3334 636.5 89L609.5 63.5C615 56.6667 628.1 46.5 636.5 60.5Z" fill="#87D2CE"/>
<path d="M644.454 46.6368C663.254 71.0368 653.954 97.8035 646.954 108.137C633.754 82.9368 607.12 61.9701 595.454 54.6368C603.954 41.8035 625.654 22.2368 644.454 46.6368Z" stroke="black" stroke-width="8"/>
<path d="M420 40.6368C401.2 65.0368 410.5 91.8035 417.5 102.137C430.7 76.9368 457.333 55.9701 469 48.6368C460.5 35.8035 438.8 16.2368 420 40.6368Z" fill="#ECFFFE"/>
<path d="M427.954 54.5C419.554 68.5 424.454 79.3334 427.954 83L454.954 57.5C449.454 50.6667 436.354 40.5 427.954 54.5Z" fill="#87D2CE"/>
<path d="M420 40.6368C401.2 65.0368 410.5 91.8035 417.5 102.137C430.7 76.9368 457.333 55.9701 469 48.6368C460.5 35.8035 438.8 16.2368 420 40.6368Z" stroke="black" stroke-width="8"/>
<path d="M503.954 176.346C503.954 168.891 515.37 167.637 529.454 167.637C543.537 167.637 554.954 168.891 554.954 176.346C554.954 183.802 543.537 194.637 529.454 194.637C515.37 194.637 503.954 183.802 503.954 176.346Z" fill="black"/>
<path d="M42.9538 364.137C63.6204 415.47 113.954 517.137 112.454 537.637" stroke="black" stroke-width="10"/>
</svg>
