<svg width="680" height="800" viewBox="0 0 680 800" fill="none" xmlns="http://www.w3.org/2000/svg">
<path d="M117.207 735.762C95.607 730.962 153.707 585.262 160.207 494.762L238.707 482.964C181.207 590.762 144.207 741.762 117.207 735.762Z" fill="#2390C9"/>
<path d="M209.207 547.762C166.007 652.562 126.874 702.095 112.707 713.762L125.207 653.262C127.207 644.462 167.04 587.262 186.707 559.762L213.707 533.762L209.207 547.762Z" fill="#0073AF"/>
<path d="M160.207 494.762C153.707 585.262 95.607 729.462 117.207 734.262C144.207 740.262 181.207 590.762 238.707 482.964L246.707 481.762L160.207 494.762Z" stroke="black" stroke-width="10"/>
<path d="M123.707 592.262C113.707 589.569 121.549 528.392 141.207 496.262C154.717 496.262 231.492 484.781 237.207 484.262C152.207 586.262 133.707 594.955 123.707 592.262Z" fill="#FF474D"/>
<path d="M242.207 247.762C163.007 312.962 147.54 380.262 149.707 405.762C124.207 422.595 74.007 462.362 77.207 486.762C80.407 511.162 230.207 486.595 304.707 471.262C576.707 440.762 571.707 275.762 555.207 233.762C542.007 200.162 549.707 180.095 555.207 174.262L576.207 51.7618C517.707 -22.2382 374.207 13.7618 354.207 86.7618C334.207 159.762 341.207 166.262 242.207 247.762Z" fill="#DF2026"/>
<path d="M149.207 404.762C150.407 365.962 167.04 334.262 175.207 323.262C175.207 414.262 266.707 411.262 268.707 411.262C355.107 405.262 415.04 336.095 434.207 302.262C446.207 319.862 463.207 301.262 470.207 289.762C461.207 417.262 338.707 450.762 312.207 464.262C285.707 477.762 84.707 516.262 77.207 488.262C71.207 465.862 122.707 423.262 149.207 404.762Z" fill="#096FA5"/>
<path d="M435.707 350.762C357.707 462.362 174.874 493.595 93.207 495.262C353.207 498.462 448.54 388.595 463.707 333.262C458.107 343.262 442.707 349.095 435.707 350.762Z" fill="#064C71"/>
<path d="M533.207 81.7618C542.707 23.7618 468.707 42.7618 466.707 42.7618C419.707 48.2617 388.207 86.7618 428.707 118.262C469.207 149.762 523.707 139.762 533.207 81.7618Z" fill="#FFF8D4"/>
<path d="M410.707 407.262C479.107 415.662 537.54 343.429 558.207 306.262C536.207 433.062 358.04 471.762 271.707 475.262C328.507 468.062 388.04 426.929 410.707 407.262Z" fill="#A9080D"/>
<circle r="21.5" transform="matrix(-1 0 0 1 490.5 81.2618)" fill="black"/>
<path d="M362.5 73.2618C384.667 53.9285 449.5 10.4618 523.5 19.2618C480 3.26184 407.5 5.26188 362.5 73.2618Z" fill="#FFCDCF"/>
<ellipse rx="6" ry="6.5" transform="matrix(-1 0 0 1 498 78.2618)" fill="white"/>
<path d="M330.707 158.262C320.307 197.062 284.374 231.429 267.707 243.762L264.707 229.262C302.707 201.662 324.54 170.429 330.707 158.262Z" fill="#FFCDCF"/>
<path d="M176.707 334.762C161.107 356.762 152.874 390.595 150.707 404.762C147.119 376.853 165.752 338.014 175.611 321.918C175.642 321.864 175.674 321.812 175.707 321.762C175.675 321.814 175.643 321.866 175.611 321.918C174.173 324.463 175.728 331.498 176.707 334.762Z" fill="#A7E1FF"/>
<path d="M175.207 325.762C193.207 287.362 242.707 245.095 265.207 228.762C277.607 333.962 373.374 296.262 419.707 264.262C423.707 301.462 454.707 291.762 469.707 282.262L470.707 300.762C453.507 328.362 426.374 324.429 421.707 316.762C399.707 352.762 327.707 414.762 252.207 409.762C191.807 405.762 175.707 352.095 175.207 325.762Z" fill="#67AB43"/>
<path d="M268.207 244.262C240.207 265.062 217.874 285.595 210.207 293.262L207.207 281.762C208.407 276.562 246.374 243.595 265.207 227.762L268.207 244.262Z" fill="#E1FFD1"/>
<path d="M50.207 784.262C3.70697 824.262 102.374 589.095 140.207 496.262C166.207 496.262 239.207 483.762 250.207 482.262C96.707 660.262 81.3655 757.459 50.207 784.262Z" fill="#DF2026"/>
<path d="M407.207 310.762C262.007 414.362 213.707 333.262 207.707 279.762C198.707 290.595 179.507 314.762 174.707 324.762C174.707 343.595 183.507 385.162 218.707 400.762C262.707 420.262 323.207 418.262 404.707 343.262C415.374 350.762 442.007 359.362 463.207 333.762C465.374 329.595 469.707 317.062 469.707 300.262C452.107 329.062 420.707 319.262 407.207 310.762Z" fill="#F8CA06"/>
<path d="M427.207 181.262C478.807 217.662 524.04 183.429 540.207 161.762C540.207 166.962 550.54 171.929 555.707 173.762C540.907 188.162 549.54 220.429 555.707 234.762C486.907 259.962 441.374 209.595 427.207 181.262Z" fill="#CD0F14"/>
<path d="M210.207 292.762C194.207 307.562 180.874 327.595 176.207 335.762L174.707 324.262C176.307 319.462 197.374 292.929 207.707 280.262L210.207 292.762Z" fill="#FFF0AE"/>
<path d="M242.207 247.762C163.007 312.962 147.54 380.262 149.707 405.762C124.207 422.595 74.007 462.362 77.207 486.762C80.407 511.162 230.207 486.595 304.707 471.262C576.707 440.762 571.707 275.762 555.207 233.762C542.007 200.162 549.707 180.095 555.207 174.262L576.207 51.7618C517.707 -22.2382 374.207 13.7618 354.207 86.7618C334.207 159.762 341.207 166.262 242.207 247.762Z" stroke="black" stroke-width="10"/>
<path d="M142.707 607.762C111.907 633.762 109.707 584.762 122.207 547.762C139.407 553.362 176.874 569.095 193.207 554.262C181.207 567.262 173.507 581.762 142.707 607.762Z" fill="#C5080E"/>
<path d="M453.207 246.262C458.007 258.662 458.54 279.429 458.207 288.262L469.207 283.262C467.207 260.262 453.501 247.046 453.207 246.262Z" fill="#AD040A"/>
<path d="M577.707 51.2618C548.907 48.4618 552.707 80.0951 558.207 96.2618C502.207 149.262 551.207 187.762 586.207 174.262C614.207 163.462 627.207 182.095 630.207 192.762C664.207 118.262 613.707 54.7618 577.707 51.2618Z" fill="#FFF8D5"/>
<path d="M548.707 170.762C515.107 148.362 541.04 111.762 558.207 96.2618C565.54 96.2618 580.407 100.562 581.207 117.762C582.007 134.962 595.874 136.595 602.707 135.262C627.107 134.462 631.207 171.929 630.207 190.762C621.707 172.762 606.207 166.262 586.207 174.262C570.207 180.662 554.54 174.595 548.707 170.762Z" fill="#DD813F"/>
<path d="M639.207 158.262C639.207 79.8619 587.54 56.5952 561.707 54.7619C573.707 45.1619 592.374 54.4285 600.207 60.2619C643.007 91.4619 644.04 138.595 639.207 158.262Z" fill="#FFFCEE"/>
<path d="M558.207 96.7618C565.04 96.4285 579.207 99.7618 581.207 115.762C583.707 135.762 591.707 134.762 600.207 134.762C608.707 134.762 631.707 136.262 630.207 193.262" stroke="black" stroke-width="10"/>
<path d="M434.707 122.762C478.207 118.762 503.707 122.762 534.707 70.7618C532.707 111.262 501.107 157.962 434.707 122.762Z" fill="#F8EDB7"/>
<path d="M565.707 158.762C540.207 155.762 538.707 127.929 541.707 115.762C526.107 136.562 534.207 156.762 540.207 164.262C547.374 171.095 566.807 182.562 587.207 173.762C607.607 164.962 623.04 177.429 628.207 184.762C608.707 147.762 589.733 161.588 565.707 158.762Z" fill="#B95208"/>
<path d="M577.707 51.2618C548.907 48.4618 552.707 80.0951 558.207 96.2618C502.207 149.262 551.207 187.762 586.207 174.262C614.207 163.462 627.207 182.095 630.207 192.762C664.207 118.262 613.707 54.7618 577.707 51.2618Z" stroke="black" stroke-width="10"/>
<path d="M454.207 314.262C447.407 332.662 439.04 346.262 435.707 350.762C447.707 350.762 459.04 340.762 463.207 335.762C466.807 328.962 469.374 309.262 470.207 300.262C465.407 306.662 457.54 312.262 454.207 314.262Z" fill="#C19E0A"/>
<path d="M458.207 288.762C457.407 306.762 454.874 314.262 453.707 315.762C460.107 313.762 467.707 304.929 470.707 300.762L469.207 282.762L458.207 288.762Z" fill="#3E960F"/>
<path d="M265.207 227.762C267.707 271.262 302.107 339.562 419.707 264.762C421.207 279.762 433.207 304.362 469.207 282.762" stroke="black" stroke-width="10"/>
<path d="M175.707 322.762C174.207 344.429 183.407 390.662 232.207 406.262C293.207 425.762 359.207 386.262 403.707 343.262C408.874 350.095 447.107 360.462 464.707 331.262" stroke="black" stroke-width="10"/>
<path d="M78.707 489.262C80.207 497.595 119.107 507.062 262.707 478.262C442.207 442.262 515.707 297.262 442.207 234.262" stroke="black" stroke-width="10"/>
<path d="M533.207 81.7618C542.707 23.7618 468.707 42.7618 466.707 42.7618C419.707 48.2617 388.207 86.7618 428.707 118.262C469.207 149.762 523.707 139.762 533.207 81.7618Z" stroke="black" stroke-width="10"/>
<path d="M50.207 784.262C3.70697 824.262 102.374 589.095 140.207 496.262C166.207 496.262 239.207 483.762 250.207 482.262C96.707 660.262 81.3655 757.459 50.207 784.262Z" stroke="black" stroke-width="10"/>
<path d="M123.707 592.262C113.707 589.569 121.549 528.392 141.207 496.262C154.717 496.262 255.991 478.781 261.707 478.262C176.707 580.262 133.707 594.955 123.707 592.262Z" fill="#FF471F"/>
<path d="M236.707 482.762C180.307 560.762 137.874 587.262 123.707 590.762C151.307 601.162 227.207 520.762 261.707 479.262L236.707 482.762Z" fill="#EE2B00"/>
<path d="M123.707 592.262C113.707 589.569 121.549 528.392 141.207 496.262C154.717 496.262 256.991 479.281 262.707 478.762C177.707 580.762 133.707 594.955 123.707 592.262Z" stroke="black" stroke-width="10"/>
<path d="M207.707 279.762C213.707 333.262 262.007 414.362 407.207 310.762C420.707 319.262 453.107 328.562 470.707 299.762" stroke="black" stroke-width="10"/>
</svg>
