<svg width="129" height="80" viewBox="0 0 129 80" fill="none" xmlns="http://www.w3.org/2000/svg">
<path d="M48.5002 72.2612C46.1002 71.8612 46.5002 69.4279 47.0002 68.2612C43.8002 62.2612 37.3335 63.0946 34.5001 64.2612C26.9001 73.8612 36.6668 77.2612 42.5001 77.7612C48.9001 78.9612 50.8335 76.9279 51.0001 75.7612C51.1668 74.7612 50.9002 72.6612 48.5002 72.2612Z" fill="#B5A598"/>
<path d="M48.5002 72.2612C46.1002 71.8612 46.5002 69.4279 47.0002 68.2612C43.8002 62.2612 37.3335 63.0946 34.5001 64.2612C26.9001 73.8612 36.6668 77.2612 42.5001 77.7612C48.9001 78.9612 50.8335 76.9279 51.0001 75.7612C51.1668 74.7612 50.9002 72.6612 48.5002 72.2612Z" stroke="#172951" stroke-width="1.5"/>
<path d="M1 69.8721C10.6 67.8721 14 60.0387 14.5 56.3721C33.1667 50.2054 75.2 41.7721 94 57.3721C91.8333 60.7054 88.2 67.7721 91 69.3721C94.5 71.3721 95 70.8721 95 73.3721C95 75.8721 90.5 77.2989 81.5 76.3355C80.111 76.8238 78.0354 77.2203 75 77.3721C67 77.7721 65.6667 70.2054 66 66.3721C65.5 67.2054 62.5 68.8721 54.5 68.8721C46.5 68.8721 42.5 66.5387 41.5 65.3721C40.5 67.0387 39 70.5721 41 71.3721C43.5 72.3721 45 72.3721 45 75.3721C45 78.3721 40 78.3721 32.5 78.3721C26.5 78.3721 26.3333 69.7054 27 65.3721H25.5C18.3 74.5721 6.16667 72.2054 1 69.8721Z" fill="#E1D3C7"/>
<path d="M94 57.3721C91.5 61.2054 87.6 69.0721 92 69.8721C93 70.3721 95.5 70.8721 95 73.8721C94.8333 75.2054 92 77.5721 82 76.3721" stroke="#172951" stroke-width="1.5"/>
<path d="M113.5 7.87206C110.3 7.47206 106.833 13.7054 105.5 16.8721C107.333 16.909 111.6 17.8608 114 21.3721C115.167 17.0387 116.7 8.27206 113.5 7.87206Z" fill="#E1D3C8"/>
<path d="M114.5 8.2612C110.9 10.2612 108.333 14.7612 107.5 16.7612L105.5 16.2612C110 6.7612 114 8.2612 114.5 8.2612Z" fill="#F3E8E2"/>
<path d="M114 8.26123C115.365 12.1468 113.205 17.2123 112.5 19.2612L114.063 19.7834C117.004 9.69133 114.374 8.59315 114 8.26123Z" fill="#B5A598"/>
<path d="M105.5 16.8721C106.833 13.7054 110.3 7.47206 113.5 7.87206C116.7 8.27206 115.167 17.0387 114 21.3721" stroke="#172951" stroke-width="1.5"/>
<path d="M26.0001 16.8721C6.00009 38.8721 12.6668 56.7054 18.5001 62.8721C19.7549 64.3721 22.0001 64.8721 28.5001 65.3721C35.0001 65.8721 43.0001 60.3721 51.0001 60.3721C59.0001 60.3721 58.0001 60.8721 72.0001 62.8721C86.0001 64.8721 109.5 31.3721 101 16.8721C92.5001 2.3721 51.0001 -10.6279 26.0001 16.8721Z" fill="#B8927B"/>
<path d="M36.9998 8.26123C33.7998 9.46123 28.6665 14.0946 26.4998 16.2612C22.8998 40.2612 34.6665 57.2612 40.9998 62.7612L44.4998 61.2612C29.6998 40.8612 33.3332 17.4279 36.9998 8.26123Z" fill="#C8A995"/>
<path d="M74.4998 2.26122C72.0998 0.661223 66.8331 0.92789 64.4998 1.26122C42.4998 15.6612 47.6664 46.5946 52.9998 60.2612L57.4998 60.7612C48.6998 22.7612 65.1664 5.92789 74.4998 2.26122Z" fill="#C8A995"/>
<path d="M74.5006 77.2612C67.7006 72.0612 71.334 65.7612 74.0006 63.2612L66.0007 62.2612C51.5006 58.2612 41.5007 62.7612 39.5007 62.7612C39.9338 63.5036 28.9538 65.1681 29.5002 65.7612C36.0002 64.2612 40.0002 65.7612 50.5002 68.7612C57.8493 69.3975 63.6029 67.8003 66.0007 66.7612C65.6007 75.5612 71.5006 77.4279 74.5006 77.2612Z" fill="#B5A598"/>
<path d="M63.5 56.7612C57.9 55.9612 56.1667 51.0946 56 48.7612C56 50.3612 57 57.4279 57.5 60.7612L74 62.7612C79.2 62.3612 84.8333 57.5946 87 55.2612C76 60.2612 70.5 57.7612 63.5 56.7612Z" fill="#8F6F5A"/>
<path d="M64.4998 1.26124C59.2998 0.0612442 52.6664 1.76124 49.9998 2.76124C33.9997 21.1613 42.3331 49.0946 48.4998 60.7612H53.4998C41.0998 23.1612 55.6664 5.42791 64.4998 1.26124Z" fill="#C8A995"/>
<path d="M83.9998 64.2612C80.5117 66.7527 79.5066 67.2578 82.964 70.7255C82.9789 70.7378 82.9908 70.7497 82.9998 70.7612C82.9878 70.7493 82.9759 70.7373 82.964 70.7255C82.1483 70.0484 72.6425 68.1987 80.4997 64.7612L83.9998 64.2612Z" fill="#B5A598"/>
<path d="M27.5075 65.7612H30.0076C27.6134 78.5612 39.5002 79.2612 44.0002 76.2612C43.5002 77.7612 43.0002 78.2612 33.5002 78.2612C25.9002 78.2612 26.3384 69.9279 27.5075 65.7612Z" fill="#B5A598"/>
<path d="M56.4998 59.7612C45.6998 22.9612 60.9998 5.4279 69.9998 1.26123L73.9998 2.26123C52.7998 15.4612 53.4998 46.0946 56.4998 59.7612Z" fill="#A27D64"/>
<path d="M52.4996 60.2612C39.4999 25.2612 51 6.76122 60.83 0.323123L64.8977 0.996757C43.5 14.2612 48.4055 46.8815 52.4996 60.2612Z" fill="#A27D64"/>
<path d="M44.4998 61.2612C28.8998 39.2612 32.9998 16.4279 36.9998 7.76123L50.9998 2.26123C34.1998 17.4612 42.3331 47.2612 48.4998 60.2612L44.4998 61.2612Z" fill="#C8A995"/>
<path d="M25.4999 61.2612C17.4999 61.6612 13.8332 47.7612 12.9999 40.7612C11.3999 61.5612 20.3332 65.4279 24.9999 64.7612C30.9999 66.3612 37.1666 63.7612 39.4999 62.2612C36.4999 59.7612 35.4999 60.7612 25.4999 61.2612Z" fill="#8F6F5A"/>
<path d="M26.0547 17.2612L27.9999 15.2612C24.4999 36.7612 34.9999 56.4279 40.9999 61.7612C26.1999 50.5612 25.5547 26.9279 26.0547 17.2612Z" fill="#A27D64"/>
<path d="M48.5001 60.2612C34.5001 29.4612 44.0001 8.76123 50.5001 2.26123L45.0002 4.26123C32.2002 25.0612 42.0001 50.2612 48.5001 60.2612Z" fill="#A27D64"/>
<path d="M44.4999 61.2612C28.4999 39.6612 33.1666 16.5946 37.4999 7.76123L33.9999 9.26123C26.3999 34.4612 37.8332 54.4279 44.4999 61.2612Z" fill="#A27D64"/>
<path d="M19.5 63.7612C16.7 69.7612 6.66667 70.2612 2 69.7612C13.6 75.3612 22.5 69.0946 25.5 65.2612L19.5 63.7612Z" fill="#B5A598"/>
<path d="M26.0001 16.8721C6.00009 38.8721 12.6668 56.7054 18.5001 62.8721C19.7549 64.3721 22.0001 64.8721 28.5001 65.3721C35.0001 65.8721 43.0001 60.3721 51.0001 60.3721C59.0001 60.3721 58.0001 60.8721 72.0001 62.8721C86.0001 64.8721 109.5 31.3721 101 16.8721C92.5001 2.3721 51.0001 -10.6279 26.0001 16.8721Z" stroke="#172951" stroke-width="1.5"/>
<path d="M126.5 49.3721C134 65.8721 82.9999 66.3721 81.9999 40.8721C81.8905 38.0832 82.0478 35.5927 82.4183 33.3721C63.5 14.8721 80.4999 15.3721 88.3153 21.3721C92.5295 17.329 97.9233 16.1976 101.5 16.3721C112.5 16.3721 116 22.3721 118 28.8721C120 35.3721 119 32.8721 126.5 49.3721Z" fill="#E1D3C8"/>
<path d="M90.5 26.2612C86.1 21.4612 79 18.2612 74.5 19.2612C76.9 15.2612 84.8333 18.9279 88.5 21.2612C88.5 22.0612 89.8333 24.9279 90.5 26.2612Z" fill="#F3E8E2"/>
<path d="M78 22.7612C78.5 24.9279 80 31.2612 88 28.2612C86.6667 26.9279 82 23.5612 78 22.7612Z" fill="#B5A598"/>
<path d="M78.5 22.8721C80.8333 23.3721 85.9 25.0721 87.5 27.8721" stroke="#172951" stroke-width="1.5" stroke-linecap="round"/>
<path d="M103 55.3721C104 55.3721 106.1 54.8721 106.5 52.8721" stroke="#172951" stroke-width="1.5" stroke-linecap="round"/>
<ellipse cx="73.7965" cy="17.4773" rx="1" ry="1.5" transform="rotate(-51.5325 73.7965 17.4773)" fill="#E1D3C8"/>
<path d="M114 60.8721C113.5 60.8721 110 61.3721 105 54.3721" stroke="#172951" stroke-width="1.5"/>
<path d="M27.0002 15.7612C24.8336 24.0946 24.5001 44.7721 40.5001 62.3721" stroke="#172951" stroke-width="1.5"/>
<path d="M37.5001 7.37207C33.3335 15.8721 28.9001 38.5721 44.5001 61.3721" stroke="#172951" stroke-width="1.5"/>
<path d="M51.4998 1.87207C44.1665 7.53874 33.2998 27.1721 48.4998 60.3721" stroke="#172951" stroke-width="1.5"/>
<path d="M104 16.3721C95.6 15.5721 90.1667 19.3721 88.5 21.3721C91 27.8721 95 32.3721 98.5 32.3721C102 32.3721 106 33.8721 107.5 39.3721C109 44.8721 113 50.3721 118.5 50.3721C122.9 50.3721 124.333 47.0388 124.5 45.3721C123 42.0388 119.7 34.3721 118.5 30.3721C117 25.3721 114.5 17.3721 104 16.3721Z" fill="#B8927B"/>
<path d="M65.4999 0.87207C56.3333 4.87207 40.9999 22.3721 52.9999 60.3721" stroke="#172951" stroke-width="1.5"/>
<path d="M75.5 1.87207C65.6666 5.7054 48.3 22.7721 57.5 60.3721" stroke="#172951" stroke-width="1.5"/>
<path d="M88.5 21.3721C89.8333 25.0387 93.7 32.3721 98.5 32.3721C104.5 32.3721 106.5 36.3721 108 40.8721C109.5 45.3721 113.5 50.8721 119 50.3721C123.4 49.9721 124.5 46.5387 124.5 44.8721" stroke="#172951" stroke-width="1.5"/>
<path d="M126.5 49.3721C134 65.8721 82.9999 66.3721 81.9999 40.8721C81.8905 38.0832 82.0478 35.5927 82.4183 33.3721C63.5 14.8721 80.4999 15.3721 88.3153 21.3721C92.5295 17.329 97.9233 16.1976 101.5 16.3721C112.5 16.3721 116 22.3721 118 28.8721C120 35.3721 119 32.8721 126.5 49.3721Z" stroke="#172951" stroke-width="1.5"/>
<circle cx="97.5" cy="41.8721" r="5.5" fill="black"/>
<circle cx="98.5" cy="40.2612" r="1.5" fill="white"/>
<path d="M14.5 56.3721C14 60.0387 10.6 67.8721 1 69.8721C6.16667 72.2054 18.3 74.5721 25.5 65.3721H27C26.3333 69.7054 26.5 78.3721 32.5 78.3721C40 78.3721 45 78.3721 45 75.3721C45 72.3721 43.5 72.3721 41 71.3721C39 70.5721 40.5 67.0387 41.5 65.3721C42.5 66.5387 46.5 68.8721 54.5 68.8721C62.5 68.8721 65.5 67.2054 66 66.3721C65.6667 70.2054 67 77.7721 75 77.3721C83 76.9721 84 74.8721 84 73.8721C84.1667 72.7054 83.5 70.8721 79.5 69.8721C78.5 68.8721 77.2 66.4721 80 64.8721C81.944 63.7612 83.5 64.2612 85.5 62.7612" stroke="#172951" stroke-width="1.5" stroke-linecap="round" stroke-linejoin="round"/>
<ellipse cx="71.5" cy="9.76123" rx="1.5" ry="1" fill="#E1D3C8"/>
<ellipse cx="88.791" cy="15.3345" rx="1.5" ry="1" transform="rotate(27.0799 88.791 15.3345)" fill="#E1D3C8"/>
<ellipse cx="99.791" cy="20.3345" rx="1.5" ry="1" transform="rotate(27.0799 99.791 20.3345)" fill="#E1D3C8"/>
<ellipse cx="68.0001" cy="14.2612" rx="1" ry="1.5" transform="rotate(-51.5325 68.0001 14.2612)" fill="#E1D3C8"/>
<ellipse cx="106.797" cy="21.4773" rx="1" ry="1.5" transform="rotate(-51.5325 106.797 21.4773)" fill="#E1D3C8"/>
<ellipse cx="79.7965" cy="12.4773" rx="1" ry="1.5" transform="rotate(-51.5325 79.7965 12.4773)" fill="#E1D3C8"/>
<ellipse cx="98.0743" cy="25.3098" rx="1" ry="1.5" transform="rotate(2.89449 98.0743 25.3098)" fill="#E1D3C8"/>
<ellipse cx="109.578" cy="32.5532" rx="1" ry="1.5" transform="rotate(-27.4039 109.578 32.5532)" fill="#E1D3C8"/>
<ellipse cx="76.7965" cy="6.47729" rx="1" ry="1.5" transform="rotate(-51.5325 76.7965 6.47729)" fill="#E1D3C8"/>
<ellipse cx="69.7965" cy="22.4773" rx="1" ry="1.5" transform="rotate(-77.9747 69.7965 22.4773)" fill="#E1D3C8"/>
<ellipse cx="104.675" cy="27.0518" rx="1" ry="1.5" transform="rotate(-77.9747 104.675 27.0518)" fill="#E1D3C8"/>
<ellipse cx="73.7967" cy="33.4773" rx="1" ry="1.5" transform="rotate(-13.7292 73.7967 33.4773)" fill="#E1D3C8"/>
<ellipse cx="61.9416" cy="23.5926" rx="1" ry="1.68533" transform="rotate(-51.5325 61.9416 23.5926)" fill="#E1D3C8"/>
<ellipse cx="67.9419" cy="27.5926" rx="1" ry="1.68533" transform="rotate(66.7527 67.9419 27.5926)" fill="#E1D3C8"/>
<ellipse cx="66.9418" cy="34.5926" rx="1" ry="1.68533" transform="rotate(27.2444 66.9418 34.5926)" fill="#E1D3C8"/>
<ellipse cx="30.6605" cy="55.7174" rx="1" ry="1.68533" transform="rotate(27.2444 30.6605 55.7174)" fill="#E1D3C8"/>
<ellipse cx="19.6605" cy="36.7174" rx="1" ry="1.68533" transform="rotate(27.2444 19.6605 36.7174)" fill="#E1D3C8"/>
<ellipse cx="60.9418" cy="45.5925" rx="1" ry="1.68533" transform="rotate(-13.5317 60.9418 45.5925)" fill="#E1D3C8"/>
<ellipse cx="63.9416" cy="52.5926" rx="1" ry="1.68533" transform="rotate(-51.5325 63.9416 52.5926)" fill="#E1D3C8"/>
<ellipse cx="65.4058" cy="18.4217" rx="1.11248" ry="1.45025" transform="rotate(-12.7845 65.4058 18.4217)" fill="#E1D3C8"/>
<ellipse cx="60.4058" cy="31.4217" rx="1.11248" ry="1.45025" transform="rotate(-12.7845 60.4058 31.4217)" fill="#E1D3C8"/>
<ellipse cx="80.406" cy="49.4217" rx="1.11248" ry="1.45025" transform="rotate(37.3009 80.406 49.4217)" fill="#E1D3C8"/>
<ellipse cx="24.7639" cy="51.589" rx="1.11248" ry="1.45025" transform="rotate(37.3009 24.7639 51.589)" fill="#E1D3C8"/>
<ellipse cx="70.4058" cy="40.4217" rx="1.11248" ry="1.45025" transform="rotate(-12.7845 70.4058 40.4217)" fill="#E1D3C8"/>
<ellipse cx="23.1246" cy="42.5465" rx="1.11248" ry="1.45025" transform="rotate(-12.7845 23.1246 42.5465)" fill="#E1D3C8"/>
<ellipse cx="73.406" cy="53.4217" rx="1.11248" ry="1.45025" transform="rotate(-60.5566 73.406 53.4217)" fill="#E1D3C8"/>
<ellipse cx="119.81" cy="42.4429" rx="1.11248" ry="1.45025" transform="rotate(-60.5566 119.81 42.4429)" fill="#E1D3C8"/>
<circle cx="62" cy="39.7612" r="1" fill="#E1D3C8"/>
<circle cx="77" cy="39.7612" r="1" fill="#E1D3C8"/>
<circle cx="116" cy="33.7612" r="1" fill="#E1D3C8"/>
<circle cx="112" cy="26.7612" r="1" fill="#E1D3C8"/>
<circle cx="113" cy="40.7612" r="1" fill="#E1D3C8"/>
<circle cx="94" cy="21.7612" r="1" fill="#E1D3C8"/>
<circle cx="24" cy="56.7612" r="1" fill="#E1D3C8"/>
<circle cx="22" cy="29.7612" r="1" fill="#E1D3C8"/>
<circle cx="86" cy="11.7612" r="1" fill="#E1D3C8"/>
<circle cx="71" cy="47.7612" r="1" fill="#E1D3C8"/>
<circle cx="20" cy="47.7612" r="1" fill="#E1D3C8"/>
</svg>
