<svg width="596" height="559" viewBox="0 0 596 559" fill="none" xmlns="http://www.w3.org/2000/svg">
<path d="M106.767 272.113C47.6651 290.774 84.0264 335.121 109.595 354.962L487.907 372.165C516.829 342.368 472.283 324.881 446.395 319.862C479.959 269.934 432.174 266.024 404.085 270.31C435.177 116.757 307.142 203.429 303.992 204.007C257.402 80.7309 207.187 152.081 187.903 203.165C50.8014 141.048 109.16 263.858 106.767 272.113Z" fill="#086906"/>
<path d="M403.973 324.7C449.429 335.396 424.999 365.132 407.102 378.663L90.5702 399.19C51.6092 360.428 86.2095 344.301 108.38 341.083C129.556 273.335 175.811 295.864 196.292 315.597C189.267 232.922 241.686 253.022 268.773 273.407C324.623 133.999 346.672 220.02 350.715 280.456C433.884 243.254 420.874 294.451 403.973 324.7Z" fill="#38A736"/>
</svg>
