<svg width="210" height="226" viewBox="0 0 210 226" fill="none" xmlns="http://www.w3.org/2000/svg">
<path d="M61.4999 147C51.8999 162.2 34.4999 177.667 26.9999 183.5L44.9999 214C59.3999 214 72.6666 204.667 77.4999 200C85.8999 196.4 114.333 198.5 127.5 200C135.5 208.4 155.167 213.833 164 215.5L182 185C165.2 176.6 154 154.5 150.5 144.5L61.4999 147Z" fill="#78D0E8"/>
<path d="M47.9999 167C47.1999 173.4 40.3333 179 36.9999 181H27.9999C39.5999 176.6 44.8333 165.5 45.9999 160.5C46.9999 160 48.7999 160.6 47.9999 167Z" fill="#A9DEED"/>
<path d="M103.5 170L53.4999 196C54.6999 202.4 48.9999 210.333 45.9999 213.5C53.5999 214.7 74.8333 205.333 84.4999 200.5C95.1666 198.5 117.9 195.7 123.5 200.5C129.1 205.3 151.5 212.833 162 216C165.167 217.333 169.6 219 162 215C154.4 211 153.167 202 153.5 198L103.5 170Z" fill="#33AFE5"/>
<path d="M41.9999 215C49.8333 213.5 67.8999 209 77.4999 203C89.4999 195.5 122.5 197.5 128.5 203C137.667 207.667 157 216 168 216" stroke="#162851" stroke-width="3.58"/>
<circle cx="170.5" cy="198.5" r="19.5" fill="#A9DEED"/>
<circle cx="35.4999" cy="198.5" r="19.5" fill="#A9DEED"/>
<path d="M21.9999 199.5C21.5999 189.5 28.8333 183.667 32.4999 182C27.3333 182.5 16.9999 186.7 16.9999 199.5C16.9999 212.3 28.3333 215.167 33.9999 215C30.1666 214 22.3999 209.5 21.9999 199.5Z" fill="#DFF2F6"/>
<path d="M157 199.5C156.6 189.5 163.833 183.667 167.5 182C162.333 182.5 152 186.7 152 199.5C152 212.3 163.333 215.167 169 215C165.167 214 157.4 209.5 157 199.5Z" fill="#DFF2F6"/>
<circle cx="170.5" cy="198.5" r="17.71" stroke="#162851" stroke-width="3.58"/>
<circle cx="35.4999" cy="198.5" r="17.71" stroke="#162851" stroke-width="3.58"/>
<path d="M62.9999 218C33.7999 158.4 54.4999 123.167 68.4999 113C94.5 123.4 126.333 118.333 139 114.5C171.8 141.7 154 194 143 218C130.6 228 116.167 222.167 110.5 218C112.1 213.2 110.667 191.167 110 188C106.4 176.8 105 178 103 176.5L98.9999 179.5C93.7999 187.5 94.3333 211.833 94.9999 218C82.1999 228 68.3333 222.167 62.9999 218Z" fill="#A9DEED"/>
<path d="M57.9999 198C45.9999 159.6 52.9999 140.333 57.9999 135.5L54.4999 132C39.2999 151.2 50.4999 184 57.9999 198Z" fill="#DFF2F6"/>
<path d="M136 149C124.4 152.2 115.5 149.667 112.5 148C128.1 147.2 145.667 139.667 152.5 136C165.7 152 151.333 198 142.5 219C134.1 227 119.667 222.333 113.5 219C119.5 219.5 134 217 137.5 211.5C141 206 149 169.5 150 161C151 152.5 150.5 145 136 149Z" fill="#78D0E8"/>
<path d="M87.9999 214.5C83.1999 218.9 69.3333 218.333 62.9999 217.5C74.9999 228.7 89.6666 223.167 95.4999 219C91.0999 194.6 98.8333 178 103 173.5C86.9999 171.5 86.4999 201.833 87.9999 214.5Z" fill="#78D0E8"/>
<path d="M54.4999 131.5C42.9999 156.5 43.9999 160 62.9998 218.5C68.3332 222.333 82.1999 227.7 94.9999 218.5C92.6665 198.333 94.9999 179 103 175" stroke="#162851" stroke-width="3.58"/>
<path d="M143 218.5L144.701 219.057L144.519 219.612L144.045 219.954L143 218.5ZM111 218.5L109.955 219.954L109.101 219.339L109.222 218.294L111 218.5ZM102.566 176.737C101.607 176.497 101.023 175.525 101.263 174.566C101.503 173.607 102.475 173.024 103.434 173.263L102.566 176.737ZM153.643 134.29C158.427 145.367 160.953 152.465 159.781 163.994C158.632 175.292 153.929 190.875 144.701 219.057L141.299 217.943C150.571 189.625 155.118 174.458 156.219 163.631C157.297 153.035 155.073 146.633 150.357 135.71L153.643 134.29ZM144.045 219.954C138.387 224.02 123.634 229.785 109.955 219.954L112.045 217.046C123.965 225.615 136.946 220.647 141.955 217.046L144.045 219.954ZM109.222 218.294C110.368 208.389 109.874 198.07 108.366 190.082C107.611 186.081 106.615 182.743 105.49 180.357C104.927 179.164 104.36 178.269 103.82 177.657C103.274 177.038 102.844 176.806 102.566 176.737L103.434 173.263C104.656 173.569 105.674 174.347 106.504 175.288C107.34 176.236 108.077 177.45 108.728 178.83C110.03 181.59 111.097 185.252 111.884 189.418C113.459 197.763 113.965 208.445 112.778 218.706L109.222 218.294Z" fill="#162851"/>
<path d="M26.9999 183C34.3333 178.5 46.9999 168.2 46.9999 157" stroke="#162851" stroke-width="3.58"/>
<path d="M179 183C170 177.5 161 172.5 158.5 157C158 152.5 156 142 152 136" stroke="#162851" stroke-width="3.58"/>
<path d="M190.306 65.9473C190.306 73.2955 177.409 79.8265 157.359 84.018C157.052 83.3206 156.722 82.6158 156.384 81.9335C155.837 80.8312 155.252 79.7665 154.645 78.6942C157.381 76.7072 158.904 74.5027 158.904 72.2158C158.904 66.6296 150.003 61.7183 136.334 58.719C125.977 56.5628 115.42 55.5171 104.842 55.5998C94.641 55.5155 84.4584 56.4702 74.4513 58.4491C60.2047 61.4484 50.8169 66.5022 50.8169 72.2158C50.8169 74.6377 52.519 76.9697 55.5858 79.0542C54.9259 80.2464 54.2886 81.4461 53.6962 82.6908C53.4763 83.1907 53.2513 83.6905 53.0214 84.1904C32.6188 79.9464 19.4144 73.3555 19.4144 65.9473C19.4144 58.9814 30.9617 52.7504 49.1823 48.5589C51.5294 35.5015 58.3913 23.6845 68.5682 15.1737C78.7452 6.66299 91.5898 2 104.856 2C118.123 2 130.968 6.66299 141.145 15.1737C151.322 23.6845 158.184 35.5015 160.531 48.5589C178.766 52.7279 190.306 58.959 190.306 65.9473Z" fill="#FFCE06"/>
<path d="M190.306 66.1572C190.306 73.5055 177.417 80.0364 157.359 84.2279C157.052 83.5306 156.722 82.8258 156.384 82.1359C155.834 81.0412 155.257 79.9664 154.652 78.9117C157.389 76.9172 158.904 74.7202 158.904 72.4182C158.904 66.8396 150.011 61.9208 136.334 58.9215C125.977 56.765 115.42 55.7193 104.842 55.8022C94.6347 55.7286 84.4469 56.6959 74.4363 58.689C60.1897 61.6883 50.7944 66.7421 50.7944 72.4482C50.7944 74.8852 52.4965 77.2096 55.5633 79.3016C54.9034 80.4938 54.2736 81.6935 53.6737 82.9382C53.4488 83.4106 53.2238 83.898 52.9989 84.3929C32.6188 80.1939 19.4144 73.588 19.4144 66.1572C19.4144 59.1989 30.9542 52.9604 49.1898 48.7689C64.1112 45.3122 83.6066 43.2277 104.864 43.2277C126.121 43.2277 145.579 45.3122 160.531 48.7689C178.766 52.9604 190.306 59.1989 190.306 66.1572Z" fill="#F3E455"/>
<path d="M49.1823 48.5364C52.1816 47.7866 55.2334 47.1492 58.3151 46.5869C58.1352 47.1867 58.0527 47.5092 58.0527 47.5092L49.1823 48.5364Z" fill="#FFEEA9"/>
<path d="M97.7557 3.46472C76.7608 8.66098 65.9333 27.294 61.1795 38.5863C56.6806 39.2912 53.4413 39.921 51.8817 40.2434C65.8884 3.83214 97.7557 3.46472 97.7557 3.46472Z" fill="#FEF8E2"/>
<path d="M61.1794 38.5863C60.0559 41.1897 59.0992 43.862 58.3151 46.5869C55.2334 47.1493 52.1816 47.7941 49.1823 48.5365C49.9381 45.7273 50.8391 42.9592 51.8817 40.2434C53.4413 39.921 56.658 39.2912 61.1794 38.5863Z" fill="#FBD7DC"/>
<path d="M50.8169 40.4534L51.8817 40.2284C50.8391 42.9442 49.9381 45.7123 49.1823 48.5214L50.8169 40.4534Z" fill="#ED2024"/>
<path d="M160.531 48.5364C160.531 48.5364 105.621 37.859 58.3151 46.5869C59.0992 43.862 60.0559 41.1897 61.1794 38.5863C79.8575 35.632 120.625 31.1631 158.461 40.4534L160.531 48.5364Z" fill="#ED2024"/>
<path d="M34.4858 67.3794C34.4858 67.3794 21.2965 57.9542 74.4588 45.5671C74.4588 45.5671 30.1819 46.2045 19.4144 64.1027C19.4144 64.1027 18.3422 72.7331 26.8527 75.275L34.4858 67.3794Z" fill="#FEF8E2"/>
<path d="M190.306 65.9848C190.306 73.333 177.417 79.8714 157.359 84.0629C157.052 83.3581 156.722 82.6608 156.384 81.9709C155.834 80.8762 155.257 79.8015 154.652 78.7467C157.389 76.7447 158.904 74.5552 158.904 72.2533C158.904 66.6746 150.011 61.7558 136.334 58.7565C125.978 56.5963 115.42 55.5506 104.842 55.6372C94.6351 55.565 84.4477 56.5297 74.4363 58.5165C60.1897 61.5158 50.7944 66.5696 50.7944 72.2832C50.7944 74.7127 52.4965 77.0446 55.5633 79.1291C54.9034 80.3213 54.2736 81.521 53.6737 82.7657L52.9989 84.2204C32.6188 80.0139 19.4144 73.4455 19.4144 65.9848C19.4144 59.0339 30.9542 52.7879 49.1898 48.5964C64.1412 45.1472 83.5916 43.0552 104.864 43.0552C126.136 43.0552 145.579 45.1472 160.531 48.5964C178.766 52.7879 190.306 59.0339 190.306 65.9848Z" stroke="#172951" stroke-width="3.58" stroke-miterlimit="10"/>
<path d="M104.864 43.0552C83.5916 43.0552 64.1412 45.1472 49.1898 48.5964C51.5412 35.5435 58.4043 23.7318 68.5801 15.2253C78.7559 6.71875 91.5972 2.05832 104.86 2.05832C118.123 2.05832 130.965 6.71875 141.14 15.2253C151.316 23.7318 158.179 35.5435 160.531 48.5964C145.579 45.1472 126.129 43.0552 104.864 43.0552Z" stroke="#172951" stroke-width="3.58" stroke-miterlimit="10"/>
<path d="M74.4588 58.4866C66.6663 63.8146 60.2079 70.8683 55.5858 79.0991C52.519 77.0146 50.817 74.6827 50.817 72.2533C50.817 66.5396 60.1897 61.4934 74.4588 58.4866Z" fill="#172951" stroke="#172951" stroke-width="1.19" stroke-miterlimit="10"/>
<path d="M158.904 72.2533C158.904 74.5552 157.404 76.7522 154.652 78.7467C150.12 70.7871 143.861 63.9457 136.334 58.7265C150.011 61.7408 158.904 66.6971 158.904 72.2533Z" fill="#172951" stroke="#172951" stroke-width="2.39" stroke-miterlimit="10"/>
<path d="M199.379 111.776C195.862 115.803 182.883 127.44 160.561 123.414C153.707 142.984 131.528 147.498 105.224 147.498C78.9202 147.498 56.748 142.999 49.8872 123.414C27.6025 127.433 14.6231 115.803 11.0689 111.776C7.51479 107.75 -0.178368 100.529 3.01587 92.1385C6.2101 83.748 19.362 82.7433 33.721 69.8313C47.6977 57.2643 62.7316 69.2465 62.7316 69.2465C66.1667 65.2514 70.1092 61.7224 74.4588 58.749C78.1479 57.9992 82.1819 57.3243 86.4559 56.8594C92.1829 56.2231 97.9397 55.8927 103.702 55.8697H104.864C115.443 55.784 126 56.8297 136.356 58.9889C140.57 61.8969 144.395 65.3314 147.739 69.209C147.739 69.209 162.773 57.2119 176.742 69.8013C191.108 82.7058 204.268 83.718 207.447 92.1085C210.626 100.499 202.911 107.742 199.379 111.776Z" fill="#A9DEED"/>
<path d="M47.6977 109.437C47.6977 109.437 49.5423 137.975 102.84 137.533C156.137 137.09 162.75 109.437 162.75 109.437C162.75 109.437 167.999 149.515 103.732 147.213C39.4647 144.911 47.6977 109.437 47.6977 109.437Z" fill="#68CCE6"/>
<path d="M67.4105 64.1027C67.4105 64.1027 97.8457 55.1048 142.52 63.6228L136.844 59.0039C136.844 59.0039 96.2411 51.5057 73.1091 58.854L67.4105 64.1027Z" fill="#DFF2F6"/>
<path d="M155.589 80.0439C155.589 80.0439 169.221 75.59 181.676 86.7023C188.147 90.4295 195.48 92.3992 202.948 92.416C202.948 92.416 214.66 94.388 206.525 103.986C198.389 113.583 189.639 126.915 161.093 122.934C161.093 122.934 171.733 105.178 155.589 80.0439Z" fill="#78D0E8"/>
<path d="M156.429 81.1086C156.429 81.1086 171.283 76.9621 177.102 85.0227C182.92 93.0832 188.079 94.7703 191.551 96.4424C195.022 98.1145 201.516 101.181 193.898 108.335C186.28 115.488 180.244 118.277 163.725 119.402C163.725 119.402 167.437 95.4377 156.429 81.1086Z" fill="#33AFE5"/>
<path d="M178.676 72.0358C175.155 69.1476 170.746 67.5591 166.192 67.5369C160.913 67.6364 155.885 69.807 152.193 73.5804L148.294 68.7966C151.387 66.3211 155.102 64.7439 159.031 64.2377C169.993 62.948 177.747 71.0386 178.676 72.0358Z" fill="#DFF2F6"/>
<path d="M55.8107 79.9164C55.8107 79.9164 42.179 75.4625 29.7245 86.5823C23.2519 90.3052 15.9189 92.2722 8.45206 92.2884C8.45206 92.2884 -3.26014 94.268 4.87542 103.866C13.011 113.463 21.7839 126.788 50.3296 122.806C50.3296 122.806 39.6896 105.05 55.8107 79.9164Z" fill="#78D0E8"/>
<path d="M54.9934 80.9812C54.9934 80.9812 40.1395 76.8422 34.3134 84.9027C28.4873 92.9633 23.3435 94.6504 19.8718 96.3225C16.4002 97.9946 9.90672 101.061 17.5249 108.207C25.1431 115.353 31.1791 118.157 47.6977 119.275C47.6977 119.275 43.9861 95.3178 54.9934 80.9812Z" fill="#33AFE5"/>
<path d="M32.7462 71.9458C36.2655 69.0533 40.6754 67.4642 45.2308 67.4469C50.5101 67.5432 55.5392 69.7144 59.2299 73.4905L62.6041 69.7414C59.8482 66.8871 56.2841 64.9455 52.3916 64.1777C41.3317 62.1007 33.1811 71.406 32.7462 71.9458Z" fill="#DFF2F6"/>
<path d="M62.7316 68.9465C62.7316 68.9465 47.7352 56.9494 33.721 69.5314C19.3619 82.4433 6.20258 83.4631 3.01584 91.8536C-0.170899 100.244 7.51477 107.457 11.0689 111.484C14.6231 115.51 27.565 127.148 49.8871 123.129" stroke="#162851" stroke-width="3.58" stroke-miterlimit="10"/>
<path d="M162.75 108.852C162.75 140.622 136.994 147.205 105.224 147.205C73.454 147.205 47.6977 140.622 47.6977 108.852C47.7146 100.348 49.5288 91.9439 53.0214 84.1904L53.6963 82.7358C54.2961 81.4911 54.926 80.2913 55.5858 79.0991C60.2079 70.8683 66.6663 63.8145 74.4588 58.4866C84.4702 56.4997 94.6576 55.535 104.864 55.6072C115.443 55.5206 126 56.5663 136.356 58.7265C143.883 63.9457 150.143 70.7871 154.675 78.7467C155.284 79.8065 155.862 80.8812 156.407 81.9709C156.744 82.6608 157.074 83.3581 157.381 84.0629C160.913 91.8504 162.743 100.301 162.75 108.852V108.852Z" stroke="#162851" stroke-width="3.58" stroke-miterlimit="10"/>
<path d="M54.9934 80.1938C51.9568 79.137 48.7394 78.6985 45.5307 78.9041C35.5056 79.6165 34.1184 86.5373 22.8711 89.9415C13.7608 92.6934 7.24484 90.3839 4.17807 95.1903C3.32157 96.6062 2.88714 98.2372 2.92587 99.8916" stroke="#162851" stroke-width="3.58" stroke-miterlimit="10" stroke-linecap="round"/>
<path d="M155.409 80.2988C158.446 79.24 161.663 78.799 164.872 79.0016C174.905 79.7514 176.269 86.6423 187.509 90.039C196.62 92.7983 203.136 90.4814 206.202 95.2877C207.063 96.7048 207.497 98.3394 207.454 99.9966" stroke="#162851" stroke-width="3.58" stroke-miterlimit="10" stroke-linecap="round"/>
<path d="M147.716 68.9465C147.716 68.9465 162.75 56.9494 176.727 69.5314C191.086 82.4433 204.245 83.4556 207.432 91.8461C210.619 100.237 202.933 107.45 199.379 111.484C195.825 115.518 182.883 127.148 160.561 123.129" stroke="#162851" stroke-width="3.58" stroke-miterlimit="10"/>
<path d="M120.955 107.877C120.955 107.877 106.866 119.597 92.4095 111.844C92.4095 111.844 93.7142 128.19 103.874 128.602C103.852 128.602 119.965 130.522 120.955 107.877Z" fill="#162851"/>
<path d="M93.4293 121.539C93.4293 121.539 105.006 115.121 118.173 120.159C118.173 120.159 114.522 129.577 105.119 129.36C105.081 129.36 98.4756 130.709 93.4293 121.539Z" fill="#ED2024"/>
<path d="M95.4988 120.594C102.266 117.769 109.817 117.445 116.801 119.679L115.302 122.304C114.153 121.74 112.962 121.267 111.74 120.887C106.459 119.359 100.839 119.463 95.6188 121.187L95.4988 120.594Z" fill="#F6A2A9"/>
<path d="M121.165 107.187C106.251 120.189 92.6719 115.578 85.9236 102.898C79.1752 90.219 90.8199 73.7829 92.1471 61.3884C93.4742 48.9938 81.5296 43.1902 81.5296 43.1902C79.8575 32.1529 89.4327 31.6955 93.6167 31.9879C97.8007 32.2803 116.599 38.8263 111.867 68.8416C107.136 98.8569 122.365 95.9401 122.365 95.9401" fill="#A9DEED"/>
<path d="M93.5717 40.8433C93.5717 40.8433 104.534 42.5379 103.169 65.1525C101.805 87.767 100.26 102.831 118.631 107.892C118.631 107.892 113.329 117.048 98.7979 114.296C84.2664 111.544 82.7443 95.9401 83.9365 91.8986C83.9365 91.8986 85.7361 76.0848 90.5649 68.5566C90.5649 68.5566 95.9636 50.8084 84.3039 44.9523C84.3039 44.9523 91.3297 45.7471 93.5717 40.8433Z" fill="#68CCE6"/>
<path d="M103.702 78.6942C102.539 79.196 101.334 79.5974 100.103 79.8939C96.0528 80.8139 91.8308 80.6353 87.8731 79.3766L88.6229 77.2321C90.3486 77.7054 92.1014 78.0735 93.8717 78.3343C97.1251 78.8163 100.422 78.937 103.702 78.6942Z" fill="#33AFE5"/>
<path d="M103.439 91.9811C101.898 92.7837 100.274 93.4149 98.5955 93.8631C93.9548 95.0511 89.0724 94.9003 84.5139 93.4282C84.7163 92.326 84.9113 91.1788 85.1062 90.114C86.7408 90.5264 88.4879 90.9088 90.355 91.2162C94.6779 91.926 99.0631 92.1823 103.439 91.9811Z" fill="#33AFE5"/>
<path d="M107.338 102.029C105.727 103.344 103.914 104.393 101.97 105.133C94.7489 107.862 88.0455 105.35 85.9685 104.473L86.5534 101.159C88.28 101.626 90.0326 101.992 91.8021 102.254C96.9586 103.024 102.206 102.948 107.338 102.029Z" fill="#33AFE5"/>
<path d="M92.0849 42.1298C94.7185 39.1077 94.9552 35.0036 92.6137 32.9631C90.2722 30.9226 86.239 31.7184 83.6054 34.7405C80.9719 37.7627 80.7351 41.8667 83.0766 43.9072C85.4182 45.9477 89.4513 45.1519 92.0849 42.1298Z" fill="#33AFE5"/>
<path d="M94.2766 34.1549C94.2766 34.1549 111.522 39.6211 109.273 61.5683C107.024 83.5156 105.959 97.2823 118.608 96.8099C118.608 96.8099 108.111 95.1453 110.743 73.4155C113.374 51.6857 110.878 37.2666 94.2766 34.1549Z" fill="#DFF2F6"/>
<path d="M120.955 107.382C106.041 120.384 92.6644 115.585 85.9311 102.883C79.1977 90.1815 90.8274 73.7679 92.1546 61.3734C93.4817 48.9788 81.5371 43.1752 81.5371 43.1752C79.8575 32.1529 89.4327 31.6955 93.6167 31.9879C97.8007 32.2803 116.599 38.8263 111.867 68.8416C107.136 98.8569 122.365 95.9401 122.365 95.9401" stroke="#162851" stroke-width="3.58" stroke-miterlimit="10" stroke-linecap="round"/>
<path d="M118.098 105.778C120.365 106.572 122.338 108.033 123.76 109.969" stroke="#162851" stroke-width="3.58" stroke-miterlimit="10" stroke-linecap="round"/>
<path d="M121.78 107.877C121.78 107.877 119.531 128.317 105.891 128.707C92.252 129.097 91.3223 110.007 91.3223 110.007" stroke="#162851" stroke-width="3.58" stroke-miterlimit="10" stroke-linecap="round"/>
<path d="M81.5371 43.1977C98.558 48.8514 93.6167 31.9879 93.6167 31.9879" stroke="#162851" stroke-width="3.58" stroke-miterlimit="10" stroke-linecap="round"/>
<path d="M88.203 75.5675C88.203 75.5675 92.1471 79.9464 103.199 77.472" stroke="#162851" stroke-width="3.58" stroke-miterlimit="10" stroke-linecap="round"/>
<path d="M84.3564 88.6893C87.2821 90.3762 90.5309 91.4265 93.8904 91.7715C97.2499 92.1165 100.644 91.7484 103.852 90.6914" stroke="#162851" stroke-width="3.58" stroke-miterlimit="10" stroke-linecap="round"/>
<path d="M84.3564 98.7144C84.3564 98.7144 96.0012 106.588 107.751 100.641" stroke="#162851" stroke-width="3.58" stroke-miterlimit="10" stroke-linecap="round"/>
<path d="M132.937 94.5079C136.768 94.5079 139.873 91.4027 139.873 87.5721C139.873 83.7415 136.768 80.6363 132.937 80.6363C129.107 80.6363 126.001 83.7415 126.001 87.5721C126.001 91.4027 129.107 94.5079 132.937 94.5079Z" fill="#162851"/>
<path d="M131.663 88.127C132.793 88.127 133.71 87.2105 133.71 86.08C133.71 84.9494 132.793 84.033 131.663 84.033C130.532 84.033 129.616 84.9494 129.616 86.08C129.616 87.2105 130.532 88.127 131.663 88.127Z" fill="white"/>
<path d="M71.707 94.5079C75.5375 94.5079 78.6428 91.4027 78.6428 87.5721C78.6428 83.7415 75.5375 80.6363 71.707 80.6363C67.8764 80.6363 64.7711 83.7415 64.7711 87.5721C64.7711 91.4027 67.8764 94.5079 71.707 94.5079Z" fill="#162851"/>
<path d="M72.9741 88.127C74.1047 88.127 75.0212 87.2105 75.0212 86.08C75.0212 84.9494 74.1047 84.033 72.9741 84.033C71.8436 84.033 70.9271 84.9494 70.9271 86.08C70.9271 87.2105 71.8436 88.127 72.9741 88.127Z" fill="white"/>
</svg>
