<svg width="185" height="113" viewBox="0 0 185 113" fill="none" xmlns="http://www.w3.org/2000/svg">
<path d="M182 89C97.6 91.8 33.8333 31 12.5 0H9C55 75.6 143.5 94.6667 182 95V89Z" fill="#023D43"/>
<path d="M185 89C100.6 91.8 36.8333 31 15.5 0H12C58 75.6 146.5 94.6667 185 95V89Z" fill="#015F68"/>
<path d="M18.4115 12.4698C15.3959 14.2926 7.77305 15.6967 1.40654 6.73093C5.44885 4.94033 14.5091 3.58125 18.4115 12.4698Z" fill="#BFD37E"/>
<path d="M18.4114 12.4698C16.1925 13.8252 10.4579 14.7576 5.81054 8.15242C8.78298 6.81787 15.5726 5.91456 18.4114 12.4698Z" fill="#9DB74B"/>
<path d="M18.4114 12.4698C16.9684 13.2971 13.2827 14.0408 10.1183 9.77643C12.0587 8.97366 16.4406 8.26433 18.4114 12.4698Z" fill="#749508"/>
<path d="M50.7237 44.7686C50.2192 48.3028 46.4315 55.1819 35.3165 54.4249C36.5047 50.1061 41.2496 42.1285 50.7237 44.7686Z" fill="#BFD37E"/>
<path d="M50.7236 44.7686C50.3635 47.3782 47.4169 52.4738 39.2558 51.8825C40.1155 48.6953 43.7616 42.7908 50.7236 44.7686Z" fill="#9DB74B"/>
<path d="M50.7234 44.7686C50.4468 46.4309 48.6662 49.7986 43.2922 49.5454C43.907 47.5088 46.1611 43.6171 50.7234 44.7686Z" fill="#749508"/>
<path d="M77.9514 61.4662C75.1806 59.7807 70.791 54.157 75.3992 45.146C78.5806 47.6832 83.5451 54.4992 77.9514 61.4662Z" fill="#BFD37E"/>
<path d="M77.9514 61.4662C75.9011 60.2321 72.7 55.9486 76.1132 49.3452C78.4671 51.2032 82.0934 56.3601 77.9514 61.4662Z" fill="#9DB74B"/>
<path d="M77.9513 61.4662C76.6621 60.6405 74.4868 57.9489 76.6206 53.5519C78.1014 54.7938 80.5449 58.0682 77.9513 61.4662Z" fill="#749508"/>
<path d="M104.759 74.9546C104.273 79.9116 99.4176 89.7331 83.8786 89.3625C85.2688 83.2697 91.3911 71.8582 104.759 74.9546Z" fill="#BFD37E"/>
<path d="M104.759 74.9546C104.418 78.614 100.624 85.8979 89.2129 85.5762C90.2149 81.0809 94.9332 72.6267 104.759 74.9546Z" fill="#9DB74B"/>
<path d="M104.759 74.9544C104.475 77.2885 102.201 82.0921 94.695 82.0701C95.4265 79.1936 98.3286 73.6304 104.759 74.9544Z" fill="#749508"/>
<path d="M172.205 92.2773C173.445 96.2764 172.884 105.469 160.723 110.248C159.814 105.074 160.838 94.2358 172.205 92.2773Z" fill="#BFD37E"/>
<path d="M172.205 92.2772C173.133 95.2239 172.569 102.104 163.622 105.575C162.933 101.765 163.833 93.6765 172.205 92.2772Z" fill="#9DB74B"/>
<path d="M172.205 92.2772C172.746 94.178 172.55 98.6414 166.727 101.071C166.356 98.6039 166.791 93.3474 172.205 92.2772Z" fill="#749508"/>
<path d="M137.806 85.9038C134.56 82.7595 130.327 73.7646 139.366 62.9391C142.908 67.3672 147.554 78.1595 137.806 85.9038Z" fill="#BFD37E"/>
<path d="M137.805 85.9037C135.399 83.5948 132.369 76.7874 139.042 68.8654C141.669 72.1157 145.008 80.241 137.805 85.9037Z" fill="#9DB74B"/>
<path d="M137.806 85.9039C136.308 84.3846 134.181 80.0566 138.436 74.7388C140.066 76.8828 142.377 82.0855 137.806 85.9039Z" fill="#749508"/>
<path d="M34.2969 25.4973C31.5497 23.3927 27.5346 16.9249 33.4527 7.89078C36.5383 10.9458 41.0271 18.7442 34.2969 25.4973Z" fill="#BFD37E"/>
<path d="M34.2971 25.4974C32.2628 23.9538 29.3556 19.0437 33.7308 12.4275C36.0162 14.6675 39.2747 20.5528 34.2971 25.4974Z" fill="#9DB74B"/>
<path d="M34.2971 25.4974C33.0236 24.4742 31.023 21.3702 33.789 16.9487C35.2182 18.4355 37.4368 22.1885 34.2971 25.4974Z" fill="#749508"/>
</svg>
